<svg width="285" height="357" viewBox="0 0 285 357" fill="none" xmlns="http://www.w3.org/2000/svg">
<g clip-path="url(#clip0_2239_21786)">
<g filter="url(#filter0_d_2239_21786)">
<path d="M249.502 73.091C234.449 33.1618 221.905 4 221.905 4L186.908 18.4789C186.908 18.4789 214.086 78.3524 219.02 114.896C223.954 151.44 208.734 224.569 142 224.569C75.2658 224.569 60.0457 151.44 64.9797 114.856C69.9137 78.3116 97.0924 18.4381 97.0924 18.4381L62.0946 4C62.0946 4 49.5505 33.1618 34.4977 73.091C16.6852 120.321 15.6399 167.877 36.5466 207.276C65.7742 262.337 121.888 269.27 122.222 272.37C122.473 274.736 142 276 142 276C142 276 161.527 274.736 161.778 272.37C162.112 269.27 218.226 262.337 247.453 207.276C268.36 167.877 267.315 120.28 249.502 73.091Z" fill="#ED9E00"/>
</g>
<path d="M83.1729 56.2828L47.1739 42.1285C45.2506 41.3769 44.289 39.2058 45.0416 37.2434L58.7973 2.37959C59.5499 0.458955 61.724 -0.501364 63.6891 0.25019L99.6881 14.4045C101.611 15.156 102.573 17.3689 101.82 19.2478L88.0647 54.1534C87.3121 56.074 85.0962 57.0343 83.1729 56.2828Z" fill="#FFBD39"/>
<path d="M200.828 56.2835L236.827 42.1292C238.75 41.3777 239.712 39.2065 238.959 37.2441L225.203 2.33858C224.451 0.41794 222.277 -0.54238 220.312 0.209175L184.313 14.3635C182.389 15.115 181.428 17.3279 182.18 19.2068L195.936 54.1123C196.689 56.033 198.904 56.9933 200.828 56.2417V56.2835Z" fill="#FFBD39"/>
<path d="M249.077 119.204C244.436 90.8124 231.308 58.7878 229.635 56.5331C226.249 51.982 216.967 53.5269 216.674 61.8358C216.674 61.8358 233.984 101.919 235.196 134.945C236.409 167.972 224.116 203.086 202.5 222.752C176.452 246.509 142 249.056 142 249.056C142 249.056 107.548 246.468 81.5003 222.752C59.926 203.086 47.5919 167.93 48.8044 134.945C50.0169 101.96 67.3265 61.8358 67.3265 61.8358C67.0338 53.5269 57.7518 51.982 54.3652 56.5331C52.6928 58.7878 39.5224 90.8124 34.9232 119.204C30.2822 147.596 32.7073 184.882 56.8738 218.243C87.5628 260.622 142.042 268.221 142.042 268.221C142.042 268.221 196.521 260.622 227.21 218.243C251.377 184.882 253.76 147.596 249.119 119.204H249.077Z" fill="#FFBD39"/>
<path d="M49.9339 105.343C49.9339 108.182 47.6343 110.478 44.7911 110.478C41.948 110.478 39.6484 108.182 39.6484 105.343C39.6484 102.503 41.948 100.207 44.7911 100.207C47.6343 100.207 49.9339 102.503 49.9339 105.343Z" fill="white"/>
<path d="M147.143 258.952C147.143 261.791 144.843 264.088 142 264.088C139.157 264.088 136.857 261.791 136.857 258.952C136.857 256.113 139.157 253.816 142 253.816C144.843 253.816 147.143 256.113 147.143 258.952Z" fill="white"/>
<path d="M78.5724 235.696C81.4126 235.696 83.7151 233.397 83.7151 230.56C83.7151 227.724 81.4126 225.425 78.5724 225.425C75.7322 225.425 73.4297 227.724 73.4297 230.56C73.4297 233.397 75.7322 235.696 78.5724 235.696Z" fill="white"/>
<path d="M49.9339 173.818C49.9339 176.657 47.6343 178.954 44.7911 178.954C41.948 178.954 39.6484 176.657 39.6484 173.818C39.6484 170.979 41.948 168.683 44.7911 168.683C47.6343 168.683 49.9339 170.979 49.9339 173.818Z" fill="white"/>
<path d="M234.025 105.343C234.025 108.182 236.325 110.478 239.168 110.478C242.011 110.478 244.311 108.182 244.311 105.343C244.311 102.503 242.011 100.207 239.168 100.207C236.325 100.207 234.025 102.503 234.025 105.343Z" fill="white"/>
<path d="M205.426 235.696C208.266 235.696 210.569 233.397 210.569 230.56C210.569 227.724 208.266 225.425 205.426 225.425C202.586 225.425 200.283 227.724 200.283 230.56C200.283 233.397 202.586 235.696 205.426 235.696Z" fill="white"/>
<path d="M239.168 178.954C242.008 178.954 244.311 176.655 244.311 173.818C244.311 170.982 242.008 168.683 239.168 168.683C236.328 168.683 234.025 170.982 234.025 173.818C234.025 176.655 236.328 178.954 239.168 178.954Z" fill="white"/>
</g>
<g clip-path="url(#clip1_2239_21786)">
<path d="M167.094 89.9411C167.094 89.9411 168.859 88.8694 170.009 88.3953C172.904 87.1793 176.435 86.2313 176.435 86.2313L175.778 77.6162C175.778 77.6162 173.109 80.8932 168.038 80.9551C166.889 83.6344 165.965 87.0969 167.073 89.9411H167.094Z" fill="#FFA47C"/>
<path d="M102.632 117.188C102.632 117.188 103.536 108.902 95.2828 106.656C87.2352 104.471 75.3693 115.353 60.0133 113.045C54.2856 112.18 48.4347 101.4 48.4347 101.4C48.4347 101.4 46.8745 105.048 47.7367 108.758C48.5989 112.468 50.036 114.055 50.036 114.055C50.1592 114.488 47.4493 113.354 46.0122 111.829C45.15 110.922 44.2056 108.428 44.2056 108.428C44.2056 108.428 42.5633 114.673 48.7426 119.826C49.1327 120.156 44.6573 121.227 44.6573 121.227C44.6573 121.227 46.9976 125.082 51.6373 127.74C55.8048 130.131 61.0603 131.388 61.0603 131.388L54.0598 134.768C54.0598 134.768 61.4298 135.737 63.6264 135.572C65.1662 135.469 69.0257 133.758 69.0257 133.758L65.9668 137.901C65.9668 137.901 70.2985 139.199 80.2552 133.326C90.2325 127.472 102.632 117.147 102.632 117.147V117.188Z" fill="#330E01"/>
<path d="M194.563 96.6602C195.24 97.1136 194.891 106.615 187.172 108.532C179.474 110.469 171.283 109.274 168.06 112.324C164.816 115.374 162.886 118.115 158.78 117.765C156.029 117.518 154.1 116.281 154.1 116.281C154.1 116.281 158.862 116.838 160.299 115.828C162.044 114.591 163.174 112.489 164.939 109.913C165.74 108.758 167.834 107.79 167.834 107.79C167.834 107.79 164.693 107.254 162.742 108.284C160.792 109.315 158.657 110.098 157.2 109.851C155.557 109.583 154.141 107.336 154.141 107.336C154.141 107.336 156.399 108.532 157.918 107.645C159.437 106.759 162.537 103.915 166.048 104.059C169.558 104.203 167.67 101.483 164.59 101.091C163.276 100.926 161.141 102.884 161.141 102.884C161.141 102.884 161.942 99.0303 166.068 99.6074C177.442 101.215 178.796 97.7937 178.796 97.7937L194.645 96.6602H194.563Z" fill="#330E01"/>
<path d="M210.165 93.8154C210.719 94.3925 208.379 103.605 200.455 103.853C192.51 104.1 184.77 101.194 180.972 103.502C177.154 105.79 174.69 108.057 170.749 106.841C168.121 106.017 166.479 104.388 166.479 104.388C166.479 104.388 171.016 105.955 172.617 105.275C174.588 104.45 176.127 102.616 178.406 100.473C179.433 99.5038 181.67 99.0092 181.67 99.0092C181.67 99.0092 178.714 97.8138 176.579 98.4115C174.444 99.0092 172.206 99.3184 170.831 98.7619C169.291 98.1436 168.367 95.6497 168.367 95.6497C168.367 95.6497 170.338 97.2986 172.001 96.7421C173.664 96.1856 177.298 94.0834 180.685 94.9696C184.093 95.8558 182.82 92.7849 179.884 91.7544C178.652 91.3216 176.127 92.7643 176.127 92.7643C176.127 92.7643 177.708 89.1575 181.629 90.6209C192.407 94.6192 194.44 91.5483 194.44 91.5483L210.165 93.8154Z" fill="#330E01"/>
<path d="M226.117 94.8463C226.527 95.547 222.113 103.956 214.333 102.348C206.552 100.741 199.695 96.1035 195.466 97.4432C191.237 98.7829 188.301 100.411 184.75 98.3088C182.389 96.9073 181.178 94.9287 181.178 94.9287C181.178 94.9287 185.243 97.505 186.946 97.2165C189.04 96.8661 190.991 95.444 193.68 93.8982C194.891 93.1975 197.191 93.2387 197.191 93.2387C197.191 93.2387 194.604 91.3838 192.387 91.4662C190.17 91.5487 187.932 91.322 186.7 90.4563C185.345 89.4877 185.017 86.8495 185.017 86.8495C185.017 86.8495 186.536 88.9106 188.301 88.7663C190.067 88.622 194.07 87.4266 197.17 89.0755C200.27 90.7449 199.757 87.4679 197.129 85.7572C196.02 85.0359 193.249 85.8603 193.249 85.8603C193.249 85.8603 195.63 82.7275 199.1 85.0565C208.646 91.4662 208.194 89.5289 211.356 88.9518C221.559 87.035 226.117 94.8257 226.117 94.8257V94.8463Z" fill="#330E01"/>
<path d="M113.512 117.476C121.58 114.611 131.311 121.289 134.966 126.173C138.64 131.058 137.983 140.58 136.608 143.939C132.666 153.585 127.062 162.798 127.329 163.519C127.801 164.776 143.485 183.758 144.348 186.314C144.717 187.427 145.867 190.477 146.051 191.054C146.236 191.631 139.667 192.6 139.667 192.6C139.667 192.6 137.47 188.663 137.265 187.241C136.403 181.058 118.522 169.001 117.577 167.538C116.633 166.075 118.932 158.325 117.844 155.584C116.756 152.843 105.403 146.248 102.447 141.425C99.5113 136.602 97.9306 122.999 113.492 117.476H113.512Z" fill="#6F2200"/>
<path d="M138.99 191.714C138.99 191.714 138.785 194.517 139.236 194.888C139.688 195.259 147.941 198.474 149.111 197.938C150.281 197.402 147.674 194.043 147.325 192.847C146.976 191.652 145.539 189.735 145.539 189.735L138.969 191.714H138.99Z" fill="#303030"/>
<path d="M184.831 121.165C187.746 121.516 191.749 123.061 194.911 130.09C198.072 137.138 193.967 141.611 193.515 144.475C193.043 147.464 206.921 160.469 207.783 163.272C208.645 166.075 208.583 169.084 207.454 170.403C206.325 171.722 203.697 173.289 202.076 177.246C200.454 181.203 199.427 183.552 198.011 183.862C196.594 184.171 193.741 185.552 192.878 186.149C191.996 186.747 190.867 187.86 190.867 187.86C190.867 187.86 189.347 180.688 190.189 181.017C191.031 181.368 192.242 182.192 192.735 180.708C193.227 179.224 195.465 177.905 196.122 177.122C196.779 176.339 202.096 170.032 201.542 167.291C201.008 164.55 190.497 157.048 186.473 153.503C182.45 149.958 175.88 146.557 174.505 143.074C172.883 138.911 171.59 133.284 172.76 129.739C173.95 126.194 178.282 120.362 184.81 121.145L184.831 121.165Z" fill="#6F2200"/>
<path d="M92.327 121.145C94.5031 114.9 102.366 108.902 115.443 110.118C128.52 111.334 131.066 113.416 150.179 113.746C160.813 113.931 165.206 110.654 171.612 106.512C178.715 101.936 191.34 96.5157 199.614 94.3104C207.435 92.2082 217.7 91.6929 222.607 94.9493C227.513 98.2057 217.987 113.313 209.468 115.189C205.218 116.116 194.153 125.844 194.481 127.596C194.81 129.348 197.725 134.48 195.61 140.024C193.496 145.568 179.803 157.501 163.831 156.78C147.859 156.059 130.45 146.186 123.922 145.382C117.393 144.579 100.662 149.092 95.4475 143.692C90.233 138.293 90.0277 127.843 92.3681 121.145H92.327Z" fill="#97380E"/>
<path d="M190.19 181.038C190.19 181.038 187.706 179.492 186.946 180.172C186.186 180.852 183.99 187.736 184.195 188.849C184.4 189.962 186.556 188.952 187.685 188.766C188.794 188.56 190.888 187.88 190.888 187.88L190.21 181.038H190.19Z" fill="#191919"/>
<path d="M211.601 94.1863C210.184 97.319 209.815 108.16 212.278 111.561C214.742 114.961 220.962 116.198 223.754 117.27C226.567 118.341 228.969 118.815 229.975 120.052C230.981 121.289 231.022 122.134 231.679 122.587C232.315 123.02 237.365 122.773 238.207 122.196C239.049 121.618 239.398 119.825 240.075 119.001C240.753 118.197 241.307 116.425 240.814 115.703C240.322 114.982 239.151 112.447 237.673 111.519C236.195 110.592 231.761 105.542 230.221 103.791C228.702 102.018 226.259 96.3297 222.933 94.7221C219.607 93.1351 213.408 90.126 211.58 94.1656L211.601 94.1863Z" fill="#97380E"/>
<path d="M216.138 95.5055C215.091 96.0208 213.449 93.5681 213.633 91.7751C213.818 89.982 214.906 86.808 216.076 85.9218C217.247 85.0561 216.795 87.2614 217.555 88.5186C218.294 89.7553 219.608 93.7742 216.138 95.5055Z" fill="#6F2200"/>
<path d="M228.107 119.207C224.289 119.207 215.42 119.146 208.584 118.568C192.735 117.27 191.873 108.964 191.832 108.614L192.859 108.531C192.859 108.531 193.762 116.322 208.666 117.559C217.514 118.28 229.832 118.177 229.955 118.177V119.207C229.955 119.207 229.257 119.207 228.087 119.207H228.107Z" fill="#191919"/>
<path d="M230.592 115.002C230.592 115.002 230.633 113.23 232.275 111.189C233.692 109.438 234.944 109.025 234.944 109.025L236.504 110.592C236.504 110.592 235.067 111.21 234.082 112.509C233.096 113.807 232.645 115.992 232.645 115.992L230.592 115.002Z" fill="#191919"/>
<path d="M230.058 115.662C229.976 115.538 216.775 104.656 216.775 104.656L215.975 105.501L229.216 116.26L230.037 115.641L230.058 115.662Z" fill="#191919"/>
<path d="M219.464 115.889C219.382 115.766 218.048 113.128 217.288 108.985C216.631 105.378 217.411 102.987 218.233 100.741C219.054 98.4944 222.113 94.3723 222.113 94.3723L220.491 93.7334C220.491 93.7334 215.913 99.3806 215.461 104.863C215.009 110.345 217.309 115.106 217.309 115.106L219.423 115.889H219.464Z" fill="#191919"/>
<path d="M215.502 104.863C215.297 104.883 212.998 102.781 211.56 100.019C209.836 96.7219 209.939 93.1975 209.939 93.1975L210.986 92.9502C210.986 92.9502 210.986 97.0516 212.649 100.04C214.086 102.637 215.769 103.75 215.769 103.75L215.523 104.883L215.502 104.863Z" fill="#191919"/>
<path d="M231.085 119.393C230.305 119.393 229.586 119.001 229.155 118.363C228.806 117.847 228.683 117.229 228.806 116.611C228.929 115.992 229.278 115.477 229.792 115.127C230.818 114.426 232.317 114.735 233.015 115.766C233.364 116.281 233.487 116.899 233.364 117.518C233.241 118.136 232.892 118.651 232.378 119.001C231.988 119.269 231.557 119.393 231.085 119.393ZM231.085 115.621C230.798 115.621 230.531 115.704 230.284 115.869C229.956 116.075 229.751 116.405 229.669 116.796C229.586 117.167 229.669 117.559 229.894 117.889C230.325 118.527 231.249 118.713 231.886 118.28C232.214 118.074 232.419 117.744 232.502 117.353C232.584 116.982 232.502 116.59 232.276 116.26C232.009 115.869 231.557 115.621 231.085 115.621Z" fill="#E8A900"/>
<path d="M184.174 128.173C186.925 129.162 190.497 131.573 192.017 139.137C193.515 146.701 189.799 151.174 187.439 152.843C185.078 154.512 180.746 153.07 180.13 153.709C179.514 154.348 187.356 167.497 187.562 170.424C187.767 173.35 187.049 176.256 185.653 177.307C184.257 178.358 181.341 179.286 178.898 182.769C176.455 186.252 174.916 188.313 173.458 188.313C172 188.313 168.921 189.014 167.936 189.385C166.95 189.756 165.595 190.601 165.595 190.601C165.595 190.601 165.698 183.264 166.458 183.779C167.217 184.294 168.203 185.366 169.003 184.047C169.804 182.728 172.288 181.924 173.109 181.326C173.91 180.708 180.5 175.741 180.582 172.959C180.664 170.176 172.103 160.489 168.962 156.141C165.842 151.792 164.323 149.855 166.334 146.701C168.346 143.548 168.552 137.056 170.502 133.861C172.452 130.666 177.975 125.967 184.154 128.193L184.174 128.173Z" fill="#97380E"/>
<path d="M166.478 183.779C166.478 183.779 164.404 181.718 163.501 182.212C162.598 182.707 158.944 188.911 158.882 190.044C158.82 191.178 161.161 190.683 162.29 190.745C163.419 190.807 165.616 190.601 165.616 190.601L166.478 183.779Z" fill="#303030"/>
<path d="M111.275 116.981C120.164 117.29 127.021 127.472 128.705 133.593C130.388 139.714 126.138 148.68 123.552 151.4C116.079 159.212 107.682 165.024 107.682 165.827C107.662 167.208 123.675 174.113 124.475 175.04C125.276 175.968 127.267 184.315 127.226 184.933C127.185 185.551 120.678 182.109 120.678 182.109C120.678 182.109 120.616 180.275 119.384 179.451C118.152 178.626 96.5555 168.692 96.186 166.92C95.837 165.147 102.981 159.541 102.981 156.47C102.981 153.399 92.5112 141.672 91.5053 135.881C90.4993 130.089 94.133 116.342 111.296 116.961L111.275 116.981Z" fill="#97380E"/>
<path d="M120.657 182.109C120.657 182.109 118.624 184.212 118.748 184.809C118.871 185.407 122.648 192.023 123.942 192.373C125.235 192.724 126.035 189.797 126.549 188.622C127.082 187.447 127.185 184.954 127.185 184.954L120.636 182.13L120.657 182.109Z" fill="#303030"/>
<path d="M131.62 133.263C133.775 134.686 138.99 136.293 149.993 136.932C153.853 137.159 162.373 137.736 171.262 135.922C175.532 135.057 168.47 108.49 167.895 108.572C167.32 108.655 163.769 112.303 152.703 112.983C138.271 113.849 130.121 112.2 130.121 112.2C130.121 112.2 129.485 131.862 131.64 133.284L131.62 133.263Z" fill="#0A0045"/>
<path d="M155.803 112.632C155.803 112.632 158.554 123.267 159.067 133.613C159.744 147.196 158.451 156.614 158.451 156.614L165.164 157.315C165.164 157.315 166.457 146.948 165.287 132.418C164.384 121.268 161.715 111.767 161.715 111.767L155.823 112.632H155.803Z" fill="black"/>
<path d="M167.485 79.0796C165.884 78.4819 158.719 79.5124 161.675 79.1414C161.819 79.1414 157.179 79.6979 156.296 79.7391C155.496 79.7804 146.032 80.0483 140.981 84.1909C140.16 84.8711 137.984 85.6543 138.497 87.4267C140.55 91.7343 144.615 94.9082 149.111 96.9693C150.569 97.9379 151.882 96.1861 153.381 95.8769C156.419 95.2586 161.716 95.9594 165.576 95.4235C169.435 94.8876 171.94 92.4762 172.597 89.7969C173.254 87.1382 172.022 80.7903 167.505 79.059L167.485 79.0796Z" fill="#213C9B"/>
<path d="M138.496 87.4473C134.924 90.7243 131.988 93.6715 133.508 98.3088C134.76 102.122 142.848 101.854 145.866 100.452C147.406 99.7309 148.248 98.3088 149.11 96.9898C144.614 94.9494 140.549 91.7754 138.496 87.4473Z" fill="#DEDEDE"/>
<path d="M165.555 83.799C167.854 82.8097 170.01 85.0562 171.755 88.3126C173.5 91.569 177.831 99.2978 178.139 101.318C178.447 103.337 176.517 106.223 174.157 104.512C171.816 102.802 165.678 95.4643 164.282 92.7232C162.886 89.982 160.504 85.9424 165.534 83.799H165.555Z" fill="#0A0045"/>
<path d="M196.308 114.982C196.492 114.735 196.431 114.384 196.184 114.199L194.255 112.756C194.008 112.571 193.659 112.633 193.475 112.88C193.29 113.127 193.351 113.478 193.598 113.663L195.528 115.106C195.774 115.291 196.123 115.25 196.308 114.982Z" fill="#DEDEDE"/>
<path d="M197.005 114.178C197.19 113.931 197.149 113.581 196.882 113.395L194.952 111.953C194.706 111.767 194.357 111.829 194.172 112.076C193.987 112.324 194.049 112.674 194.295 112.859L196.225 114.302C196.471 114.488 196.841 114.446 197.025 114.178H197.005Z" fill="#DEDEDE"/>
<path d="M197.642 113.375C197.826 113.127 197.765 112.777 197.518 112.592L195.589 111.149C195.342 110.963 194.993 111.025 194.809 111.273C194.624 111.52 194.685 111.87 194.932 112.056L196.862 113.498C197.108 113.684 197.457 113.622 197.642 113.375Z" fill="#DEDEDE"/>
<path d="M198.196 112.551C198.381 112.303 198.32 111.953 198.073 111.767L196.143 110.325C195.897 110.139 195.548 110.201 195.363 110.448C195.179 110.696 195.24 111.046 195.486 111.231L197.416 112.674C197.663 112.86 198.012 112.798 198.196 112.551Z" fill="#DEDEDE"/>
<path d="M191.114 107.872C191.114 107.872 194.85 108.923 195.507 109.315C196.185 109.706 198.238 111.953 198.238 111.953C198.238 111.953 196.903 112.221 196.554 112.819C196.226 113.437 195.507 115.086 195.507 115.086C195.507 115.086 193.064 114.096 192.12 113.313C191.176 112.509 189.574 111.376 189.574 111.376L191.093 107.872H191.114Z" fill="#DEDEDE"/>
<path d="M181.752 75.2248C180.418 73.4729 175.922 71.2676 173.068 73.9676C170.194 76.6675 170.666 79.9239 171.59 82.0468C172.308 83.7162 173.109 84.7055 174.834 85.8803C175.183 86.1276 178.549 87.3436 179.288 87.2199C179.781 87.1375 180.767 83.7368 180.91 83.778C181.054 83.8193 181.465 83.675 181.547 83.4071C181.649 82.9948 181.649 80.4392 181.793 80.1919C181.937 79.9445 183.312 77.2446 181.773 75.2248H181.752Z" fill="#FFBD95"/>
<path d="M182.451 76.9358C182.451 76.9358 180.069 74.9572 176.251 77.3892C175.429 77.9045 176.271 80.9135 176.045 81.1196C175.799 81.3464 173.787 78.6258 173.828 78.9762C174.218 82.3356 172.863 83.902 172.576 83.8814C171.693 83.7784 169.763 78.7907 171.755 75.39C173.746 71.9893 177.688 72.3191 178.591 72.6901C179.494 73.0404 182.266 73.7618 182.451 76.9564V76.9358Z" fill="#8D3B26"/>
<path d="M175.244 79.965C175.368 81.0367 175.285 82.4382 174.69 82.5C174.095 82.5619 173.54 81.7581 173.417 80.6863C173.294 79.6146 173.643 78.6872 174.218 78.6253C174.793 78.5635 175.101 78.8933 175.224 79.965H175.244Z" fill="#FFBD95"/>
<path d="M172.268 79.8215C172.391 79.8215 172.76 82.3565 173.479 83.655C174.197 84.9534 175.552 86.2312 177.379 86.932C177.667 87.0556 178.201 87.0969 178.201 87.0969C178.201 87.0969 177.667 86.6022 177.544 86.5198C175.552 85.4274 174.505 84.0672 174.444 83.9023C174.403 83.7374 175.573 81.9855 176.189 80.5634C176.415 80.007 176.723 78.6055 176.723 78.6055H175.983C175.983 78.6055 175.881 79.5535 175.655 80.11C174.977 81.7794 173.91 83.0573 173.91 83.0573C173.91 83.0573 173.561 82.2741 173.294 81.5115C173.007 80.6459 172.884 79.3474 172.884 79.3474L172.227 79.8009L172.268 79.8215Z" fill="#383838"/>
<path d="M158.696 133.346C158.696 133.346 158.902 134.953 158.45 136.046C157.998 137.138 157.485 139.426 157.444 140.291C157.403 141.157 158.902 142.311 158.902 142.311L161.53 142.352C161.53 142.352 160.873 137.901 160.565 136.561C160.257 135.221 160.914 133.614 160.914 133.614L158.696 133.366V133.346Z" fill="black"/>
<path d="M155.064 114.756C155.064 114.756 153.832 118.857 153.421 123.33C153.011 127.802 153.36 130.275 154.632 130.646C155.905 130.997 157.897 131.162 158.574 132.233C159.252 133.326 159.908 134.603 160.832 134.562C161.756 134.521 162.064 126.957 162.002 121.99C161.941 117.023 160.873 115.415 160.873 115.415L155.064 114.756Z" fill="#191919"/>
<path d="M156.09 105.234C156.85 104.76 159.067 104.966 159.477 105.502C160.155 106.409 160.463 110.036 160.257 110.757C160.052 111.479 160.196 114.467 157.917 114.715C155.638 114.962 155.31 113.107 155.187 111.85C155.064 110.592 154.55 106.182 156.069 105.213L156.09 105.234Z" fill="#303030"/>
<path d="M160.279 108.985C160.279 108.985 160.464 113.767 157.815 113.87C155.906 113.932 155.66 112.139 155.105 112.159C154.551 112.159 153.34 112.839 152.745 112.654C152.149 112.468 150.035 111.417 149.234 111.603C148.433 111.788 141.453 113.437 141.659 114.571C141.864 115.725 146.175 120.754 150.938 120.342C155.701 119.929 156.871 116.9 157.918 116.817C158.965 116.735 161.839 118.755 162.927 116.838C163.42 115.972 164.241 109.027 160.258 108.985H160.279Z" fill="#191919"/>
<path d="M155.146 107.13C155.146 107.13 147.899 111.561 144.368 111.066C137.737 110.139 136.731 107.996 134.842 109.294C133.918 109.933 135.561 114.158 138.989 114.591C142.417 115.044 157.301 113.828 157.301 113.828C157.301 113.828 155.762 113.148 155.392 110.654C155.064 108.511 155.166 107.13 155.166 107.13H155.146Z" fill="#303030"/>
<path d="M184.544 78.2139C184.626 77.781 183.271 77.2452 183.271 76.8948C183.312 75.2254 182.656 71.9278 178.242 71.1446C172.042 70.0316 168.819 75.8231 170.05 79.5123C170.317 80.2955 170.748 81.2229 170.851 81.326C171.18 81.6352 171.672 80.5634 173.458 79.9039C174.895 79.368 176.394 78.9764 177.667 78.9352C180.356 78.8734 184.421 78.7291 184.524 78.1933L184.544 78.2139Z" fill="#0A0045"/>
<path d="M134.452 94.3307C135.519 92.5376 138.27 92.2284 140.611 92.5994C142.951 92.9704 148.638 97.0512 151.183 99.071C153.729 101.091 160.483 108.119 160.709 110.304C160.935 112.488 159.067 115.436 155.371 113.704C151.696 111.973 143.505 107.459 140.2 105.048C136.895 102.637 131.188 99.7718 134.431 94.3513L134.452 94.3307Z" fill="#DEDEDE"/>
<path d="M159.148 109.334C156.931 108.819 151.183 113.395 150.074 119.578C148.945 125.761 149.623 132.459 149.397 133.51C149.171 134.561 147.96 136.828 148.802 137.57C149.623 138.333 154.201 137.344 154.201 136.437C154.201 135.53 153.831 135.839 154.119 133.655C154.427 131.47 157.568 120.835 158.389 118.424C159.21 116.012 162.741 110.138 159.148 109.314V109.334Z" fill="#DEDEDE"/>
<path d="M150.732 137.077C149.911 136.314 151.101 134.067 151.327 133.016C151.553 131.965 150.875 125.246 152.005 119.084C152.497 116.404 153.852 114.034 155.392 112.241C151.307 110.16 144.963 106.594 142.171 104.533C139.913 102.884 136.546 101.029 135.663 98.2881C135.581 98.1232 135.499 97.979 135.437 97.7935C134.123 93.7951 136.115 91.0746 138.989 88.2922C138.825 88.0036 138.64 87.7563 138.496 87.4678C134.924 90.7448 131.988 93.6921 133.508 98.3293C133.569 98.4942 133.651 98.6591 133.733 98.824C134.616 101.565 137.983 103.42 140.241 105.069C143.054 107.13 149.377 110.695 153.462 112.777C151.902 114.57 150.547 116.94 150.075 119.62C148.946 125.803 149.623 132.501 149.397 133.552C149.171 134.603 147.96 136.87 148.802 137.612C149.397 138.148 151.861 137.798 153.236 137.241C152.148 137.427 151.081 137.427 150.732 137.097V137.077Z" fill="#C2C2C2"/>
<path d="M150.979 115.889C150.979 115.889 149.398 119.414 149.091 122.855C148.783 126.297 149.419 132.377 149.091 133.078C148.762 133.779 147.9 136.767 147.941 137.447C147.982 138.128 148.68 139.426 148.721 139.673C148.762 139.921 148.824 140.951 148.824 140.951L153.279 141.466L153.648 140.518C153.648 140.518 157.487 141.714 160.238 141.631C162.968 141.549 165.021 141.198 165.288 140.683C165.555 140.168 165.206 139.22 162.886 138.973C160.566 138.725 156.112 135.799 155.044 135.036C153.977 134.253 158.267 119.31 158.267 119.31C158.267 119.31 157.939 116.343 156.214 115.539C154.223 114.591 151 115.889 151 115.889H150.979Z" fill="black"/>
<path d="M158.861 134.088L161.695 134.417C162.002 134.459 162.29 134.191 162.331 133.84C162.372 133.49 162.126 133.181 161.818 133.14L158.985 132.81C158.677 132.769 158.389 133.037 158.348 133.387C158.307 133.737 158.554 134.046 158.861 134.088Z" fill="#303030"/>
<path d="M161.879 133.696L159.436 133.613C159.436 133.613 159.395 135.262 159.497 136.004C159.6 136.746 159.867 140.023 159.559 141.033C159.251 142.043 159.189 142.311 159.189 142.311H162.228C162.228 142.311 162.577 140.971 162.474 139.652C162.372 138.333 161.735 136.478 161.715 135.674C161.715 134.871 161.899 133.716 161.899 133.716L161.879 133.696Z" fill="#303030"/>
<path d="M169.086 89.0131C169.763 90.2497 169.558 91.6924 168.613 92.2077C167.669 92.7229 166.355 92.1252 165.678 90.8886C165 89.652 165.206 88.2093 166.15 87.6941C167.094 87.1788 168.408 87.7765 169.086 89.0131Z" fill="#DEDEDE"/>
<path d="M156.069 103.79C154.242 101.812 152.312 99.9775 151.204 99.0913C150.588 98.5966 149.787 97.9783 148.884 97.3394C148.966 97.2363 149.028 97.1127 149.11 97.0096C148.042 96.515 147.016 95.9791 146.01 95.3608C145.846 95.2578 145.702 95.1547 145.538 95.0517C144.367 94.3097 143.32 93.4441 142.315 92.5166C141.945 93.0937 141.883 93.8563 142.787 94.7425C144.963 96.886 156.418 104.223 156.5 104.285C156.357 104.12 156.192 103.955 156.049 103.79H156.069Z" fill="#C2C2C2"/>
<path d="M191.668 108.037C191.668 108.037 188.445 105.131 184.688 102.966C180.931 100.802 176.62 99.607 174.834 100.741C173.048 101.874 173.151 104.079 175.245 105.625C177.339 107.15 189.184 111.664 189.574 111.705C189.964 111.746 191.668 108.057 191.668 108.057V108.037Z" fill="#0A0045"/>
</g>
<mask id="path-63-outside-1_2239_21786" maskUnits="userSpaceOnUse" x="-0.5" y="213" width="288" height="115" fill="black">
<rect fill="white" x="-0.5" y="213" width="288" height="115"/>
<path d="M64.775 216.2V261H54.407V242.632H34.055V261H23.687V216.2H34.055V233.864H54.407V216.2H64.775ZM100.071 261.768C95.4198 261.768 91.2172 260.765 87.4625 258.76C83.7505 256.755 80.8278 254.003 78.6945 250.504C76.6038 246.963 75.5585 242.995 75.5585 238.6C75.5585 234.205 76.6038 230.259 78.6945 226.76C80.8278 223.219 83.7505 220.445 87.4625 218.44C91.2172 216.435 95.4198 215.432 100.071 215.432C104.721 215.432 108.903 216.435 112.615 218.44C116.327 220.445 119.249 223.219 121.383 226.76C123.516 230.259 124.583 234.205 124.583 238.6C124.583 242.995 123.516 246.963 121.383 250.504C119.249 254.003 116.327 256.755 112.615 258.76C108.903 260.765 104.721 261.768 100.071 261.768ZM100.071 252.936C102.716 252.936 105.105 252.339 107.239 251.144C109.372 249.907 111.036 248.2 112.231 246.024C113.468 243.848 114.087 241.373 114.087 238.6C114.087 235.827 113.468 233.352 112.231 231.176C111.036 229 109.372 227.315 107.239 226.12C105.105 224.883 102.716 224.264 100.071 224.264C97.4252 224.264 95.0358 224.883 92.9025 226.12C90.7692 227.315 89.0838 229 87.8465 231.176C86.6518 233.352 86.0545 235.827 86.0545 238.6C86.0545 241.373 86.6518 243.848 87.8465 246.024C89.0838 248.2 90.7692 249.907 92.9025 251.144C95.0358 252.339 97.4252 252.936 100.071 252.936ZM163.919 261L155.279 248.52H154.767H145.743V261H135.375V216.2H154.767C158.735 216.2 162.169 216.861 165.071 218.184C168.015 219.507 170.276 221.384 171.855 223.816C173.433 226.248 174.223 229.128 174.223 232.456C174.223 235.784 173.412 238.664 171.791 241.096C170.212 243.485 167.951 245.32 165.007 246.6L175.055 261H163.919ZM163.727 232.456C163.727 229.939 162.916 228.019 161.295 226.696C159.673 225.331 157.305 224.648 154.191 224.648H145.743V240.264H154.191C157.305 240.264 159.673 239.581 161.295 238.216C162.916 236.851 163.727 234.931 163.727 232.456ZM200.157 261.768C196.616 261.768 193.181 261.299 189.853 260.36C186.568 259.379 183.922 258.12 181.917 256.584L185.437 248.776C187.357 250.184 189.64 251.315 192.285 252.168C194.93 253.021 197.576 253.448 200.221 253.448C203.165 253.448 205.341 253.021 206.749 252.168C208.157 251.272 208.861 250.099 208.861 248.648C208.861 247.581 208.434 246.707 207.581 246.024C206.77 245.299 205.704 244.723 204.381 244.296C203.101 243.869 201.352 243.4 199.133 242.888C195.72 242.077 192.925 241.267 190.749 240.456C188.573 239.645 186.696 238.344 185.117 236.552C183.581 234.76 182.813 232.371 182.813 229.384C182.813 226.781 183.517 224.435 184.925 222.344C186.333 220.211 188.445 218.525 191.261 217.288C194.12 216.051 197.597 215.432 201.693 215.432C204.552 215.432 207.346 215.773 210.077 216.456C212.808 217.139 215.197 218.12 217.245 219.4L214.045 227.272C209.906 224.925 205.768 223.752 201.629 223.752C198.728 223.752 196.573 224.221 195.165 225.16C193.8 226.099 193.117 227.336 193.117 228.872C193.117 230.408 193.906 231.56 195.485 232.328C197.106 233.053 199.56 233.779 202.845 234.504C206.258 235.315 209.053 236.125 211.229 236.936C213.405 237.747 215.261 239.027 216.797 240.776C218.376 242.525 219.165 244.893 219.165 247.88C219.165 250.44 218.44 252.787 216.989 254.92C215.581 257.011 213.448 258.675 210.589 259.912C207.73 261.149 204.253 261.768 200.157 261.768ZM265.858 257.16C263.724 258.611 261.036 259.741 257.794 260.552C254.594 261.363 251.18 261.768 247.554 261.768C243.031 261.768 239.191 261.213 236.034 260.104C232.876 258.952 230.487 257.373 228.866 255.368C227.244 253.32 226.434 250.995 226.434 248.392C226.434 246.003 227.095 243.891 228.418 242.056C229.74 240.221 231.554 238.856 233.858 237.96C232.108 237.021 230.743 235.741 229.762 234.12C228.823 232.499 228.354 230.685 228.354 228.68C228.354 226.248 229.1 224.029 230.594 222.024C232.087 220.019 234.348 218.419 237.378 217.224C240.407 216.029 244.119 215.432 248.514 215.432C251.415 215.432 254.252 215.731 257.026 216.328C259.799 216.883 262.21 217.651 264.258 218.632L261.378 226.568C257.452 224.733 253.292 223.816 248.898 223.816C245.57 223.816 243.052 224.328 241.346 225.352C239.682 226.333 238.85 227.677 238.85 229.384C238.85 230.963 239.404 232.179 240.514 233.032C241.666 233.843 243.394 234.248 245.698 234.248H257.922V242.44H245.058C242.455 242.44 240.45 242.888 239.042 243.784C237.634 244.68 236.93 245.981 236.93 247.688C236.93 249.48 237.826 250.888 239.618 251.912C241.452 252.893 244.247 253.384 248.002 253.384C250.647 253.384 253.292 253.043 255.938 252.36C258.583 251.635 260.823 250.632 262.658 249.352L265.858 257.16ZM30.7623 325L22.1223 312.52H21.6103H12.5863V325H2.21825V280.2H21.6103C25.5783 280.2 29.0129 280.861 31.9143 282.184C34.8583 283.507 37.1196 285.384 38.6983 287.816C40.2769 290.248 41.0663 293.128 41.0663 296.456C41.0663 299.784 40.2556 302.664 38.6343 305.096C37.0556 307.485 34.7943 309.32 31.8503 310.6L41.8983 325H30.7623ZM30.5703 296.456C30.5703 293.939 29.7596 292.019 28.1383 290.696C26.5169 289.331 24.1489 288.648 21.0343 288.648H12.5863V304.264H21.0343C24.1489 304.264 26.5169 303.581 28.1383 302.216C29.7596 300.851 30.5703 298.931 30.5703 296.456ZM72.4408 279.432C76.5794 279.432 80.1848 280.243 83.2568 281.864C86.3288 283.485 88.7181 285.875 90.4248 289.032C92.1314 292.189 92.9848 296.008 92.9848 300.488V325H82.6168V314.248H62.1368V325H51.8968V300.488C51.8968 296.008 52.7501 292.189 54.4568 289.032C56.1634 285.875 58.5528 283.485 61.6248 281.864C64.6968 280.243 68.3021 279.432 72.4408 279.432ZM82.6168 305.928V299.528C82.6168 295.816 81.6994 293.021 79.8647 291.144C78.0301 289.224 75.5341 288.264 72.3768 288.264C69.1768 288.264 66.6594 289.224 64.8248 291.144C63.0328 293.021 62.1368 295.816 62.1368 299.528V305.928H82.6168ZM127.658 325.768C123.093 325.768 118.954 324.787 115.242 322.824C111.573 320.819 108.672 318.067 106.538 314.568C104.448 311.027 103.402 307.037 103.402 302.6C103.402 298.163 104.448 294.195 106.538 290.696C108.672 287.155 111.573 284.403 115.242 282.44C118.954 280.435 123.114 279.432 127.722 279.432C131.605 279.432 135.104 280.115 138.218 281.48C141.376 282.845 144.021 284.808 146.154 287.368L139.498 293.512C136.469 290.013 132.714 288.264 128.234 288.264C125.461 288.264 122.986 288.883 120.81 290.12C118.634 291.315 116.928 293 115.69 295.176C114.496 297.352 113.898 299.827 113.898 302.6C113.898 305.373 114.496 307.848 115.69 310.024C116.928 312.2 118.634 313.907 120.81 315.144C122.986 316.339 125.461 316.936 128.234 316.936C132.714 316.936 136.469 315.165 139.498 311.624L146.154 317.768C144.021 320.371 141.376 322.355 138.218 323.72C135.061 325.085 131.541 325.768 127.658 325.768ZM171.516 288.52V316.68H179.26V325H153.34V316.68H161.148V288.52H153.34V280.2H179.26V288.52H171.516ZM213.837 279.432C219.171 279.432 223.331 281.117 226.317 284.488C229.304 287.816 230.797 292.573 230.797 298.76V325H220.429V299.08C220.429 295.496 219.576 292.808 217.869 291.016C216.205 289.181 213.88 288.264 210.893 288.264C207.736 288.264 205.197 289.245 203.277 291.208C201.4 293.128 200.461 295.987 200.461 299.784V325H190.093V280.2H200.141V285.64C201.677 283.592 203.597 282.056 205.901 281.032C208.205 279.965 210.851 279.432 213.837 279.432ZM274.303 301.896H283.775V325H275.967V322.312C272.852 324.616 268.841 325.768 263.935 325.768C259.796 325.768 255.999 324.872 252.543 323.08C249.087 321.288 246.335 318.685 244.287 315.272C242.239 311.816 241.215 307.72 241.215 302.984C241.215 298.419 242.26 294.365 244.351 290.824C246.484 287.24 249.428 284.445 253.183 282.44C256.937 280.435 261.161 279.432 265.855 279.432C269.78 279.432 273.343 280.093 276.543 281.416C279.743 282.739 282.431 284.659 284.607 287.176L277.951 293.32C274.751 289.949 270.889 288.264 266.367 288.264C263.508 288.264 260.969 288.883 258.751 290.12C256.532 291.315 254.804 293.021 253.567 295.24C252.329 297.459 251.711 300.019 251.711 302.92C251.711 305.949 252.308 308.531 253.503 310.664C254.74 312.797 256.383 314.419 258.431 315.528C260.479 316.595 262.719 317.128 265.151 317.128C268.777 317.128 271.828 316.104 274.303 314.056V301.896Z"/>
</mask>
<path d="M64.775 216.2V261H54.407V242.632H34.055V261H23.687V216.2H34.055V233.864H54.407V216.2H64.775ZM100.071 261.768C95.4198 261.768 91.2172 260.765 87.4625 258.76C83.7505 256.755 80.8278 254.003 78.6945 250.504C76.6038 246.963 75.5585 242.995 75.5585 238.6C75.5585 234.205 76.6038 230.259 78.6945 226.76C80.8278 223.219 83.7505 220.445 87.4625 218.44C91.2172 216.435 95.4198 215.432 100.071 215.432C104.721 215.432 108.903 216.435 112.615 218.44C116.327 220.445 119.249 223.219 121.383 226.76C123.516 230.259 124.583 234.205 124.583 238.6C124.583 242.995 123.516 246.963 121.383 250.504C119.249 254.003 116.327 256.755 112.615 258.76C108.903 260.765 104.721 261.768 100.071 261.768ZM100.071 252.936C102.716 252.936 105.105 252.339 107.239 251.144C109.372 249.907 111.036 248.2 112.231 246.024C113.468 243.848 114.087 241.373 114.087 238.6C114.087 235.827 113.468 233.352 112.231 231.176C111.036 229 109.372 227.315 107.239 226.12C105.105 224.883 102.716 224.264 100.071 224.264C97.4252 224.264 95.0358 224.883 92.9025 226.12C90.7692 227.315 89.0838 229 87.8465 231.176C86.6518 233.352 86.0545 235.827 86.0545 238.6C86.0545 241.373 86.6518 243.848 87.8465 246.024C89.0838 248.2 90.7692 249.907 92.9025 251.144C95.0358 252.339 97.4252 252.936 100.071 252.936ZM163.919 261L155.279 248.52H154.767H145.743V261H135.375V216.2H154.767C158.735 216.2 162.169 216.861 165.071 218.184C168.015 219.507 170.276 221.384 171.855 223.816C173.433 226.248 174.223 229.128 174.223 232.456C174.223 235.784 173.412 238.664 171.791 241.096C170.212 243.485 167.951 245.32 165.007 246.6L175.055 261H163.919ZM163.727 232.456C163.727 229.939 162.916 228.019 161.295 226.696C159.673 225.331 157.305 224.648 154.191 224.648H145.743V240.264H154.191C157.305 240.264 159.673 239.581 161.295 238.216C162.916 236.851 163.727 234.931 163.727 232.456ZM200.157 261.768C196.616 261.768 193.181 261.299 189.853 260.36C186.568 259.379 183.922 258.12 181.917 256.584L185.437 248.776C187.357 250.184 189.64 251.315 192.285 252.168C194.93 253.021 197.576 253.448 200.221 253.448C203.165 253.448 205.341 253.021 206.749 252.168C208.157 251.272 208.861 250.099 208.861 248.648C208.861 247.581 208.434 246.707 207.581 246.024C206.77 245.299 205.704 244.723 204.381 244.296C203.101 243.869 201.352 243.4 199.133 242.888C195.72 242.077 192.925 241.267 190.749 240.456C188.573 239.645 186.696 238.344 185.117 236.552C183.581 234.76 182.813 232.371 182.813 229.384C182.813 226.781 183.517 224.435 184.925 222.344C186.333 220.211 188.445 218.525 191.261 217.288C194.12 216.051 197.597 215.432 201.693 215.432C204.552 215.432 207.346 215.773 210.077 216.456C212.808 217.139 215.197 218.12 217.245 219.4L214.045 227.272C209.906 224.925 205.768 223.752 201.629 223.752C198.728 223.752 196.573 224.221 195.165 225.16C193.8 226.099 193.117 227.336 193.117 228.872C193.117 230.408 193.906 231.56 195.485 232.328C197.106 233.053 199.56 233.779 202.845 234.504C206.258 235.315 209.053 236.125 211.229 236.936C213.405 237.747 215.261 239.027 216.797 240.776C218.376 242.525 219.165 244.893 219.165 247.88C219.165 250.44 218.44 252.787 216.989 254.92C215.581 257.011 213.448 258.675 210.589 259.912C207.73 261.149 204.253 261.768 200.157 261.768ZM265.858 257.16C263.724 258.611 261.036 259.741 257.794 260.552C254.594 261.363 251.18 261.768 247.554 261.768C243.031 261.768 239.191 261.213 236.034 260.104C232.876 258.952 230.487 257.373 228.866 255.368C227.244 253.32 226.434 250.995 226.434 248.392C226.434 246.003 227.095 243.891 228.418 242.056C229.74 240.221 231.554 238.856 233.858 237.96C232.108 237.021 230.743 235.741 229.762 234.12C228.823 232.499 228.354 230.685 228.354 228.68C228.354 226.248 229.1 224.029 230.594 222.024C232.087 220.019 234.348 218.419 237.378 217.224C240.407 216.029 244.119 215.432 248.514 215.432C251.415 215.432 254.252 215.731 257.026 216.328C259.799 216.883 262.21 217.651 264.258 218.632L261.378 226.568C257.452 224.733 253.292 223.816 248.898 223.816C245.57 223.816 243.052 224.328 241.346 225.352C239.682 226.333 238.85 227.677 238.85 229.384C238.85 230.963 239.404 232.179 240.514 233.032C241.666 233.843 243.394 234.248 245.698 234.248H257.922V242.44H245.058C242.455 242.44 240.45 242.888 239.042 243.784C237.634 244.68 236.93 245.981 236.93 247.688C236.93 249.48 237.826 250.888 239.618 251.912C241.452 252.893 244.247 253.384 248.002 253.384C250.647 253.384 253.292 253.043 255.938 252.36C258.583 251.635 260.823 250.632 262.658 249.352L265.858 257.16ZM30.7623 325L22.1223 312.52H21.6103H12.5863V325H2.21825V280.2H21.6103C25.5783 280.2 29.0129 280.861 31.9143 282.184C34.8583 283.507 37.1196 285.384 38.6983 287.816C40.2769 290.248 41.0663 293.128 41.0663 296.456C41.0663 299.784 40.2556 302.664 38.6343 305.096C37.0556 307.485 34.7943 309.32 31.8503 310.6L41.8983 325H30.7623ZM30.5703 296.456C30.5703 293.939 29.7596 292.019 28.1383 290.696C26.5169 289.331 24.1489 288.648 21.0343 288.648H12.5863V304.264H21.0343C24.1489 304.264 26.5169 303.581 28.1383 302.216C29.7596 300.851 30.5703 298.931 30.5703 296.456ZM72.4408 279.432C76.5794 279.432 80.1848 280.243 83.2568 281.864C86.3288 283.485 88.7181 285.875 90.4248 289.032C92.1314 292.189 92.9848 296.008 92.9848 300.488V325H82.6168V314.248H62.1368V325H51.8968V300.488C51.8968 296.008 52.7501 292.189 54.4568 289.032C56.1634 285.875 58.5528 283.485 61.6248 281.864C64.6968 280.243 68.3021 279.432 72.4408 279.432ZM82.6168 305.928V299.528C82.6168 295.816 81.6994 293.021 79.8647 291.144C78.0301 289.224 75.5341 288.264 72.3768 288.264C69.1768 288.264 66.6594 289.224 64.8248 291.144C63.0328 293.021 62.1368 295.816 62.1368 299.528V305.928H82.6168ZM127.658 325.768C123.093 325.768 118.954 324.787 115.242 322.824C111.573 320.819 108.672 318.067 106.538 314.568C104.448 311.027 103.402 307.037 103.402 302.6C103.402 298.163 104.448 294.195 106.538 290.696C108.672 287.155 111.573 284.403 115.242 282.44C118.954 280.435 123.114 279.432 127.722 279.432C131.605 279.432 135.104 280.115 138.218 281.48C141.376 282.845 144.021 284.808 146.154 287.368L139.498 293.512C136.469 290.013 132.714 288.264 128.234 288.264C125.461 288.264 122.986 288.883 120.81 290.12C118.634 291.315 116.928 293 115.69 295.176C114.496 297.352 113.898 299.827 113.898 302.6C113.898 305.373 114.496 307.848 115.69 310.024C116.928 312.2 118.634 313.907 120.81 315.144C122.986 316.339 125.461 316.936 128.234 316.936C132.714 316.936 136.469 315.165 139.498 311.624L146.154 317.768C144.021 320.371 141.376 322.355 138.218 323.72C135.061 325.085 131.541 325.768 127.658 325.768ZM171.516 288.52V316.68H179.26V325H153.34V316.68H161.148V288.52H153.34V280.2H179.26V288.52H171.516ZM213.837 279.432C219.171 279.432 223.331 281.117 226.317 284.488C229.304 287.816 230.797 292.573 230.797 298.76V325H220.429V299.08C220.429 295.496 219.576 292.808 217.869 291.016C216.205 289.181 213.88 288.264 210.893 288.264C207.736 288.264 205.197 289.245 203.277 291.208C201.4 293.128 200.461 295.987 200.461 299.784V325H190.093V280.2H200.141V285.64C201.677 283.592 203.597 282.056 205.901 281.032C208.205 279.965 210.851 279.432 213.837 279.432ZM274.303 301.896H283.775V325H275.967V322.312C272.852 324.616 268.841 325.768 263.935 325.768C259.796 325.768 255.999 324.872 252.543 323.08C249.087 321.288 246.335 318.685 244.287 315.272C242.239 311.816 241.215 307.72 241.215 302.984C241.215 298.419 242.26 294.365 244.351 290.824C246.484 287.24 249.428 284.445 253.183 282.44C256.937 280.435 261.161 279.432 265.855 279.432C269.78 279.432 273.343 280.093 276.543 281.416C279.743 282.739 282.431 284.659 284.607 287.176L277.951 293.32C274.751 289.949 270.889 288.264 266.367 288.264C263.508 288.264 260.969 288.883 258.751 290.12C256.532 291.315 254.804 293.021 253.567 295.24C252.329 297.459 251.711 300.019 251.711 302.92C251.711 305.949 252.308 308.531 253.503 310.664C254.74 312.797 256.383 314.419 258.431 315.528C260.479 316.595 262.719 317.128 265.151 317.128C268.777 317.128 271.828 316.104 274.303 314.056V301.896Z" fill="white"/>
<path d="M64.775 216.2H66.775V214.2H64.775V216.2ZM64.775 261V263H66.775V261H64.775ZM54.407 261H52.407V263H54.407V261ZM54.407 242.632H56.407V240.632H54.407V242.632ZM34.055 242.632V240.632H32.055V242.632H34.055ZM34.055 261V263H36.055V261H34.055ZM23.687 261H21.687V263H23.687V261ZM23.687 216.2V214.2H21.687V216.2H23.687ZM34.055 216.2H36.055V214.2H34.055V216.2ZM34.055 233.864H32.055V235.864H34.055V233.864ZM54.407 233.864V235.864H56.407V233.864H54.407ZM54.407 216.2V214.2H52.407V216.2H54.407ZM62.775 216.2V261H66.775V216.2H62.775ZM64.775 259H54.407V263H64.775V259ZM56.407 261V242.632H52.407V261H56.407ZM54.407 240.632H34.055V244.632H54.407V240.632ZM32.055 242.632V261H36.055V242.632H32.055ZM34.055 259H23.687V263H34.055V259ZM25.687 261V216.2H21.687V261H25.687ZM23.687 218.2H34.055V214.2H23.687V218.2ZM32.055 216.2V233.864H36.055V216.2H32.055ZM34.055 235.864H54.407V231.864H34.055V235.864ZM56.407 233.864V216.2H52.407V233.864H56.407ZM54.407 218.2H64.775V214.2H54.407V218.2ZM87.4625 258.76L86.5119 260.52L86.5203 260.524L87.4625 258.76ZM78.6945 250.504L76.9722 251.521L76.9795 251.533L76.9869 251.545L78.6945 250.504ZM78.6945 226.76L76.9813 225.728L76.9777 225.734L78.6945 226.76ZM87.4625 218.44L86.5203 216.676L86.5119 216.68L87.4625 218.44ZM121.383 226.76L119.669 227.792L119.675 227.801L121.383 226.76ZM121.383 250.504L123.09 251.545L123.096 251.536L121.383 250.504ZM112.615 258.76L113.565 260.52L112.615 258.76ZM107.239 251.144L108.216 252.889L108.229 252.882L108.242 252.874L107.239 251.144ZM112.23 246.024L110.492 245.035L110.485 245.048L110.477 245.061L112.23 246.024ZM112.23 231.176L110.477 232.139L110.485 232.152L110.492 232.165L112.23 231.176ZM107.239 226.12L106.235 227.85L106.248 227.858L106.261 227.865L107.239 226.12ZM92.9025 226.12L93.8797 227.865L93.8929 227.858L93.9059 227.85L92.9025 226.12ZM87.8465 231.176L86.1079 230.187L86.1005 230.2L86.0933 230.213L87.8465 231.176ZM87.8465 246.024L86.0933 246.987L86.1005 247L86.1079 247.013L87.8465 246.024ZM92.9025 251.144L91.8991 252.874L91.9121 252.882L91.9253 252.889L92.9025 251.144ZM100.071 259.768C95.7174 259.768 91.8432 258.832 88.4047 256.996L86.5203 260.524C90.5911 262.698 95.1223 263.768 100.071 263.768V259.768ZM88.4131 257C85.0029 255.158 82.3455 252.65 80.4021 249.463L76.9869 251.545C79.3102 255.355 82.4981 258.351 86.5119 260.52L88.4131 257ZM80.4168 249.487C78.5204 246.275 77.5585 242.662 77.5585 238.6H73.5585C73.5585 243.327 74.6872 247.65 76.9722 251.521L80.4168 249.487ZM77.5585 238.6C77.5585 234.537 78.5204 230.95 80.4113 227.786L76.9777 225.734C74.6872 229.567 73.5585 233.873 73.5585 238.6H77.5585ZM80.4077 227.792C82.3525 224.564 85.009 222.039 88.4131 220.2L86.5119 216.68C82.492 218.852 79.3032 221.874 76.9813 225.728L80.4077 227.792ZM88.4047 220.204C91.8432 218.368 95.7174 217.432 100.071 217.432V213.432C95.1223 213.432 90.5911 214.502 86.5203 216.676L88.4047 220.204ZM100.071 217.432C104.424 217.432 108.273 218.368 111.664 220.2L113.565 216.68C109.532 214.502 105.018 213.432 100.071 213.432V217.432ZM111.664 220.2C115.068 222.039 117.724 224.564 119.669 227.792L123.096 225.728C120.774 221.874 117.585 218.852 113.565 216.68L111.664 220.2ZM119.675 227.801C121.603 230.963 122.583 234.545 122.583 238.6H126.583C126.583 233.866 125.429 229.554 123.09 225.719L119.675 227.801ZM122.583 238.6C122.583 242.655 121.603 246.262 119.669 249.472L123.096 251.536C125.429 247.663 126.583 243.335 126.583 238.6H122.583ZM119.675 249.463C117.731 252.65 115.074 255.158 111.664 257L113.565 260.52C117.579 258.351 120.767 255.355 123.09 251.545L119.675 249.463ZM111.664 257C108.273 258.832 104.424 259.768 100.071 259.768V263.768C105.018 263.768 109.532 262.698 113.565 260.52L111.664 257ZM100.071 254.936C103.029 254.936 105.76 254.264 108.216 252.889L106.261 249.399C104.451 250.413 102.402 250.936 100.071 250.936V254.936ZM108.242 252.874C110.693 251.453 112.615 249.48 113.984 246.987L110.477 245.061C109.457 246.92 108.051 248.361 106.235 249.414L108.242 252.874ZM113.969 247.013C115.396 244.504 116.087 241.682 116.087 238.6H112.087C112.087 241.065 111.54 243.192 110.492 245.035L113.969 247.013ZM116.087 238.6C116.087 235.518 115.396 232.696 113.969 230.187L110.492 232.165C111.54 234.008 112.087 236.135 112.087 238.6H116.087ZM113.984 230.213C112.612 227.714 110.681 225.756 108.216 224.375L106.261 227.865C108.063 228.874 109.46 230.286 110.477 232.139L113.984 230.213ZM108.242 224.39C105.782 222.963 103.042 222.264 100.071 222.264V226.264C102.39 226.264 104.429 226.802 106.235 227.85L108.242 224.39ZM100.071 222.264C97.0992 222.264 94.3594 222.963 91.8991 224.39L93.9059 227.85C95.7123 226.802 97.7511 226.264 100.071 226.264V222.264ZM91.9253 224.375C89.4661 225.752 87.5209 227.703 86.1079 230.187L89.5851 232.165C90.6468 230.297 92.0722 228.877 93.8797 227.865L91.9253 224.375ZM86.0933 230.213C84.7184 232.718 84.0545 235.53 84.0545 238.6H88.0545C88.0545 236.123 88.5852 233.986 89.5997 232.139L86.0933 230.213ZM84.0545 238.6C84.0545 241.67 84.7184 244.482 86.0933 246.987L89.5997 245.061C88.5852 243.214 88.0545 241.077 88.0545 238.6H84.0545ZM86.1079 247.013C87.5176 249.492 89.4546 251.456 91.8991 252.874L93.9059 249.414C92.0838 248.357 90.6501 246.908 89.5851 245.035L86.1079 247.013ZM91.9253 252.889C94.3814 254.264 97.1118 254.936 100.071 254.936V250.936C97.7385 250.936 95.6903 250.413 93.8797 249.399L91.9253 252.889ZM163.919 261L162.274 262.138L162.871 263H163.919V261ZM155.279 248.52L156.923 247.382L156.326 246.52H155.279V248.52ZM145.742 248.52V246.52H143.742V248.52H145.742ZM145.742 261V263H147.742V261H145.742ZM135.374 261H133.374V263H135.374V261ZM135.374 216.2V214.2H133.374V216.2H135.374ZM165.07 218.184L164.241 220.004L164.251 220.008L165.07 218.184ZM171.79 241.096L170.126 239.987L170.122 239.993L171.79 241.096ZM165.007 246.6L164.209 244.766L161.968 245.74L163.366 247.744L165.007 246.6ZM175.055 261V263H178.889L176.695 259.856L175.055 261ZM161.294 226.696L160.006 228.226L160.018 228.236L160.03 228.246L161.294 226.696ZM145.742 224.648V222.648H143.742V224.648H145.742ZM145.742 240.264H143.742V242.264H145.742V240.264ZM161.294 238.216L162.583 239.746L161.294 238.216ZM165.563 259.862L156.923 247.382L153.634 249.658L162.274 262.138L165.563 259.862ZM155.279 246.52H154.766V250.52H155.279V246.52ZM154.766 246.52H145.742V250.52H154.766V246.52ZM143.742 248.52V261H147.742V248.52H143.742ZM145.742 259H135.374V263H145.742V259ZM137.374 261V216.2H133.374V261H137.374ZM135.374 218.2H154.766V214.2H135.374V218.2ZM154.766 218.2C158.516 218.2 161.656 218.825 164.241 220.004L165.9 216.364C162.683 214.897 158.953 214.2 154.766 214.2V218.2ZM164.251 220.008C166.885 221.192 168.831 222.831 170.177 224.905L173.532 222.727C171.721 219.937 169.144 217.821 165.89 216.36L164.251 220.008ZM170.177 224.905C171.515 226.967 172.223 229.456 172.223 232.456H176.223C176.223 228.8 175.351 225.529 173.532 222.727L170.177 224.905ZM172.223 232.456C172.223 235.446 171.499 237.927 170.126 239.987L173.455 242.205C175.324 239.401 176.223 236.122 176.223 232.456H172.223ZM170.122 239.993C168.782 242.022 166.842 243.621 164.209 244.766L165.804 248.434C169.059 247.019 171.642 244.949 173.459 242.199L170.122 239.993ZM163.366 247.744L173.414 262.144L176.695 259.856L166.647 245.456L163.366 247.744ZM175.055 259H163.919V263H175.055V259ZM165.727 232.456C165.727 229.473 164.741 226.927 162.559 225.146L160.03 228.246C161.091 229.111 161.727 230.405 161.727 232.456H165.727ZM162.583 225.166C160.465 223.383 157.561 222.648 154.191 222.648V226.648C157.049 226.648 158.882 227.279 160.006 228.226L162.583 225.166ZM154.191 222.648H145.742V226.648H154.191V222.648ZM143.742 224.648V240.264H147.742V224.648H143.742ZM145.742 242.264H154.191V238.264H145.742V242.264ZM154.191 242.264C157.561 242.264 160.465 241.529 162.583 239.746L160.006 236.686C158.882 237.633 157.049 238.264 154.191 238.264V242.264ZM162.583 239.746C164.733 237.935 165.727 235.411 165.727 232.456H161.727C161.727 234.45 161.099 235.766 160.006 236.686L162.583 239.746ZM189.853 260.36L189.281 262.276L189.295 262.281L189.31 262.285L189.853 260.36ZM181.917 256.584L180.094 255.762L179.442 257.208L180.701 258.172L181.917 256.584ZM185.437 248.776L186.62 247.163L184.629 245.703L183.614 247.954L185.437 248.776ZM192.285 252.168L192.899 250.265L192.285 252.168ZM206.749 252.168L207.786 253.878L207.804 253.867L207.823 253.855L206.749 252.168ZM207.581 246.024L206.247 247.514L206.289 247.551L206.332 247.586L207.581 246.024ZM204.381 244.296L203.749 246.193L203.758 246.196L203.767 246.199L204.381 244.296ZM199.133 242.888L198.671 244.834L198.683 244.837L199.133 242.888ZM190.749 240.456L191.447 238.582L190.749 240.456ZM185.117 236.552L183.598 237.854L183.607 237.864L183.616 237.874L185.117 236.552ZM184.925 222.344L186.584 223.461L186.589 223.453L186.594 223.446L184.925 222.344ZM191.261 217.288L190.467 215.453L190.456 215.457L191.261 217.288ZM210.077 216.456L210.562 214.516V214.516L210.077 216.456ZM217.245 219.4L219.098 220.153L219.731 218.595L218.305 217.704L217.245 219.4ZM214.045 227.272L213.059 229.012L215.04 230.135L215.898 228.025L214.045 227.272ZM195.165 225.16L194.056 223.496L194.044 223.504L194.032 223.512L195.165 225.16ZM195.485 232.328L194.61 234.126L194.639 234.141L194.668 234.154L195.485 232.328ZM202.845 234.504L203.307 232.558L203.292 232.554L203.276 232.551L202.845 234.504ZM211.229 236.936L211.927 235.062L211.229 236.936ZM216.797 240.776L215.294 242.096L215.303 242.106L215.312 242.116L216.797 240.776ZM216.989 254.92L215.335 253.795L215.33 253.803L216.989 254.92ZM210.589 259.912L209.795 258.077L210.589 259.912ZM200.157 259.768C196.795 259.768 193.543 259.323 190.396 258.435L189.31 262.285C192.819 263.275 196.437 263.768 200.157 263.768V259.768ZM190.425 258.444C187.295 257.509 184.89 256.342 183.133 254.996L180.701 258.172C182.954 259.898 185.84 261.249 189.281 262.276L190.425 258.444ZM183.74 257.406L187.26 249.598L183.614 247.954L180.094 255.762L183.74 257.406ZM184.254 250.389C186.373 251.943 188.855 253.163 191.671 254.071L192.899 250.265C190.424 249.466 188.341 248.425 186.62 247.163L184.254 250.389ZM191.671 254.071C194.505 254.985 197.357 255.448 200.221 255.448V251.448C197.794 251.448 195.356 251.057 192.899 250.265L191.671 254.071ZM200.221 255.448C203.282 255.448 205.905 255.018 207.786 253.878L205.712 250.458C204.777 251.024 203.048 251.448 200.221 251.448V255.448ZM207.823 253.855C209.706 252.657 210.861 250.895 210.861 248.648H206.861C206.861 249.302 206.608 249.887 205.675 250.481L207.823 253.855ZM210.861 248.648C210.861 246.957 210.145 245.514 208.83 244.462L206.332 247.586C206.724 247.9 206.861 248.206 206.861 248.648H210.861ZM208.915 244.534C207.846 243.578 206.513 242.882 204.995 242.393L203.767 246.199C204.895 246.563 205.694 247.02 206.247 247.514L208.915 244.534ZM205.013 242.399C203.647 241.943 201.827 241.457 199.583 240.939L198.683 244.837C200.876 245.343 202.555 245.796 203.749 246.193L205.013 242.399ZM199.595 240.942C196.226 240.142 193.518 239.353 191.447 238.582L190.051 242.33C192.332 243.18 195.213 244.013 198.671 244.834L199.595 240.942ZM191.447 238.582C189.589 237.89 187.985 236.782 186.618 235.23L183.616 237.874C185.406 239.906 187.557 241.401 190.051 242.33L191.447 238.582ZM186.636 235.25C185.486 233.909 184.813 232.024 184.813 229.384H180.813C180.813 232.718 181.676 235.611 183.598 237.854L186.636 235.25ZM184.813 229.384C184.813 227.166 185.406 225.21 186.584 223.461L183.266 221.227C181.628 223.659 180.813 226.397 180.813 229.384H184.813ZM186.594 223.446C187.75 221.694 189.53 220.233 192.066 219.119L190.456 215.457C187.36 216.817 184.916 218.728 183.256 221.242L186.594 223.446ZM192.055 219.123C194.598 218.023 197.788 217.432 201.693 217.432V213.432C197.406 213.432 193.642 214.078 190.467 215.453L192.055 219.123ZM201.693 217.432C204.391 217.432 207.022 217.754 209.592 218.396L210.562 214.516C207.67 213.793 204.713 213.432 201.693 213.432V217.432ZM209.592 218.396C212.152 219.036 214.341 219.944 216.185 221.096L218.305 217.704C216.053 216.296 213.463 215.241 210.562 214.516L209.592 218.396ZM215.392 218.647L212.192 226.519L215.898 228.025L219.098 220.153L215.392 218.647ZM215.031 225.532C210.638 223.041 206.162 221.752 201.629 221.752V225.752C205.373 225.752 209.175 226.81 213.059 229.012L215.031 225.532ZM201.629 221.752C198.583 221.752 195.952 222.232 194.056 223.496L196.274 226.824C197.194 226.211 198.872 225.752 201.629 225.752V221.752ZM194.032 223.512C192.174 224.789 191.117 226.619 191.117 228.872H195.117C195.117 228.053 195.425 227.408 196.298 226.808L194.032 223.512ZM191.117 228.872C191.117 230.001 191.414 231.076 192.059 232.018C192.694 232.945 193.588 233.629 194.61 234.126L196.36 230.53C195.803 230.259 195.513 229.983 195.359 229.758C195.215 229.548 195.117 229.279 195.117 228.872H191.117ZM194.668 234.154C196.479 234.964 199.091 235.723 202.414 236.457L203.276 232.551C200.028 231.834 197.734 231.143 196.302 230.502L194.668 234.154ZM202.383 236.45C205.752 237.25 208.46 238.039 210.531 238.81L211.927 235.062C209.646 234.212 206.765 233.379 203.307 232.558L202.383 236.45ZM210.531 238.81C212.396 239.505 213.976 240.594 215.294 242.096L218.3 239.456C216.546 237.459 214.414 235.988 211.927 235.062L210.531 238.81ZM215.312 242.116C216.478 243.407 217.165 245.251 217.165 247.88H221.165C221.165 244.535 220.274 241.643 218.282 239.436L215.312 242.116ZM217.165 247.88C217.165 250.036 216.562 251.991 215.335 253.795L218.643 256.045C220.317 253.582 221.165 250.844 221.165 247.88H217.165ZM215.33 253.803C214.181 255.509 212.385 256.955 209.795 258.077L211.383 261.747C214.51 260.394 216.981 258.512 218.648 256.037L215.33 253.803ZM209.795 258.077C207.252 259.177 204.062 259.768 200.157 259.768V263.768C204.444 263.768 208.208 263.122 211.383 261.747L209.795 258.077ZM265.858 257.16L266.982 258.814L268.323 257.902L267.708 256.402L265.858 257.16ZM257.794 260.552L257.308 258.612L257.302 258.613L257.794 260.552ZM236.034 260.104L235.348 261.983L235.359 261.987L235.371 261.991L236.034 260.104ZM228.865 255.368L227.297 256.609L227.304 256.617L227.31 256.625L228.865 255.368ZM228.417 242.056L230.04 243.226V243.226L228.417 242.056ZM233.857 237.96L234.582 239.824L238.629 238.25L234.803 236.198L233.857 237.96ZM229.762 234.12L228.031 235.122L228.04 235.139L228.051 235.156L229.762 234.12ZM230.594 222.024L228.989 220.829L230.594 222.024ZM237.378 217.224L236.644 215.363L237.378 217.224ZM257.026 216.328L256.604 218.283L256.619 218.286L256.633 218.289L257.026 216.328ZM264.258 218.632L266.138 219.314L266.756 217.611L265.122 216.828L264.258 218.632ZM261.378 226.568L260.531 228.38L262.512 229.306L263.258 227.25L261.378 226.568ZM241.346 225.352L242.361 227.075L242.368 227.071L242.374 227.067L241.346 225.352ZM240.514 233.032L239.294 234.617L239.328 234.643L239.363 234.668L240.514 233.032ZM257.922 234.248H259.922V232.248H257.922V234.248ZM257.922 242.44V244.44H259.922V242.44H257.922ZM239.042 243.784L237.968 242.097L239.042 243.784ZM239.617 251.912L238.625 253.648L238.65 253.662L238.674 253.676L239.617 251.912ZM255.938 252.36L256.437 254.297L256.452 254.293L256.466 254.289L255.938 252.36ZM262.658 249.352L264.508 248.594L263.561 246.283L261.513 247.712L262.658 249.352ZM264.733 255.506C262.842 256.792 260.387 257.842 257.308 258.612L258.279 262.492C261.686 261.641 264.606 260.43 266.982 258.814L264.733 255.506ZM257.302 258.613C254.278 259.379 251.031 259.768 247.553 259.768V263.768C251.33 263.768 254.909 263.346 258.285 262.491L257.302 258.613ZM247.553 259.768C243.183 259.768 239.581 259.23 236.696 258.217L235.371 261.991C238.801 263.196 242.879 263.768 247.553 263.768V259.768ZM236.719 258.225C233.801 257.161 231.755 255.76 230.421 254.111L227.31 256.625C229.219 258.986 231.951 260.743 235.348 261.983L236.719 258.225ZM230.434 254.127C229.091 252.431 228.434 250.542 228.434 248.392H224.434C224.434 251.447 225.397 254.209 227.297 256.609L230.434 254.127ZM228.434 248.392C228.434 246.397 228.977 244.7 230.04 243.226L226.795 240.886C225.213 243.081 224.434 245.608 224.434 248.392H228.434ZM230.04 243.226C231.116 241.733 232.603 240.594 234.582 239.824L233.133 236.096C230.504 237.118 228.365 238.709 226.795 240.886L230.04 243.226ZM234.803 236.198C233.354 235.42 232.259 234.384 231.473 233.084L228.051 235.156C229.226 237.098 230.863 238.623 232.912 239.722L234.803 236.198ZM231.492 233.118C230.742 231.823 230.354 230.359 230.354 228.68H226.354C226.354 231.012 226.903 233.175 228.031 235.122L231.492 233.118ZM230.354 228.68C230.354 226.691 230.954 224.889 232.198 223.219L228.989 220.829C227.247 223.17 226.354 225.805 226.354 228.68H230.354ZM232.198 223.219C233.411 221.59 235.326 220.183 238.111 219.085L236.644 215.363C233.371 216.654 230.763 218.448 228.989 220.829L232.198 223.219ZM238.111 219.085C240.841 218.008 244.288 217.432 248.514 217.432V213.432C243.95 213.432 239.973 214.051 236.644 215.363L238.111 219.085ZM248.514 217.432C251.276 217.432 253.973 217.716 256.604 218.283L257.447 214.373C254.532 213.745 251.553 213.432 248.514 213.432V217.432ZM256.633 218.289C259.281 218.819 261.527 219.541 263.393 220.436L265.122 216.828C262.892 215.76 260.316 214.947 257.418 214.367L256.633 218.289ZM262.377 217.95L259.497 225.886L263.258 227.25L266.138 219.314L262.377 217.95ZM262.224 224.756C258.03 222.796 253.581 221.816 248.898 221.816V225.816C253.004 225.816 256.874 226.671 260.531 228.38L262.224 224.756ZM248.898 221.816C245.423 221.816 242.478 222.34 240.317 223.637L242.374 227.067C243.626 226.316 245.716 225.816 248.898 225.816V221.816ZM240.33 223.629C238.152 224.913 236.85 226.864 236.85 229.384H240.85C240.85 228.49 241.211 227.753 242.361 227.075L240.33 223.629ZM236.85 229.384C236.85 231.493 237.625 233.333 239.294 234.617L241.733 231.447C241.183 231.024 240.85 230.432 240.85 229.384H236.85ZM239.363 234.668C241.005 235.823 243.22 236.248 245.697 236.248V232.248C243.567 232.248 242.326 231.862 241.664 231.396L239.363 234.668ZM245.697 236.248H257.922V232.248H245.697V236.248ZM255.922 234.248V242.44H259.922V234.248H255.922ZM257.922 240.44H245.057V244.44H257.922V240.44ZM245.057 240.44C242.27 240.44 239.829 240.912 237.968 242.097L240.115 245.471C241.07 244.864 242.639 244.44 245.057 244.44V240.44ZM237.968 242.097C235.967 243.37 234.93 245.316 234.93 247.688H238.93C238.93 246.646 239.3 245.99 240.115 245.471L237.968 242.097ZM234.93 247.688C234.93 250.319 236.323 252.333 238.625 253.648L240.61 250.176C239.328 249.443 238.93 248.641 238.93 247.688H234.93ZM238.674 253.676C240.948 254.892 244.143 255.384 248.001 255.384V251.384C244.351 251.384 241.956 250.895 240.561 250.148L238.674 253.676ZM248.001 255.384C250.821 255.384 253.634 255.02 256.437 254.297L255.438 250.423C252.95 251.065 250.473 251.384 248.001 251.384V255.384ZM256.466 254.289C259.284 253.516 261.743 252.429 263.802 250.992L261.513 247.712C259.903 248.835 257.882 249.753 255.409 250.431L256.466 254.289ZM260.807 250.11L264.007 257.918L267.708 256.402L264.508 248.594L260.807 250.11ZM30.7623 325L29.1179 326.138L29.7143 327H30.7623V325ZM22.1223 312.52L23.7666 311.382L23.1702 310.52H22.1223V312.52ZM12.5863 312.52V310.52H10.5863V312.52H12.5863ZM12.5863 325V327H14.5863V325H12.5863ZM2.21825 325H0.21825V327H2.21825V325ZM2.21825 280.2V278.2H0.21825V280.2H2.21825ZM31.9143 282.184L31.0846 284.004L31.0946 284.008L31.9143 282.184ZM38.6343 305.096L36.9701 303.987L36.9656 303.993L38.6343 305.096ZM31.8503 310.6L31.0528 308.766L28.8116 309.74L30.2101 311.744L31.8503 310.6ZM41.8983 325V327H45.7326L43.5384 323.856L41.8983 325ZM28.1383 290.696L26.85 292.226L26.8619 292.236L26.874 292.246L28.1383 290.696ZM12.5863 288.648V286.648H10.5863V288.648H12.5863ZM12.5863 304.264H10.5863V306.264H12.5863V304.264ZM28.1383 302.216L29.4265 303.746L28.1383 302.216ZM32.4066 323.862L23.7666 311.382L20.4779 313.658L29.1179 326.138L32.4066 323.862ZM22.1223 310.52H21.6103V314.52H22.1223V310.52ZM21.6103 310.52H12.5863V314.52H21.6103V310.52ZM10.5863 312.52V325H14.5863V312.52H10.5863ZM12.5863 323H2.21825V327H12.5863V323ZM4.21825 325V280.2H0.21825V325H4.21825ZM2.21825 282.2H21.6103V278.2H2.21825V282.2ZM21.6103 282.2C25.36 282.2 28.4993 282.825 31.0846 284.004L32.7439 280.364C29.5266 278.897 25.7965 278.2 21.6103 278.2V282.2ZM31.0946 284.008C33.729 285.192 35.6746 286.831 37.0207 288.905L40.3758 286.727C38.5646 283.937 35.9876 281.821 32.7339 280.36L31.0946 284.008ZM37.0207 288.905C38.3591 290.967 39.0663 293.456 39.0663 296.456H43.0663C43.0663 292.8 42.1947 289.529 40.3758 286.727L37.0207 288.905ZM39.0663 296.456C39.0663 299.446 38.3431 301.927 36.9701 303.987L40.2984 306.205C42.168 303.401 43.0663 300.122 43.0663 296.456H39.0663ZM36.9656 303.993C35.6256 306.022 33.6861 307.621 31.0528 308.766L32.6477 312.434C35.9024 311.019 38.4856 308.949 40.3029 306.199L36.9656 303.993ZM30.2101 311.744L40.2581 326.144L43.5384 323.856L33.4904 309.456L30.2101 311.744ZM41.8983 323H30.7623V327H41.8983V323ZM32.5703 296.456C32.5703 293.473 31.5848 290.927 29.4025 289.146L26.874 292.246C27.9343 293.111 28.5703 294.405 28.5703 296.456H32.5703ZM29.4265 289.166C27.3086 287.383 24.4052 286.648 21.0343 286.648V290.648C23.8926 290.648 25.7253 291.279 26.85 292.226L29.4265 289.166ZM21.0343 286.648H12.5863V290.648H21.0343V286.648ZM10.5863 288.648V304.264H14.5863V288.648H10.5863ZM12.5863 306.264H21.0343V302.264H12.5863V306.264ZM21.0343 306.264C24.4052 306.264 27.3086 305.529 29.4265 303.746L26.85 300.686C25.7253 301.633 23.8926 302.264 21.0343 302.264V306.264ZM29.4265 303.746C31.5768 301.935 32.5703 299.411 32.5703 296.456H28.5703C28.5703 298.45 27.9423 299.766 26.85 300.686L29.4265 303.746ZM83.2568 281.864L82.3232 283.633L83.2568 281.864ZM90.4248 289.032L88.6653 289.983L90.4248 289.032ZM92.9848 325V327H94.9848V325H92.9848ZM82.6168 325H80.6168V327H82.6168V325ZM82.6168 314.248H84.6168V312.248H82.6168V314.248ZM62.1367 314.248V312.248H60.1367V314.248H62.1367ZM62.1367 325V327H64.1367V325H62.1367ZM51.8968 325H49.8968V327H51.8968V325ZM82.6168 305.928V307.928H84.6168V305.928H82.6168ZM79.8647 291.144L78.4188 292.526L78.4265 292.534L78.4344 292.542L79.8647 291.144ZM64.8248 291.144L63.3788 289.762L63.378 289.763L64.8248 291.144ZM62.1367 305.928H60.1367V307.928H62.1367V305.928ZM72.4408 281.432C76.3161 281.432 79.5892 282.19 82.3232 283.633L84.1903 280.095C80.7803 278.296 76.8427 277.432 72.4408 277.432V281.432ZM82.3232 283.633C85.0329 285.063 87.1403 287.162 88.6653 289.983L92.1842 288.081C90.2959 284.588 87.6246 281.908 84.1903 280.095L82.3232 283.633ZM88.6653 289.983C90.1796 292.784 90.9848 296.259 90.9848 300.488H94.9848C94.9848 295.757 94.0832 291.594 92.1842 288.081L88.6653 289.983ZM90.9848 300.488V325H94.9848V300.488H90.9848ZM92.9848 323H82.6168V327H92.9848V323ZM84.6168 325V314.248H80.6168V325H84.6168ZM82.6168 312.248H62.1367V316.248H82.6168V312.248ZM60.1367 314.248V325H64.1367V314.248H60.1367ZM62.1367 323H51.8968V327H62.1367V323ZM53.8968 325V300.488H49.8968V325H53.8968ZM53.8968 300.488C53.8968 296.259 54.7019 292.784 56.2162 289.983L52.6973 288.081C50.7983 291.594 49.8968 295.757 49.8968 300.488H53.8968ZM56.2162 289.983C57.7412 287.162 59.8486 285.063 62.5583 283.633L60.6912 280.095C57.2569 281.908 54.5857 284.588 52.6973 288.081L56.2162 289.983ZM62.5583 283.633C65.2923 282.19 68.5654 281.432 72.4408 281.432V277.432C68.0388 277.432 64.1012 278.296 60.6912 280.095L62.5583 283.633ZM84.6168 305.928V299.528H80.6168V305.928H84.6168ZM84.6168 299.528C84.6168 295.512 83.6233 292.128 81.2951 289.746L78.4344 292.542C79.7756 293.914 80.6168 296.12 80.6168 299.528H84.6168ZM81.3107 289.762C79.028 287.373 75.9687 286.264 72.3768 286.264V290.264C75.0995 290.264 77.0322 291.075 78.4188 292.526L81.3107 289.762ZM72.3768 286.264C68.7511 286.264 65.6667 287.368 63.3788 289.762L66.2707 292.526C67.6522 291.08 69.6024 290.264 72.3768 290.264V286.264ZM63.378 289.763C61.103 292.146 60.1367 295.523 60.1367 299.528H64.1367C64.1367 296.109 64.9625 293.896 66.2715 292.525L63.378 289.763ZM60.1367 299.528V305.928H64.1367V299.528H60.1367ZM62.1367 307.928H82.6168V303.928H62.1367V307.928ZM115.242 322.824L114.283 324.579L114.295 324.586L114.307 324.592L115.242 322.824ZM106.538 314.568L104.816 315.585L104.823 315.597L104.831 315.609L106.538 314.568ZM106.538 290.696L104.825 289.664L104.821 289.67L106.538 290.696ZM115.242 282.44L116.186 284.204L116.193 284.2L115.242 282.44ZM138.218 281.48L137.415 283.312L137.424 283.316L138.218 281.48ZM146.154 287.368L147.511 288.838L148.908 287.548L147.691 286.088L146.154 287.368ZM139.498 293.512L137.986 294.821L139.338 296.382L140.855 294.982L139.498 293.512ZM120.81 290.12L121.773 291.873L121.786 291.866L121.799 291.859L120.81 290.12ZM115.69 295.176L113.952 294.187L113.944 294.2L113.937 294.213L115.69 295.176ZM115.69 310.024L113.937 310.987L113.944 311L113.952 311.013L115.69 310.024ZM120.81 315.144L119.822 316.883L119.835 316.89L119.848 316.897L120.81 315.144ZM139.498 311.624L140.855 310.154L139.329 308.746L137.978 310.324L139.498 311.624ZM146.154 317.768L147.701 319.036L148.896 317.577L147.511 316.298L146.154 317.768ZM138.218 323.72L137.424 321.884L138.218 323.72ZM127.658 323.768C123.39 323.768 119.576 322.853 116.177 321.056L114.307 324.592C118.332 326.72 122.796 327.768 127.658 327.768V323.768ZM116.201 321.069C112.833 319.228 110.193 316.72 108.246 313.527L104.831 315.609C107.15 319.414 110.313 322.409 114.283 324.579L116.201 321.069ZM108.261 313.551C106.366 310.342 105.402 306.709 105.402 302.6H101.402C101.402 307.366 102.529 311.711 104.816 315.585L108.261 313.551ZM105.402 302.6C105.402 298.491 106.366 294.883 108.255 291.722L104.821 289.67C102.529 293.506 101.402 297.835 101.402 302.6H105.402ZM108.251 291.728C110.197 288.498 112.832 285.997 116.186 284.204L114.299 280.676C110.314 282.808 107.146 285.812 104.825 289.664L108.251 291.728ZM116.193 284.2C119.586 282.366 123.415 281.432 127.722 281.432V277.432C122.814 277.432 118.322 278.503 114.292 280.68L116.193 284.2ZM127.722 281.432C131.368 281.432 134.587 282.072 137.415 283.312L139.021 279.648C135.62 278.157 131.842 277.432 127.722 277.432V281.432ZM137.424 283.316C140.304 284.561 142.692 286.337 144.618 288.648L147.691 286.088C145.35 283.279 142.447 281.13 139.012 279.644L137.424 283.316ZM144.798 285.898L138.142 292.042L140.855 294.982L147.511 288.838L144.798 285.898ZM141.01 292.203C137.615 288.282 133.316 286.264 128.234 286.264V290.264C132.112 290.264 135.322 291.745 137.986 294.821L141.01 292.203ZM128.234 286.264C125.153 286.264 122.331 286.955 119.822 288.381L121.799 291.859C123.642 290.811 125.769 290.264 128.234 290.264V286.264ZM119.848 288.367C117.344 289.741 115.37 291.692 113.952 294.187L117.429 296.165C118.485 294.308 119.924 292.888 121.773 291.873L119.848 288.367ZM113.937 294.213C112.562 296.718 111.898 299.53 111.898 302.6H115.898C115.898 300.123 116.429 297.986 117.443 296.139L113.937 294.213ZM111.898 302.6C111.898 305.67 112.562 308.482 113.937 310.987L117.443 309.061C116.429 307.214 115.898 305.077 115.898 302.6H111.898ZM113.952 311.013C115.367 313.502 117.333 315.467 119.822 316.883L121.799 313.405C119.936 312.346 118.488 310.898 117.429 309.035L113.952 311.013ZM119.848 316.897C122.352 318.272 125.165 318.936 128.234 318.936V314.936C125.757 314.936 123.62 314.405 121.773 313.391L119.848 316.897ZM128.234 318.936C133.325 318.936 137.626 316.889 141.018 312.924L137.978 310.324C135.312 313.442 132.103 314.936 128.234 314.936V318.936ZM138.142 313.094L144.798 319.238L147.511 316.298L140.855 310.154L138.142 313.094ZM144.607 316.5C142.681 318.851 140.296 320.643 137.424 321.884L139.012 325.556C142.455 324.067 145.361 321.891 147.701 319.036L144.607 316.5ZM137.424 321.884C134.548 323.128 131.303 323.768 127.658 323.768V327.768C131.779 327.768 135.574 327.043 139.012 325.556L137.424 321.884ZM171.516 288.52V286.52H169.516V288.52H171.516ZM171.516 316.68H169.516V318.68H171.516V316.68ZM179.26 316.68H181.26V314.68H179.26V316.68ZM179.26 325V327H181.26V325H179.26ZM153.34 325H151.34V327H153.34V325ZM153.34 316.68V314.68H151.34V316.68H153.34ZM161.148 316.68V318.68H163.148V316.68H161.148ZM161.148 288.52H163.148V286.52H161.148V288.52ZM153.34 288.52H151.34V290.52H153.34V288.52ZM153.34 280.2V278.2H151.34V280.2H153.34ZM179.26 280.2H181.26V278.2H179.26V280.2ZM179.26 288.52V290.52H181.26V288.52H179.26ZM169.516 288.52V316.68H173.516V288.52H169.516ZM171.516 318.68H179.26V314.68H171.516V318.68ZM177.26 316.68V325H181.26V316.68H177.26ZM179.26 323H153.34V327H179.26V323ZM155.34 325V316.68H151.34V325H155.34ZM153.34 318.68H161.148V314.68H153.34V318.68ZM163.148 316.68V288.52H159.148V316.68H163.148ZM161.148 286.52H153.34V290.52H161.148V286.52ZM155.34 288.52V280.2H151.34V288.52H155.34ZM153.34 282.2H179.26V278.2H153.34V282.2ZM177.26 280.2V288.52H181.26V280.2H177.26ZM179.26 286.52H171.516V290.52H179.26V286.52ZM226.317 284.488L224.82 285.814L224.829 285.824L226.317 284.488ZM230.797 325V327H232.797V325H230.797ZM220.429 325H218.429V327H220.429V325ZM217.869 291.016L216.388 292.36L216.404 292.378L216.421 292.395L217.869 291.016ZM203.277 291.208L201.848 289.809L201.847 289.81L203.277 291.208ZM200.461 325V327H202.461V325H200.461ZM190.093 325H188.093V327H190.093V325ZM190.093 280.2V278.2H188.093V280.2H190.093ZM200.141 280.2H202.141V278.2H200.141V280.2ZM200.141 285.64H198.141V291.64L201.741 286.84L200.141 285.64ZM205.901 281.032L206.714 282.86L206.728 282.853L206.742 282.847L205.901 281.032ZM213.837 281.432C218.714 281.432 222.284 282.952 224.82 285.814L227.814 283.162C224.377 279.283 219.627 277.432 213.837 277.432V281.432ZM224.829 285.824C227.378 288.665 228.797 292.877 228.797 298.76H232.797C232.797 292.27 231.23 286.967 227.806 283.152L224.829 285.824ZM228.797 298.76V325H232.797V298.76H228.797ZM230.797 323H220.429V327H230.797V323ZM222.429 325V299.08H218.429V325H222.429ZM222.429 299.08C222.429 295.211 221.51 291.939 219.318 289.637L216.421 292.395C217.642 293.677 218.429 295.781 218.429 299.08H222.429ZM219.351 289.672C217.23 287.335 214.318 286.264 210.893 286.264V290.264C213.442 290.264 215.18 291.028 216.388 292.36L219.351 289.672ZM210.893 286.264C207.286 286.264 204.201 287.404 201.848 289.809L204.707 292.607C206.193 291.087 208.186 290.264 210.893 290.264V286.264ZM201.847 289.81C199.476 292.235 198.461 295.682 198.461 299.784H202.461C202.461 296.291 203.324 294.021 204.707 292.606L201.847 289.81ZM198.461 299.784V325H202.461V299.784H198.461ZM200.461 323H190.093V327H200.461V323ZM192.093 325V280.2H188.093V325H192.093ZM190.093 282.2H200.141V278.2H190.093V282.2ZM198.141 280.2V285.64H202.141V280.2H198.141ZM201.741 286.84C203.076 285.061 204.726 283.743 206.714 282.86L205.089 279.204C202.468 280.369 200.279 282.123 198.541 284.44L201.741 286.84ZM206.742 282.847C208.74 281.922 211.09 281.432 213.837 281.432V277.432C210.611 277.432 207.671 278.009 205.061 279.217L206.742 282.847ZM274.303 301.896V299.896H272.303V301.896H274.303ZM283.775 301.896H285.775V299.896H283.775V301.896ZM283.775 325V327H285.775V325H283.775ZM275.967 325H273.967V327H275.967V325ZM275.967 322.312H277.967V318.345L274.777 320.704L275.967 322.312ZM252.543 323.08L251.622 324.856L252.543 323.08ZM244.287 315.272L242.566 316.292L242.572 316.301L244.287 315.272ZM244.351 290.824L242.632 289.801L242.628 289.807L244.351 290.824ZM276.543 281.416L277.307 279.568L276.543 281.416ZM284.607 287.176L285.963 288.646L287.386 287.333L286.12 285.868L284.607 287.176ZM277.951 293.32L276.5 294.697L277.858 296.127L279.307 294.79L277.951 293.32ZM258.751 290.12L259.699 291.881L259.712 291.874L259.725 291.867L258.751 290.12ZM253.567 295.24L251.82 294.266L253.567 295.24ZM253.503 310.664L251.758 311.641L251.765 311.654L251.773 311.667L253.503 310.664ZM258.431 315.528L257.478 317.287L257.492 317.294L257.507 317.302L258.431 315.528ZM274.303 314.056L275.578 315.597L276.303 314.997V314.056H274.303ZM274.303 303.896H283.775V299.896H274.303V303.896ZM281.775 301.896V325H285.775V301.896H281.775ZM283.775 323H275.967V327H283.775V323ZM277.967 325V322.312H273.967V325H277.967ZM274.777 320.704C272.089 322.693 268.528 323.768 263.935 323.768V327.768C269.154 327.768 273.615 326.539 277.156 323.92L274.777 320.704ZM263.935 323.768C260.096 323.768 256.617 322.94 253.463 321.304L251.622 324.856C255.38 326.804 259.496 327.768 263.935 327.768V323.768ZM253.463 321.304C250.344 319.687 247.864 317.346 246.002 314.243L242.572 316.301C244.806 320.024 247.83 322.889 251.622 324.856L253.463 321.304ZM246.007 314.252C244.173 311.156 243.215 307.426 243.215 302.984H239.215C239.215 308.014 240.305 312.476 242.566 316.292L246.007 314.252ZM243.215 302.984C243.215 298.736 244.184 295.041 246.073 291.841L242.628 289.807C240.336 293.69 239.215 298.101 239.215 302.984H243.215ZM246.069 291.847C248.012 288.583 250.685 286.041 254.125 284.204L252.241 280.676C248.171 282.849 244.956 285.897 242.632 289.801L246.069 291.847ZM254.125 284.204C257.561 282.369 261.456 281.432 265.855 281.432V277.432C260.867 277.432 256.314 278.5 252.241 280.676L254.125 284.204ZM265.855 281.432C269.553 281.432 272.851 282.054 275.779 283.264L277.307 279.568C273.834 278.132 270.007 277.432 265.855 277.432V281.432ZM275.779 283.264C278.702 284.473 281.13 286.212 283.094 288.484L286.12 285.868C283.731 283.105 280.783 281.005 277.307 279.568L275.779 283.264ZM283.25 285.706L276.594 291.85L279.307 294.79L285.963 288.646L283.25 285.706ZM279.401 291.943C275.835 288.187 271.455 286.264 266.367 286.264V290.264C270.324 290.264 273.666 291.712 276.5 294.697L279.401 291.943ZM266.367 286.264C263.211 286.264 260.329 286.95 257.777 288.373L259.725 291.867C261.61 290.815 263.806 290.264 266.367 290.264V286.264ZM257.803 288.359C255.245 289.736 253.241 291.717 251.82 294.266L255.313 296.214C256.367 294.326 257.819 292.893 259.699 291.881L257.803 288.359ZM251.82 294.266C250.394 296.822 249.711 299.727 249.711 302.92H253.711C253.711 300.311 254.265 298.095 255.313 296.214L251.82 294.266ZM249.711 302.92C249.711 306.211 250.36 309.146 251.758 311.641L255.248 309.687C254.256 307.915 253.711 305.688 253.711 302.92H249.711ZM251.773 311.667C253.183 314.1 255.087 315.991 257.478 317.287L259.383 313.769C257.678 312.846 256.297 311.495 255.233 309.661L251.773 311.667ZM257.507 317.302C259.855 318.525 262.415 319.128 265.151 319.128V315.128C263.023 315.128 261.102 314.664 259.355 313.754L257.507 317.302ZM265.151 319.128C269.179 319.128 272.698 317.98 275.578 315.597L273.028 312.515C270.958 314.228 268.376 315.128 265.151 315.128V319.128ZM276.303 314.056V301.896H272.303V314.056H276.303Z" fill="#8F211D" mask="url(#path-63-outside-1_2239_21786)"/>
<path d="M79.3916 356.32C78.2716 356.32 77.2316 356.147 76.2716 355.8C75.325 355.44 74.4983 354.933 73.7916 354.28C73.0983 353.627 72.5583 352.853 72.1716 351.96C71.785 351.067 71.5916 350.08 71.5916 349C71.5916 347.92 71.785 346.933 72.1716 346.04C72.5583 345.147 73.0983 344.373 73.7916 343.72C74.4983 343.067 75.325 342.567 76.2716 342.22C77.2316 341.86 78.2716 341.68 79.3916 341.68C80.765 341.68 81.9783 341.92 83.0316 342.4C84.0983 342.88 84.9783 343.573 85.6716 344.48L82.6916 347.14C82.2783 346.62 81.8183 346.22 81.3116 345.94C80.8183 345.647 80.2583 345.5 79.6316 345.5C79.1383 345.5 78.6916 345.58 78.2916 345.74C77.8916 345.9 77.545 346.133 77.2516 346.44C76.9716 346.747 76.7516 347.12 76.5916 347.56C76.4316 347.987 76.3516 348.467 76.3516 349C76.3516 349.533 76.4316 350.02 76.5916 350.46C76.7516 350.887 76.9716 351.253 77.2516 351.56C77.545 351.867 77.8916 352.1 78.2916 352.26C78.6916 352.42 79.1383 352.5 79.6316 352.5C80.2583 352.5 80.8183 352.36 81.3116 352.08C81.8183 351.787 82.2783 351.38 82.6916 350.86L85.6716 353.52C84.9783 354.413 84.0983 355.107 83.0316 355.6C81.9783 356.08 80.765 356.32 79.3916 356.32ZM86.7945 356V342H93.5345C94.8411 342 95.9678 342.213 96.9145 342.64C97.8745 343.067 98.6145 343.68 99.1345 344.48C99.6545 345.267 99.9145 346.2 99.9145 347.28C99.9145 348.36 99.6545 349.293 99.1345 350.08C98.6145 350.853 97.8745 351.447 96.9145 351.86C95.9678 352.273 94.8411 352.48 93.5345 352.48H89.4145L91.5145 350.54V356H86.7945ZM95.1745 356L91.7345 350.9H96.7345L100.214 356H95.1745ZM91.5145 351.06L89.4145 348.92H93.2345C93.8878 348.92 94.3678 348.773 94.6745 348.48C94.9945 348.187 95.1545 347.787 95.1545 347.28C95.1545 346.773 94.9945 346.373 94.6745 346.08C94.3678 345.787 93.8878 345.64 93.2345 345.64H89.4145L91.5145 343.5V351.06ZM99.9368 356L106.057 342H110.697L116.817 356H111.937L107.417 344.24H109.257L104.737 356H99.9368ZM103.577 353.56L104.777 350.16H111.217L112.417 353.56H103.577ZM122.55 356.32C121.377 356.32 120.243 356.187 119.15 355.92C118.057 355.653 117.157 355.307 116.45 354.88L117.97 351.44C118.637 351.827 119.377 352.14 120.19 352.38C121.017 352.607 121.817 352.72 122.59 352.72C123.043 352.72 123.397 352.693 123.65 352.64C123.917 352.573 124.11 352.487 124.23 352.38C124.35 352.26 124.41 352.12 124.41 351.96C124.41 351.707 124.27 351.507 123.99 351.36C123.71 351.213 123.337 351.093 122.87 351C122.417 350.893 121.917 350.787 121.37 350.68C120.823 350.56 120.27 350.407 119.71 350.22C119.163 350.033 118.657 349.787 118.19 349.48C117.737 349.173 117.37 348.773 117.09 348.28C116.81 347.773 116.67 347.147 116.67 346.4C116.67 345.533 116.91 344.747 117.39 344.04C117.883 343.32 118.61 342.747 119.57 342.32C120.543 341.893 121.75 341.68 123.19 341.68C124.137 341.68 125.07 341.78 125.99 341.98C126.91 342.18 127.737 342.487 128.47 342.9L127.05 346.32C126.357 345.973 125.683 345.713 125.03 345.54C124.39 345.367 123.763 345.28 123.15 345.28C122.697 345.28 122.337 345.32 122.07 345.4C121.803 345.48 121.61 345.587 121.49 345.72C121.383 345.853 121.33 346 121.33 346.16C121.33 346.4 121.47 346.593 121.75 346.74C122.03 346.873 122.397 346.987 122.85 347.08C123.317 347.173 123.823 347.273 124.37 347.38C124.93 347.487 125.483 347.633 126.03 347.82C126.577 348.007 127.077 348.253 127.53 348.56C127.997 348.867 128.37 349.267 128.65 349.76C128.93 350.253 129.07 350.867 129.07 351.6C129.07 352.453 128.823 353.24 128.33 353.96C127.85 354.667 127.13 355.24 126.17 355.68C125.21 356.107 124.003 356.32 122.55 356.32ZM139.315 342H144.035V356H139.315V342ZM134.955 356H130.235V342H134.955V356ZM139.635 350.84H134.635V346.96H139.635V350.84ZM159.085 356.32C157.952 356.32 156.905 356.147 155.945 355.8C154.998 355.44 154.172 354.933 153.465 354.28C152.772 353.627 152.232 352.853 151.845 351.96C151.458 351.067 151.265 350.08 151.265 349C151.265 347.92 151.458 346.933 151.845 346.04C152.232 345.147 152.778 344.373 153.485 343.72C154.192 343.067 155.025 342.567 155.985 342.22C156.958 341.86 158.025 341.68 159.185 341.68C160.572 341.68 161.805 341.913 162.885 342.38C163.978 342.847 164.878 343.513 165.585 344.38L162.565 347.04C162.125 346.533 161.645 346.153 161.125 345.9C160.618 345.633 160.052 345.5 159.425 345.5C158.905 345.5 158.432 345.58 158.005 345.74C157.592 345.9 157.238 346.133 156.945 346.44C156.652 346.747 156.425 347.113 156.265 347.54C156.105 347.967 156.025 348.453 156.025 349C156.025 349.52 156.105 350 156.265 350.44C156.425 350.867 156.652 351.233 156.945 351.54C157.238 351.847 157.585 352.087 157.985 352.26C158.398 352.42 158.858 352.5 159.365 352.5C159.898 352.5 160.418 352.413 160.925 352.24C161.432 352.053 161.972 351.74 162.545 351.3L165.185 354.54C164.332 355.113 163.358 355.553 162.265 355.86C161.172 356.167 160.112 356.32 159.085 356.32ZM161.085 353.94V348.62H165.185V354.54L161.085 353.94ZM165.436 356L171.556 342H176.196L182.316 356H177.436L172.916 344.24H174.756L170.236 356H165.436ZM169.076 353.56L170.276 350.16H176.716L177.916 353.56H169.076ZM182.829 356V342H186.709L192.309 351.14H190.269L195.709 342H199.589L199.629 356H195.329L195.289 348.48H195.969L192.249 354.74H190.169L186.289 348.48H187.129V356H182.829ZM205.991 347.2H212.231V350.6H205.991V347.2ZM206.311 352.44H213.311V356H201.671V342H213.051V345.56H206.311V352.44Z" fill="#8F211D"/>
<ellipse cx="223.5" cy="104.5" rx="1.5" ry="0.5" fill="#1F2326"/>
<defs>
<filter id="filter0_d_2239_21786" x="17" y="4" width="250" height="280" filterUnits="userSpaceOnUse" color-interpolation-filters="sRGB">
<feFlood flood-opacity="0" result="BackgroundImageFix"/>
<feColorMatrix in="SourceAlpha" type="matrix" values="0 0 0 0 0 0 0 0 0 0 0 0 0 0 0 0 0 0 127 0" result="hardAlpha"/>
<feOffset dy="4"/>
<feGaussianBlur stdDeviation="2"/>
<feComposite in2="hardAlpha" operator="out"/>
<feColorMatrix type="matrix" values="0 0 0 0 0 0 0 0 0 0 0 0 0 0 0 0 0 0 0.25 0"/>
<feBlend mode="normal" in2="BackgroundImageFix" result="effect1_dropShadow_2239_21786"/>
<feBlend mode="normal" in="SourceGraphic" in2="effect1_dropShadow_2239_21786" result="shape"/>
</filter>
<clipPath id="clip0_2239_21786">
<rect width="242" height="282" fill="white" transform="translate(21)"/>
</clipPath>
<clipPath id="clip1_2239_21786">
<rect width="197" height="127" fill="white" transform="translate(44 71)"/>
</clipPath>
</defs>
</svg>
