<svg width="72" height="71" viewBox="0 0 72 71" fill="none" xmlns="http://www.w3.org/2000/svg">
<g clip-path="url(#clip0_2239_21999)">
<path d="M15.2257 14.5074C15.2257 14.5074 16.5701 13.6865 17.4454 13.3234C19.6495 12.392 22.3381 11.6659 22.3381 11.6659L21.8379 5.06738C21.8379 5.06738 19.8058 7.57734 15.9448 7.6247C15.0694 9.67687 14.366 12.3289 15.2101 14.5074H15.2257Z" fill="#FFA47C"/>
<path d="M36.1417 19.6533C36.6576 20.0006 36.3918 27.2779 30.5144 28.746C24.6526 30.2299 18.4156 29.3143 15.9615 31.6506C13.4917 33.9869 12.0223 36.0864 8.89601 35.8181C6.80139 35.6287 5.33203 34.6815 5.33203 34.6815C5.33203 34.6815 8.95854 35.1077 10.0527 34.3342C11.3814 33.3871 12.2412 31.7769 13.5855 29.8037C14.1951 28.9196 15.7895 28.1777 15.7895 28.1777C15.7895 28.1777 13.3979 27.7673 11.9129 28.5566C10.4279 29.3459 8.80222 29.9457 7.69239 29.7563C6.44187 29.5511 5.36329 27.8304 5.36329 27.8304C5.36329 27.8304 7.08276 28.746 8.23949 28.0672C9.39623 27.3884 11.7566 25.21 14.4296 25.3205C17.1026 25.431 15.6645 23.3472 13.3197 23.0473C12.3193 22.921 10.6936 24.4207 10.6936 24.4207C10.6936 24.4207 11.3033 21.4687 14.4452 21.9107C23.1051 23.142 24.1367 20.5215 24.1367 20.5215L36.2043 19.6533H36.1417Z" fill="#330E01"/>
<path d="M48.0217 17.4751C48.4437 17.9171 46.6617 24.9734 40.628 25.1629C34.5786 25.3523 28.6855 23.1265 25.7937 24.8945C22.8862 26.6468 21.0104 28.3832 18.0092 27.4518C16.0083 26.8204 14.7578 25.5733 14.7578 25.5733C14.7578 25.5733 18.2124 26.773 19.4316 26.2521C20.9323 25.6207 22.1046 24.2157 23.8397 22.574C24.6213 21.8321 26.3251 21.4532 26.3251 21.4532C26.3251 21.4532 24.0742 20.5376 22.4485 20.9954C20.8228 21.4532 19.119 21.69 18.0717 21.2638C16.8993 20.7902 16.1959 18.8801 16.1959 18.8801C16.1959 18.8801 17.6965 20.143 18.9627 19.7167C20.2288 19.2905 22.9956 17.6804 25.5748 18.3592C28.1697 19.0379 27.2005 16.6858 24.9652 15.8966C24.0273 15.5651 22.1046 16.6701 22.1046 16.6701C22.1046 16.6701 23.3083 13.9075 26.2939 15.0283C34.5004 18.0908 36.0479 15.7387 36.0479 15.7387L48.0217 17.4751Z" fill="#A8A8A8"/>
<path d="M60.1666 18.2643C60.4792 18.801 57.1185 25.2417 51.1941 24.0104C45.2698 22.7791 40.0488 19.2273 36.8288 20.2533C33.6087 21.2794 31.3734 22.5265 28.6691 20.9164C26.8715 19.8429 25.9492 18.3275 25.9492 18.3275C25.9492 18.3275 29.0443 20.3007 30.3417 20.0797C31.9361 19.8113 33.4211 18.7221 35.4688 17.5382C36.3911 17.0015 38.1418 17.033 38.1418 17.033C38.1418 17.033 36.1722 15.6123 34.484 15.6754C32.7958 15.7386 31.092 15.5649 30.1541 14.9019C29.1224 14.16 28.8723 12.1394 28.8723 12.1394C28.8723 12.1394 30.029 13.718 31.3734 13.6075C32.7177 13.497 35.7658 12.5814 38.1262 13.8443C40.4865 15.1229 40.0957 12.613 38.0949 11.3027C37.2508 10.7502 35.1405 11.3817 35.1405 11.3817C35.1405 11.3817 36.9538 8.98222 39.5955 10.766C46.8642 15.6754 46.5203 14.1916 48.9275 13.7496C56.6964 12.2815 60.1666 18.2485 60.1666 18.2485V18.2643Z" fill="#A8A8A8"/>
<path d="M28.7321 38.4231C30.9517 38.6915 33.9999 39.8754 36.4071 45.2584C38.8144 50.6572 35.6881 54.0827 35.3442 56.2769C34.9847 58.5659 45.5516 68.5268 46.2081 70.6737C46.8646 72.8206 46.8177 75.1253 45.958 76.1356C45.0983 77.1459 43.0974 78.3456 41.8625 81.3765C40.6277 84.4074 39.8461 86.207 38.7675 86.4438C37.6889 86.6806 35.5161 87.7382 34.8596 88.196C34.1875 88.6538 33.3277 89.5063 33.3277 89.5063C33.3277 89.5063 32.171 84.0128 32.8119 84.2654C33.4528 84.5337 34.375 85.1651 34.7502 84.0286C35.1254 82.892 36.8292 81.8817 37.3294 81.2818C37.8296 80.682 41.8782 75.8515 41.4561 73.7519C41.0497 71.6524 33.0464 65.9063 29.9826 63.1912C26.9188 60.476 21.9167 57.8713 20.8694 55.2035C19.6345 52.0148 18.6497 47.7052 19.5407 44.99C20.4474 42.2748 23.7456 37.8074 28.7164 38.4073L28.7321 38.4231Z" fill="#CDCBCB"/>
<path d="M-41.7037 38.4075C-40.0468 33.6243 -34.0599 29.0306 -24.1026 29.962C-14.1453 30.8934 -12.207 32.4878 2.3459 32.7403C10.443 32.8824 13.7882 30.3724 18.6652 27.1995C24.0737 23.695 33.6871 19.5433 39.9866 17.8542C45.9422 16.2441 53.7579 15.8494 57.4939 18.3436C61.2298 20.8378 53.9768 32.4088 47.4897 33.8453C44.254 34.5557 35.8286 42.0066 36.0787 43.3485C36.3288 44.6903 38.5485 48.6209 36.9384 52.8674C35.3284 57.1138 24.9022 66.2538 12.7409 65.7013C0.579536 65.1488 -12.676 57.5873 -17.6468 56.9717C-22.6176 56.356 -35.3573 59.8131 -39.3277 55.6772C-43.2981 51.5413 -43.4544 43.5379 -41.6724 38.4075H-41.7037Z" fill="#DADADA"/>
<path d="M49.1154 17.7588C48.0368 20.1583 47.7555 28.4617 49.6312 31.0663C51.507 33.671 56.2434 34.6182 58.3692 35.439C60.5108 36.2599 62.3396 36.623 63.1056 37.5701C63.8715 38.5173 63.9028 39.1645 64.403 39.5118C64.8876 39.8433 68.7329 39.6539 69.3738 39.2119C70.0147 38.7699 70.2805 37.3965 70.7963 36.7651C71.3121 36.1494 71.7342 34.7918 71.359 34.2393C70.9839 33.6868 70.0929 31.7451 68.9674 31.0348C67.8419 30.3244 64.4655 26.4569 63.2932 25.1151C62.1364 23.7575 60.2763 19.4006 57.744 18.1693C55.2117 16.9538 50.491 14.649 49.0998 17.743L49.1154 17.7588Z" fill="#DADADA"/>
<path d="M52.5703 18.769C51.7731 19.1637 50.5226 17.2851 50.6633 15.9118C50.8039 14.5384 51.6324 12.1074 52.5234 11.4286C53.4144 10.7656 53.0705 12.4547 53.6489 13.4176C54.2116 14.3648 55.212 17.443 52.5703 18.769Z" fill="#DADADA"/>
<path d="M61.6834 36.9232C58.7759 36.9232 52.0231 36.8758 46.8178 36.4338C34.7503 35.4393 34.0938 29.0776 34.0625 28.8092L34.8441 28.7461C34.8441 28.7461 35.5319 34.7132 46.8803 35.6603C53.6175 36.2128 62.9964 36.1339 63.0902 36.1339V36.9232C63.0902 36.9232 62.5587 36.9232 61.6677 36.9232H61.6834Z" fill="#191919"/>
<path d="M63.5742 33.7029C63.5742 33.7029 63.6055 32.3453 64.856 30.7825C65.9346 29.4407 66.8881 29.125 66.8881 29.125L68.0761 30.3247C68.0761 30.3247 66.9819 30.7983 66.2316 31.7928C65.4813 32.7873 65.1374 34.4606 65.1374 34.4606L63.5742 33.7029Z" fill="#191919"/>
<path d="M63.1685 34.208C63.106 34.1133 53.055 25.7783 53.055 25.7783L52.4453 26.4255L62.5276 34.6658L63.1529 34.1922L63.1685 34.208Z" fill="#191919"/>
<path d="M55.1027 34.382C55.0401 34.2872 54.0241 32.2666 53.4457 29.0937C52.9455 26.3311 53.5395 24.5 54.1648 22.7793C54.79 21.0587 57.1191 17.9015 57.1191 17.9015L55.8843 17.4121C55.8843 17.4121 52.3984 21.7374 52.0545 25.9365C51.7106 30.1355 53.4614 33.7821 53.4614 33.7821L55.0714 34.382H55.1027Z" fill="#191919"/>
<path d="M52.0866 25.9358C51.9303 25.9516 50.1796 24.3414 49.0854 22.2261C47.7723 19.7003 47.8505 17.001 47.8505 17.001L48.6477 16.8115C48.6477 16.8115 48.6477 19.9529 49.9139 22.2419C51.0081 24.2309 52.2898 25.0833 52.2898 25.0833L52.1023 25.9516L52.0866 25.9358Z" fill="#191919"/>
<path d="M63.9502 37.0658C63.3562 37.0658 62.8091 36.7658 62.4808 36.2765C62.2151 35.8818 62.1213 35.4083 62.2151 34.9347C62.3089 34.4611 62.5746 34.0665 62.9654 33.7981C63.747 33.2614 64.8881 33.4982 65.4196 34.2875C65.6853 34.6821 65.7791 35.1557 65.6853 35.6293C65.5915 36.1028 65.3258 36.4975 64.935 36.7658C64.638 36.9711 64.3097 37.0658 63.9502 37.0658ZM63.9502 34.177C63.7314 34.177 63.5282 34.2401 63.3406 34.3664C63.0905 34.5242 62.9342 34.7768 62.8716 35.0768C62.8091 35.3609 62.8716 35.6608 63.0436 35.9134C63.3718 36.4028 64.0753 36.5448 64.5598 36.2133C64.8099 36.0555 64.9663 35.8029 65.0288 35.503C65.0913 35.2188 65.0288 34.9189 64.8568 34.6663C64.6536 34.3664 64.3097 34.177 63.9502 34.177Z" fill="#E8A900"/>
<path d="M28.2322 43.7902C30.3268 44.548 33.0467 46.3949 34.2034 52.1883C35.3445 57.9818 32.5152 61.4073 30.7176 62.686C28.92 63.9646 25.6217 62.8596 25.1528 63.349C24.6838 63.8383 30.6551 73.9097 30.8114 76.1513C30.9677 78.3929 30.4206 80.6187 29.3576 81.4238C28.2947 82.2289 26.075 82.9393 24.2149 85.6071C22.3547 88.2749 21.1824 89.8535 20.0725 89.8535C18.9627 89.8535 16.618 90.3902 15.8676 90.6744C15.1173 90.9585 14.0857 91.6057 14.0857 91.6057C14.0857 91.6057 14.1638 85.9859 14.7422 86.3806C15.3205 86.7752 16.0709 87.5961 16.6805 86.5858C17.2901 85.5755 19.1815 84.9599 19.8068 84.5021C20.4164 84.0285 25.4341 80.2241 25.4967 78.093C25.5592 75.9619 19.0408 68.5425 16.6492 65.2117C14.2732 61.8809 13.1165 60.397 14.6484 57.9818C16.1803 55.5665 16.3366 50.594 17.8216 48.1471C19.3066 45.7003 23.5115 42.1011 28.2165 43.806L28.2322 43.7902Z" fill="#DADADA"/>
<path d="M-11.7843 47.689C-10.143 48.7782 -6.17258 50.0095 2.20591 50.4989C5.14463 50.6725 11.6317 51.1145 18.4002 49.7254C21.6515 49.0624 16.2743 28.7143 15.8366 28.7775C15.3989 28.8406 12.6947 31.6347 4.26927 32.1557C-6.71969 32.8187 -12.9254 31.5558 -12.9254 31.5558C-12.9254 31.5558 -13.41 46.6156 -11.7687 47.7048L-11.7843 47.689Z" fill="#D2534D"/>
<path d="M6.62891 31.8876C6.62891 31.8876 8.72353 40.0331 9.11432 47.9577C9.63016 58.3606 8.64537 65.5747 8.64537 65.5747L13.7569 66.1115C13.7569 66.1115 14.7417 58.1711 13.8507 47.0421C13.1629 38.5019 11.1308 31.2246 11.1308 31.2246L6.64454 31.8876H6.62891Z" fill="black"/>
<path d="M15.5232 6.18824C14.304 5.73045 8.84857 6.51974 11.0995 6.2356C11.2089 6.2356 7.6762 6.66182 7.00405 6.69339C6.39442 6.72496 -0.811706 6.93018 -4.65706 10.1031C-5.28232 10.6241 -6.93926 11.2239 -6.54848 12.5815C-4.98532 15.8808 -1.89028 18.3118 1.53302 19.8904C2.64286 20.6323 3.64327 19.2905 4.78437 19.0537C7.09783 18.5802 11.1308 19.1169 14.0695 18.7065C17.0082 18.296 18.9153 16.4491 19.4155 14.3969C19.9157 12.3605 18.9778 7.49847 15.5389 6.17245L15.5232 6.18824Z" fill="#D2534D"/>
<path d="M-6.54763 12.5967C-9.26751 15.1066 -11.5028 17.364 -10.3461 20.9159C-9.39256 23.8362 -3.23375 23.631 -0.935912 22.5576C0.236451 22.0051 0.877346 20.9159 1.53387 19.9056C-1.88943 18.3427 -4.98448 15.9117 -6.54763 12.5967Z" fill="#DEDEDE"/>
<path d="M14.0537 9.80342C15.8044 9.0457 17.4457 10.7664 18.7744 13.2605C20.1031 15.7547 23.4013 21.6744 23.6358 23.2214C23.8703 24.7685 22.4009 26.9785 20.6033 25.6683C18.8213 24.358 14.1475 18.7382 13.0845 16.6387C12.0216 14.5392 10.2083 11.4452 14.0381 9.80342H14.0537Z" fill="#0D0D0D"/>
<path d="M37.4714 33.6869C37.6121 33.4975 37.5652 33.2291 37.3776 33.087L35.9082 31.982C35.7206 31.8399 35.4549 31.8873 35.3142 32.0767C35.1735 32.2662 35.2204 32.5345 35.408 32.6766L36.8774 33.7816C37.0649 33.9237 37.3307 33.8921 37.4714 33.6869Z" fill="white"/>
<path d="M38.0026 33.0717C38.1433 32.8822 38.112 32.6139 37.9088 32.4718L36.4395 31.3668C36.2519 31.2247 35.9862 31.2721 35.8455 31.4615C35.7048 31.6509 35.7517 31.9193 35.9393 32.0614L37.4086 33.1664C37.5962 33.3085 37.8776 33.2769 38.0183 33.0717H38.0026Z" fill="white"/>
<path d="M38.487 32.4564C38.6277 32.267 38.5808 31.9986 38.3932 31.8566L36.9238 30.7516C36.7363 30.6095 36.4705 30.6568 36.3298 30.8463C36.1892 31.0357 36.2361 31.3041 36.4236 31.4461L37.893 32.5511C38.0806 32.6932 38.3463 32.6459 38.487 32.4564Z" fill="white"/>
<path d="M38.9089 31.8246C39.0496 31.6352 39.0027 31.3668 38.8151 31.2247L37.3457 30.1197C37.1581 29.9776 36.8924 30.025 36.7517 30.2144C36.611 30.4039 36.6579 30.6722 36.8455 30.8143L38.3149 31.9193C38.5025 32.0614 38.7682 32.014 38.9089 31.8246Z" fill="white"/>
<path d="M33.5161 28.2412C33.5161 28.2412 36.361 29.0463 36.8613 29.3462C37.3771 29.6462 38.9402 31.3668 38.9402 31.3668C38.9402 31.3668 37.9242 31.572 37.6585 32.0298C37.4084 32.5034 36.8613 33.7663 36.8613 33.7663C36.8613 33.7663 35.0011 33.0086 34.2821 32.4087C33.563 31.793 32.3438 30.9248 32.3438 30.9248L33.5005 28.2412H33.5161Z" fill="white"/>
<path d="M26.3884 3.23536C25.3723 1.89356 21.949 0.204469 19.7763 2.27242C17.5878 4.34037 17.9474 6.83455 18.6508 8.4605C19.1979 9.73915 19.8075 10.4969 21.1206 11.3967C21.3863 11.5861 23.9499 12.5175 24.5126 12.4228C24.8878 12.3596 25.6381 9.75494 25.7475 9.78651C25.8569 9.81808 26.1695 9.70758 26.2321 9.50236C26.3102 9.18665 26.3102 7.2292 26.4197 7.03976C26.5291 6.85033 27.5764 4.78238 26.404 3.23536H26.3884Z" fill="#FFBD95"/>
<path d="M26.9197 4.54596C26.9197 4.54596 25.1064 3.03051 22.199 4.89325C21.5737 5.28789 22.2146 7.59264 22.0427 7.7505C21.8551 7.92414 20.3232 5.8404 20.3545 6.10876C20.6515 8.68186 19.6198 9.88159 19.4009 9.86581C18.7288 9.78688 17.2594 5.96669 18.7757 3.36201C20.2919 0.757341 23.2932 1.00992 23.981 1.29406C24.6688 1.56242 26.779 2.11493 26.9197 4.56174V4.54596Z" fill="#8D3B26"/>
<path d="M21.4334 6.86653C21.5272 7.68739 21.4647 8.76083 21.0114 8.80819C20.5581 8.85555 20.136 8.2399 20.0422 7.41903C19.9484 6.59817 20.2142 5.8878 20.6519 5.84044C21.0895 5.79309 21.324 6.04566 21.4178 6.86653H21.4334Z" fill="#FFBD95"/>
<path d="M19.166 6.75656C19.2598 6.75656 19.5412 8.69823 20.0883 9.69274C20.6354 10.6873 21.6671 11.666 23.0583 12.2027C23.2771 12.2974 23.6835 12.329 23.6835 12.329C23.6835 12.329 23.2771 11.9501 23.1833 11.887C21.6671 11.0503 20.8699 10.0085 20.823 9.88217C20.7917 9.75589 21.6827 8.41408 22.1516 7.32486C22.3236 6.89864 22.5581 5.8252 22.5581 5.8252H21.9953C21.9953 5.8252 21.9172 6.55135 21.7452 6.97757C21.2294 8.25622 20.4165 9.23495 20.4165 9.23495C20.4165 9.23495 20.1508 8.63509 19.9476 8.05101C19.7288 7.388 19.635 6.39349 19.635 6.39349L19.1348 6.74078L19.166 6.75656Z" fill="#383838"/>
<path d="M8.83306 47.7529C8.83306 47.7529 8.98938 48.9842 8.64548 49.8209C8.30159 50.6575 7.9108 52.4098 7.87954 53.0728C7.84827 53.7358 8.98938 54.6198 8.98938 54.6198L10.9902 54.6514C10.9902 54.6514 10.49 51.2416 10.2555 50.2155C10.0211 49.1894 10.5213 47.9581 10.5213 47.9581L8.83306 47.7687V47.7529Z" fill="black"/>
<path d="M6.0663 33.5137C6.0663 33.5137 5.12841 36.6551 4.81578 40.0806C4.50315 43.5061 4.76889 45.4005 5.73804 45.6846C6.7072 45.953 8.22346 46.0792 8.7393 46.9001C9.25514 47.7368 9.75534 48.7155 10.4588 48.6839C11.1622 48.6524 11.3966 42.8589 11.3498 39.0545C11.3029 35.2501 10.49 34.0188 10.49 34.0188L6.0663 33.5137Z" fill="#191919"/>
<path d="M6.84845 26.2206C7.42682 25.8575 9.11502 26.0154 9.42765 26.4258C9.94349 27.1204 10.178 29.8987 10.0217 30.4512C9.86534 31.0037 9.97476 33.2927 8.23966 33.4821C6.50456 33.6715 6.25445 32.2508 6.16066 31.2879C6.06688 30.3249 5.67609 26.9468 6.83282 26.2048L6.84845 26.2206Z" fill="#303030"/>
<path d="M10.0366 29.0938C10.0366 29.0938 10.1773 32.7561 8.16085 32.835C6.70712 32.8824 6.51954 31.509 6.09749 31.5248C5.67544 31.5248 4.75318 32.0457 4.29987 31.9036C3.84656 31.7616 2.23651 30.9565 1.62688 31.0986C1.01725 31.2406 -4.29747 32.5035 -4.14115 33.3717C-3.98484 34.2557 -0.702216 38.1075 2.9243 37.7918C6.55081 37.4761 7.44181 35.1555 8.23901 35.0924C9.03622 35.0292 11.2246 36.5763 12.0531 35.1082C12.4283 34.4452 13.0535 29.1253 10.021 29.0938H10.0366Z" fill="#191919"/>
<path d="M6.12967 27.6729C6.12967 27.6729 0.611741 31.0668 -2.07688 30.688C-7.12586 29.9776 -7.8918 28.3359 -9.3299 29.3304C-10.0333 29.8197 -8.7828 33.0558 -6.17233 33.3873C-3.56187 33.7346 7.77097 32.8033 7.77097 32.8033C7.77097 32.8033 6.59861 32.2823 6.31724 30.3722C6.06714 28.7305 6.1453 27.6729 6.1453 27.6729H6.12967Z" fill="#303030"/>
<path d="M28.5127 5.52546C28.5752 5.19395 27.5436 4.78352 27.5436 4.51516C27.5748 3.2365 27.0746 0.710757 23.7138 0.110893C18.9931 -0.741546 16.539 3.69429 17.4769 6.51997C17.6801 7.11983 18.0083 7.8302 18.0865 7.90913C18.3366 8.14592 18.7118 7.32505 20.0717 6.8199C21.1659 6.40947 22.307 6.10954 23.2762 6.07796C25.3239 6.03061 28.4189 5.92011 28.4971 5.50967L28.5127 5.52546Z" fill="#D2534D"/>
<path d="M-9.62695 17.8696C-8.81411 16.4962 -6.71949 16.2594 -4.9375 16.5436C-3.15551 16.8277 1.17442 19.9533 3.11273 21.5003C5.05103 23.0474 10.1938 28.4303 10.3657 30.1036C10.5377 31.777 9.11523 34.0343 6.30156 32.7083C3.50352 31.3823 -2.73346 27.9252 -5.25013 26.0782C-7.7668 24.2313 -12.1124 22.0371 -9.64259 17.8854L-9.62695 17.8696Z" fill="#DEDEDE"/>
<path d="M9.17624 29.3614C7.48804 28.9667 3.11121 32.4712 2.26711 37.207C1.40738 41.9427 1.92322 47.0731 1.75127 47.8782C1.57932 48.6833 0.657064 50.4198 1.29796 50.9881C1.92322 51.5721 5.40905 50.8144 5.40905 50.1198C5.40905 49.4252 5.12768 49.662 5.34652 47.9887C5.58099 46.3154 7.97261 38.1699 8.59788 36.323C9.22314 34.476 11.9118 29.977 9.17624 29.3456V29.3614Z" fill="#DEDEDE"/>
<path d="M2.76876 50.61C2.1435 50.0259 3.05012 48.3052 3.22207 47.5001C3.39402 46.695 2.87818 41.5488 3.73791 36.8289C4.11307 34.7767 5.14474 32.9613 6.31711 31.5879C3.20644 29.9936 -1.6237 27.2626 -3.74958 25.684C-5.46905 24.4211 -8.03262 23.0004 -8.70477 20.9009C-8.7673 20.7746 -8.82982 20.6641 -8.87672 20.522C-9.87714 17.4596 -8.36088 15.3758 -6.17247 13.2447C-6.29752 13.0237 -6.43821 12.8343 -6.54763 12.6133C-9.26751 15.1232 -11.5028 17.3806 -10.3461 20.9325C-10.2992 21.0587 -10.2367 21.185 -10.1741 21.3113C-9.50198 23.4108 -6.93841 24.8316 -5.21894 26.0944C-3.07743 27.673 1.73708 30.404 4.84775 31.9984C3.65975 33.3717 2.62807 35.1871 2.26855 37.2393C1.40881 41.9751 1.92466 47.1055 1.75271 47.9106C1.58076 48.7156 0.658502 50.4521 1.29939 51.0204C1.75271 51.4308 3.62849 51.1625 4.6758 50.7362C3.84733 50.8783 3.0345 50.8783 2.76876 50.6257V50.61Z" fill="#C2C2C2"/>
<path d="M2.95517 34.3814C2.95517 34.3814 1.75154 37.0807 1.51706 39.717C1.28259 42.3532 1.76717 47.0101 1.51706 47.5468C1.26696 48.0835 0.610441 50.3725 0.641704 50.8934C0.672967 51.4143 1.20443 52.4089 1.2357 52.5983C1.26696 52.7877 1.31386 53.577 1.31386 53.577L4.70589 53.9717L4.98726 53.2455C4.98726 53.2455 7.91035 54.1611 10.005 54.0979C12.084 54.0348 13.6471 53.7664 13.8503 53.3718C14.0535 52.9771 13.7878 52.251 12.0214 52.0616C10.2551 51.8721 6.86304 49.6305 6.05021 49.0465C5.23737 48.4466 8.50435 37.0018 8.50435 37.0018C8.50435 37.0018 8.25425 34.7286 6.9412 34.113C5.42495 33.3868 2.9708 34.3814 2.9708 34.3814H2.95517Z" fill="black"/>
<path d="M8.95866 48.3208L11.1158 48.5734C11.3503 48.605 11.5691 48.3997 11.6004 48.1314C11.6316 47.863 11.4441 47.6262 11.2096 47.5947L9.05244 47.3421C8.81797 47.3105 8.59913 47.5157 8.56787 47.7841C8.53661 48.0524 8.72418 48.2892 8.95866 48.3208Z" fill="#303030"/>
<path d="M11.2567 48.0212L9.39656 47.958C9.39656 47.958 9.3653 49.2209 9.44345 49.7892C9.52161 50.3575 9.72482 52.8674 9.49035 53.6409C9.25588 54.4144 9.20898 54.6197 9.20898 54.6197H11.5224C11.5224 54.6197 11.7882 53.5936 11.71 52.5833C11.6319 51.573 11.1473 50.1522 11.1317 49.5366C11.1317 48.9209 11.2723 48.0369 11.2723 48.0369L11.2567 48.0212Z" fill="#303030"/>
<path d="M16.742 13.7967C17.2578 14.7439 17.1015 15.8489 16.3825 16.2435C15.6634 16.6382 14.663 16.1804 14.1471 15.2332C13.6313 14.2861 13.7876 13.1811 14.5067 12.7864C15.2257 12.3918 16.2261 12.8496 16.742 13.7967Z" fill="#DEDEDE"/>
<path d="M6.83254 25.1154C5.44133 23.5999 3.97197 22.195 3.12787 21.5162C2.65892 21.1373 2.04929 20.6637 1.36151 20.1744C1.42403 20.0954 1.47093 20.0007 1.53345 19.9218C0.720615 19.5429 -0.0609636 19.1325 -0.826908 18.6589C-0.95196 18.58 -1.06138 18.5011 -1.18643 18.4221C-2.07743 17.8538 -2.87463 17.1908 -3.64058 16.4805C-3.92195 16.9225 -3.96884 17.5066 -3.28105 18.1853C-1.62411 19.8271 7.09827 25.4469 7.1608 25.4942C7.05138 25.3679 6.92633 25.2416 6.81691 25.1154H6.83254Z" fill="#C2C2C2"/>
<path d="M33.9383 28.3674C33.9383 28.3674 31.4842 26.1415 28.6236 24.484C25.763 22.8265 22.4804 21.9109 21.1205 22.7791C19.7605 23.6474 19.8387 25.3365 21.4331 26.5204C23.0275 27.6886 32.0469 31.1457 32.3439 31.1772C32.6409 31.2088 33.9383 28.3831 33.9383 28.3831V28.3674Z" fill="#0D0D0D"/>
<ellipse cx="58.0461" cy="25.639" rx="1.39175" ry="0.466163" fill="#1F2326"/>
</g>
<defs>
<clipPath id="clip0_2239_21999">
<rect width="150" height="97.2727" fill="white" transform="translate(-78.5)"/>
</clipPath>
</defs>
</svg>
