<svg width="72" height="71" viewBox="0 0 72 71" fill="none" xmlns="http://www.w3.org/2000/svg">
<g clip-path="url(#clip0_2239_22056)">
<path d="M15.2257 14.4375C15.2257 14.4375 16.5701 13.6205 17.4454 13.2592C19.6495 12.3323 22.3381 11.6097 22.3381 11.6097L21.8379 5.04297C21.8379 5.04297 19.8058 7.54084 15.9448 7.58797C15.0694 9.63025 14.366 12.2695 15.2101 14.4375H15.2257Z" fill="#FFA47C"/>
<path d="M36.1417 19.5586C36.6576 19.9042 36.3918 27.1465 30.5144 28.6075C24.6526 30.0842 18.4156 29.173 15.9615 31.4981C13.4917 33.8231 12.0223 35.9126 8.89601 35.6455C6.80139 35.457 5.33203 34.5144 5.33203 34.5144C5.33203 34.5144 8.95854 34.9385 10.0527 34.1688C11.3814 33.2262 12.2412 31.6238 13.5855 29.66C14.1951 28.7803 15.7895 28.0419 15.7895 28.0419C15.7895 28.0419 13.3979 27.6335 11.9129 28.419C10.4279 29.2044 8.80222 29.8014 7.69239 29.6129C6.44187 29.4087 5.36329 27.6963 5.36329 27.6963C5.36329 27.6963 7.08276 28.6075 8.23949 27.9319C9.39623 27.2564 11.7566 25.0885 14.4296 25.1984C17.1026 25.3084 15.6645 23.2347 13.3197 22.9362C12.3193 22.8105 10.6936 24.303 10.6936 24.303C10.6936 24.303 11.3033 21.3652 14.4452 21.8051C23.1051 23.0305 24.1367 20.4226 24.1367 20.4226L36.2043 19.5586H36.1417Z" fill="#330E01"/>
<path d="M48.0217 17.3908C48.4437 17.8307 46.6617 24.853 40.628 25.0415C34.5786 25.23 28.6855 23.0149 25.7937 24.7744C22.8862 26.5182 21.0104 28.2463 18.0092 27.3194C16.0083 26.691 14.7578 25.4499 14.7578 25.4499C14.7578 25.4499 18.2124 26.6439 19.4316 26.1255C20.9323 25.4971 22.1046 24.0989 23.8397 22.4651C24.6213 21.7267 26.3251 21.3497 26.3251 21.3497C26.3251 21.3497 24.0742 20.4385 22.4485 20.8941C20.8228 21.3497 19.119 21.5853 18.0717 21.1611C16.8993 20.6898 16.1959 18.789 16.1959 18.789C16.1959 18.789 17.6965 20.0457 18.9627 19.6216C20.2288 19.1974 22.9956 17.595 25.5748 18.2705C28.1697 18.9461 27.2005 16.6053 24.9652 15.8198C24.0273 15.4899 22.1046 16.5896 22.1046 16.5896C22.1046 16.5896 23.3083 13.8404 26.2939 14.9558C34.5004 18.0035 36.0479 15.6627 36.0479 15.6627L48.0217 17.3908Z" fill="#330E01"/>
<path d="M60.1666 18.1762C60.4792 18.7103 57.1185 25.12 51.1941 23.8946C45.2698 22.6692 40.0488 19.1345 36.8288 20.1556C33.6087 21.1768 31.3734 22.4179 28.6691 20.8155C26.8715 19.7472 25.9492 18.239 25.9492 18.239C25.9492 18.239 29.0443 20.2028 30.3417 19.9828C31.9361 19.7158 33.4211 18.6318 35.4688 17.4535C36.3911 16.9194 38.1418 16.9508 38.1418 16.9508C38.1418 16.9508 36.1722 15.5369 34.484 15.5998C32.7958 15.6626 31.092 15.4898 30.1541 14.83C29.1224 14.0916 28.8723 12.0808 28.8723 12.0808C28.8723 12.0808 30.029 13.6518 31.3734 13.5418C32.7177 13.4318 35.7658 12.5207 38.1262 13.7774C40.4865 15.0499 40.0957 12.5521 38.0949 11.2482C37.2508 10.6983 35.1405 11.3267 35.1405 11.3267C35.1405 11.3267 36.9538 8.9388 39.5955 10.714C46.8642 15.5998 46.5203 14.1231 48.9275 13.6832C56.6964 12.2222 60.1666 18.1605 60.1666 18.1605V18.1762Z" fill="#330E01"/>
<path d="M28.7321 38.2382C30.9517 38.5052 33.9999 39.6835 36.4071 45.0405C38.8144 50.4133 35.6881 53.8224 35.3442 56.006C34.9847 58.284 45.5516 68.1969 46.2081 70.3334C46.8646 72.47 46.8177 74.7636 45.958 75.769C45.0983 76.7745 43.0974 77.9684 41.8625 80.9847C40.6277 84.001 39.8461 85.7919 38.7675 86.0276C37.6889 86.2632 35.5161 87.3158 34.8596 87.7714C34.1875 88.2269 33.3277 89.0753 33.3277 89.0753C33.3277 89.0753 32.171 83.6082 32.8119 83.8596C33.4528 84.1267 34.375 84.7551 34.7502 83.624C35.1254 82.4928 36.8292 81.4874 37.3294 80.8904C37.8296 80.2935 41.8782 75.4862 41.4561 73.3968C41.0497 71.3074 33.0464 65.589 29.9826 62.8869C26.9188 60.1848 21.9167 57.5927 20.8694 54.9378C19.6345 51.7644 18.6497 47.4756 19.5407 44.7735C20.4474 42.0714 23.7456 37.6255 28.7164 38.2225L28.7321 38.2382Z" fill="#6F2200"/>
<path d="M-41.7037 38.2221C-40.0468 33.462 -34.0599 28.8905 -24.1026 29.8174C-14.1453 30.7442 -12.207 32.3309 2.3459 32.5823C10.443 32.7237 13.7882 30.2258 18.6652 27.0681C24.0737 23.5805 33.6871 19.4489 39.9866 17.7679C45.9422 16.1655 53.7579 15.7728 57.4939 18.2549C61.2298 20.7371 53.9768 32.2524 47.4897 33.682C44.254 34.3889 35.8286 41.804 36.0787 43.1393C36.3288 44.4747 38.5485 48.3864 36.9384 52.6124C35.3284 56.8383 24.9022 65.9343 12.7409 65.3845C0.57954 64.8346 -12.676 57.3096 -17.6468 56.6969C-22.6176 56.0842 -35.3573 59.5247 -39.3277 55.4087C-43.2981 51.2927 -43.4544 43.3278 -41.6724 38.2221H-41.7037Z" fill="#97380E"/>
<path d="M49.1154 17.6732C48.0368 20.0611 47.7555 28.3245 49.6312 30.9166C51.507 33.5087 56.2434 34.4513 58.3692 35.2682C60.5108 36.0851 62.3396 36.4465 63.1056 37.389C63.8715 38.3316 63.9028 38.9757 64.403 39.3214C64.8876 39.6513 68.7329 39.4628 69.3738 39.0229C70.0147 38.583 70.2805 37.2162 70.7963 36.5879C71.3121 35.9752 71.7342 34.6241 71.359 34.0743C70.9839 33.5244 70.0929 31.5921 68.9674 30.8852C67.8419 30.1782 64.4655 26.3293 63.2932 24.994C62.1364 23.6429 60.2763 19.307 57.744 18.0816C55.2117 16.872 50.491 14.5783 49.0998 17.6575L49.1154 17.6732Z" fill="#97380E"/>
<path d="M52.5703 18.6792C51.7731 19.072 50.5226 17.2025 50.6633 15.8357C50.8039 14.469 51.6324 12.0497 52.5234 11.3741C53.4144 10.7143 53.0705 12.3953 53.6489 13.3536C54.2116 14.2962 55.212 17.3596 52.5703 18.6792Z" fill="#6F2200"/>
<path d="M61.6834 36.7451C58.7759 36.7451 52.0231 36.698 46.8178 36.2581C34.7503 35.2684 34.0938 28.9373 34.0625 28.6703L34.8441 28.6074C34.8441 28.6074 35.5319 34.5457 46.8803 35.4883C53.6175 36.0382 62.9964 35.9596 63.0902 35.9596V36.7451C63.0902 36.7451 62.5587 36.7451 61.6677 36.7451H61.6834Z" fill="#191919"/>
<path d="M63.5742 33.5402C63.5742 33.5402 63.6055 32.1892 64.856 30.6339C65.9346 29.2986 66.8881 28.9844 66.8881 28.9844L68.0761 30.1783C68.0761 30.1783 66.9819 30.6496 66.2316 31.6393C65.4813 32.6291 65.1374 34.2943 65.1374 34.2943L63.5742 33.5402Z" fill="#191919"/>
<path d="M63.1685 34.0434C63.106 33.9491 53.055 25.6543 53.055 25.6543L52.4453 26.2984L62.5276 34.4989L63.1529 34.0276L63.1685 34.0434Z" fill="#191919"/>
<path d="M55.1027 34.2162C55.0401 34.122 54.0241 32.1111 53.4457 28.9534C52.9455 26.2042 53.5395 24.3819 54.1648 22.6695C54.79 20.9571 57.1191 17.8151 57.1191 17.8151L55.8843 17.3281C55.8843 17.3281 52.3984 21.6326 52.0545 25.8114C51.7106 29.9903 53.4614 33.6192 53.4614 33.6192L55.0714 34.2162H55.1027Z" fill="#191919"/>
<path d="M52.0866 25.8117C51.9303 25.8275 50.1796 24.225 49.0854 22.1199C47.7723 19.6063 47.8505 16.92 47.8505 16.92L48.6477 16.7314C48.6477 16.7314 48.6477 19.8577 49.9139 22.1356C51.0081 24.1151 52.2898 24.9634 52.2898 24.9634L52.1023 25.8275L52.0866 25.8117Z" fill="#191919"/>
<path d="M63.9502 36.8865C63.3562 36.8865 62.8091 36.588 62.4808 36.101C62.2151 35.7083 62.1213 35.237 62.2151 34.7657C62.3089 34.2944 62.5746 33.9017 62.9654 33.6346C63.747 33.1005 64.8881 33.3361 65.4196 34.1216C65.6853 34.5143 65.7791 34.9856 65.6853 35.4569C65.5915 35.9282 65.3258 36.321 64.935 36.588C64.638 36.7923 64.3097 36.8865 63.9502 36.8865ZM63.9502 34.0116C63.7314 34.0116 63.5282 34.0745 63.3406 34.2001C63.0905 34.3572 62.9342 34.6086 62.8716 34.9071C62.8091 35.1899 62.8716 35.4884 63.0436 35.7397C63.3718 36.2267 64.0753 36.3681 64.5598 36.0382C64.8099 35.8811 64.9663 35.6297 65.0288 35.3313C65.0913 35.0485 65.0288 34.75 64.8568 34.4986C64.6536 34.2001 64.3097 34.0116 63.9502 34.0116Z" fill="#E8A900"/>
<path d="M28.2322 43.5792C30.3268 44.3333 33.0467 46.1713 34.2034 51.9368C35.3445 57.7024 32.5152 61.1114 30.7176 62.3839C28.92 63.6564 25.6217 62.5567 25.1528 63.0437C24.6838 63.5307 30.6551 73.5536 30.8114 75.7844C30.9677 78.0152 30.4206 80.2303 29.3576 81.0315C28.2947 81.8327 26.075 82.5396 24.2149 85.1946C22.3547 87.8496 21.1824 89.4205 20.0725 89.4205C18.9627 89.4205 16.618 89.9547 15.8676 90.2375C15.1173 90.5202 14.0857 91.1643 14.0857 91.1643C14.0857 91.1643 14.1638 85.5716 14.7422 85.9644C15.3205 86.3571 16.0709 87.174 16.6805 86.1686C17.2901 85.1632 19.1815 84.5505 19.8068 84.0949C20.4164 83.6236 25.4341 79.8375 25.4967 77.7167C25.5592 75.5959 19.0408 68.2122 16.6492 64.8975C14.2732 61.5827 13.1165 60.106 14.6484 57.7023C16.1803 55.2987 16.3366 50.3501 17.8216 47.9151C19.3066 45.4801 23.5115 41.8982 28.2165 43.5949L28.2322 43.5792Z" fill="#97380E"/>
<path d="M-11.7843 47.4592C-10.143 48.5432 -6.17258 49.7686 2.20591 50.2556C5.14463 50.4284 11.6317 50.8683 18.4002 49.4858C21.6515 48.826 16.2743 28.576 15.8366 28.6388C15.3989 28.7017 12.6947 31.4823 4.26927 32.0007C-6.71969 32.6605 -12.9254 31.4038 -12.9254 31.4038C-12.9254 31.4038 -13.41 46.391 -11.7687 47.4749L-11.7843 47.4592Z" fill="#7A63FF"/>
<path d="M6.62891 31.734C6.62891 31.734 8.72353 39.8403 9.11432 47.7267C9.63016 58.0795 8.64537 65.2589 8.64537 65.2589L13.7569 65.793C13.7569 65.793 14.7417 57.8909 13.8507 46.8155C13.1629 38.3165 11.1308 31.0742 11.1308 31.0742L6.64454 31.734H6.62891Z" fill="black"/>
<path d="M15.5232 6.15824C14.304 5.70265 8.84857 6.48814 11.0995 6.20537C11.2089 6.20537 7.67621 6.62953 7.00405 6.66095C6.39442 6.69237 -0.811706 6.8966 -4.65706 10.0543C-5.28232 10.5727 -6.93926 11.1697 -6.54848 12.5207C-4.98532 15.8041 -1.89028 18.2234 1.53302 19.7944C2.64286 20.5328 3.64327 19.1974 4.78437 18.9618C7.09784 18.4905 11.1308 19.0246 14.0695 18.6162C17.0082 18.2077 18.9153 16.3696 19.4155 14.3274C19.9157 12.3008 18.9778 7.46216 15.5389 6.14253L15.5232 6.15824Z" fill="#213C9B"/>
<path d="M-6.54763 12.5361C-9.26751 15.034 -11.5028 17.2805 -10.3461 20.8152C-9.39256 23.7215 -3.23375 23.5173 -0.935913 22.4491C0.23645 21.8992 0.877345 20.8152 1.53387 19.8098C-1.88943 18.2545 -4.98448 15.8352 -6.54763 12.5361Z" fill="#DEDEDE"/>
<path d="M14.0537 9.75568C15.8044 9.0016 17.4457 10.714 18.7744 13.1961C20.1031 15.6783 23.4013 21.5695 23.6358 23.1091C23.8703 24.6486 22.4009 26.848 20.6033 25.5441C18.8213 24.2402 14.1475 18.6475 13.0845 16.558C12.0216 14.4686 10.2083 11.3895 14.0381 9.75568H14.0537Z" fill="#7A63FF"/>
<path d="M37.4714 33.524C37.6121 33.3355 37.5652 33.0684 37.3776 32.927L35.9082 31.8273C35.7206 31.6859 35.4549 31.7331 35.3142 31.9216C35.1735 32.1101 35.2204 32.3772 35.408 32.5186L36.8774 33.6182C37.0649 33.7596 37.3307 33.7282 37.4714 33.524Z" fill="#DEDEDE"/>
<path d="M38.0026 32.9117C38.1433 32.7232 38.112 32.4561 37.9088 32.3147L36.4395 31.215C36.2519 31.0736 35.9862 31.1208 35.8455 31.3093C35.7048 31.4978 35.7517 31.7649 35.9393 31.9063L37.4086 33.0059C37.5962 33.1473 37.8776 33.1159 38.0183 32.9117H38.0026Z" fill="#DEDEDE"/>
<path d="M38.487 32.2994C38.6277 32.1109 38.5808 31.8438 38.3932 31.7024L36.9238 30.6027C36.7363 30.4613 36.4705 30.5085 36.3298 30.697C36.1892 30.8855 36.2361 31.1526 36.4236 31.294L37.893 32.3936C38.0806 32.535 38.3463 32.4879 38.487 32.2994Z" fill="#DEDEDE"/>
<path d="M38.9089 31.6705C39.0496 31.482 39.0027 31.2149 38.8151 31.0735L37.3457 29.9738C37.1581 29.8324 36.8924 29.8796 36.7517 30.0681C36.611 30.2566 36.6579 30.5237 36.8455 30.665L38.3149 31.7647C38.5025 31.9061 38.7682 31.859 38.9089 31.6705Z" fill="#DEDEDE"/>
<path d="M33.5161 28.1045C33.5161 28.1045 36.361 28.9057 36.8613 29.2042C37.3771 29.5027 38.9402 31.215 38.9402 31.215C38.9402 31.215 37.9242 31.4193 37.6585 31.8749C37.4084 32.3462 36.8613 33.6029 36.8613 33.6029C36.8613 33.6029 35.0011 32.8489 34.2821 32.2519C33.563 31.6392 32.3438 30.7752 32.3438 30.7752L33.5005 28.1045H33.5161Z" fill="#DEDEDE"/>
<path d="M26.3884 3.2202C25.3723 1.88486 21.949 0.20391 19.7763 2.2619C17.5878 4.31989 17.9474 6.80205 18.6508 8.42016C19.1979 9.69266 19.8075 10.4467 21.1206 11.3422C21.3863 11.5307 23.9499 12.4576 24.5126 12.3633C24.8878 12.3005 25.6381 9.70837 25.7475 9.73979C25.8569 9.77121 26.1695 9.66124 26.2321 9.45701C26.3102 9.14282 26.3102 7.19479 26.4197 7.00628C26.5291 6.81776 27.5764 4.75977 26.404 3.2202H26.3884Z" fill="#FFBD95"/>
<path d="M26.9197 4.52459C26.9197 4.52459 25.1064 3.01644 22.199 4.8702C21.5737 5.26295 22.2146 7.55659 22.0427 7.71369C21.8551 7.88649 20.3232 5.81279 20.3545 6.07986C20.6515 8.64057 19.6198 9.83452 19.4009 9.81881C18.7288 9.74026 17.2594 5.93847 18.7757 3.34635C20.2919 0.75422 23.2932 1.00558 23.981 1.28835C24.6688 1.55542 26.779 2.10527 26.9197 4.54029V4.52459Z" fill="#8D3B26"/>
<path d="M21.4334 6.83421C21.5272 7.65113 21.4647 8.7194 21.0114 8.76653C20.5581 8.81366 20.136 8.20097 20.0422 7.38406C19.9484 6.56715 20.2142 5.8602 20.6519 5.81307C21.0895 5.76594 21.324 6.0173 21.4178 6.83421H21.4334Z" fill="#FFBD95"/>
<path d="M19.166 6.72376C19.2598 6.72376 19.5412 8.65607 20.0883 9.64579C20.6354 10.6355 21.6671 11.6095 23.0583 12.1437C23.2771 12.2379 23.6835 12.2693 23.6835 12.2693C23.6835 12.2693 23.2771 11.8923 23.1833 11.8295C21.6671 10.9968 20.8699 9.95999 20.823 9.83431C20.7917 9.70863 21.6827 8.37329 22.1516 7.28931C22.3236 6.86514 22.5581 5.79688 22.5581 5.79688H21.9953C21.9953 5.79688 21.9172 6.51953 21.7452 6.94369C21.2294 8.21619 20.4165 9.1902 20.4165 9.1902C20.4165 9.1902 20.1508 8.59323 19.9476 8.01196C19.7288 7.35215 19.635 6.36243 19.635 6.36243L19.1348 6.70805L19.166 6.72376Z" fill="#383838"/>
<path d="M8.83306 47.5215C8.83306 47.5215 8.98938 48.7469 8.64548 49.5795C8.30159 50.4121 7.9108 52.1559 7.87954 52.8157C7.84827 53.4755 8.98938 54.3553 8.98938 54.3553L10.9902 54.3867C10.9902 54.3867 10.49 50.9934 10.2555 49.9722C10.0211 48.9511 10.5213 47.7257 10.5213 47.7257L8.83306 47.5372V47.5215Z" fill="black"/>
<path d="M6.0663 33.3516C6.0663 33.3516 5.12841 36.4778 4.81578 39.8869C4.50315 43.2959 4.76889 45.1811 5.73804 45.4639C6.7072 45.7309 8.22345 45.8566 8.73929 46.6735C9.25513 47.5061 9.75534 48.4802 10.4588 48.4487C11.1622 48.4173 11.3966 42.6518 11.3498 38.8657C11.3029 35.0796 10.49 33.8543 10.49 33.8543L6.0663 33.3516Z" fill="#191919"/>
<path d="M6.84845 26.0936C7.42682 25.7323 9.11502 25.8894 9.42765 26.2979C9.94349 26.9891 10.178 29.754 10.0217 30.3039C9.86534 30.8537 9.97476 33.1317 8.23966 33.3202C6.50456 33.5087 6.25445 32.0948 6.16066 31.1365C6.06688 30.1782 5.67609 26.8163 6.83282 26.0779L6.84845 26.0936Z" fill="#303030"/>
<path d="M10.0366 28.9531C10.0366 28.9531 10.1773 32.5978 8.16085 32.6764C6.70712 32.7235 6.51954 31.3567 6.09749 31.3724C5.67544 31.3724 4.75318 31.8909 4.29987 31.7495C3.84655 31.6081 2.2365 30.8069 1.62687 30.9483C1.01725 31.0897 -4.29747 32.3465 -4.14115 33.2105C-3.98484 34.0902 -0.702217 37.9235 2.92429 37.6093C6.55081 37.2951 7.4418 34.9857 8.23901 34.9229C9.03622 34.86 11.2246 36.3996 12.0531 34.9386C12.4283 34.2788 13.0535 28.9845 10.021 28.9531H10.0366Z" fill="#191919"/>
<path d="M6.12967 27.5391C6.12967 27.5391 0.611742 30.9167 -2.07688 30.5396C-7.12586 29.8327 -7.8918 28.1989 -9.3299 29.1886C-10.0333 29.6756 -8.7828 32.8961 -6.17233 33.226C-3.56187 33.5716 7.77098 32.6448 7.77098 32.6448C7.77098 32.6448 6.59861 32.1263 6.31724 30.2254C6.06714 28.5916 6.1453 27.5391 6.1453 27.5391H6.12967Z" fill="#303030"/>
<path d="M28.5127 5.49886C28.5752 5.16895 27.5436 4.76049 27.5436 4.49343C27.5748 3.22093 27.0746 0.707352 23.7138 0.110378C18.9931 -0.737955 16.539 3.67651 17.4769 6.48858C17.6801 7.08555 18.0083 7.7925 18.0865 7.87105C18.3366 8.10669 18.7118 7.28978 20.0717 6.78707C21.1659 6.37861 22.307 6.08012 23.2762 6.0487C25.3239 6.00157 28.4189 5.8916 28.4971 5.48315L28.5127 5.49886Z" fill="#7A63FF"/>
<path d="M-9.62695 17.7836C-8.81411 16.4168 -6.71949 16.1812 -4.9375 16.4639C-3.15551 16.7467 1.17442 19.8573 3.11273 21.3968C5.05103 22.9364 10.1938 28.2935 10.3657 29.9587C10.5377 31.624 9.11523 33.8705 6.30156 32.5508C3.50352 31.2312 -2.73346 27.7908 -5.25013 25.9527C-7.7668 24.1146 -12.1124 21.931 -9.64259 17.7993L-9.62695 17.7836Z" fill="#DEDEDE"/>
<path d="M9.17624 29.2206C7.48804 28.8279 3.11121 32.3154 2.26711 37.0284C1.40738 41.7414 1.92322 46.8471 1.75127 47.6483C1.57932 48.4495 0.657064 50.1775 1.29796 50.7431C1.92322 51.3244 5.40905 50.5703 5.40905 49.8791C5.40905 49.1878 5.12768 49.4235 5.34652 47.7582C5.58099 46.093 7.97262 37.9867 8.59788 36.1486C9.22314 34.3106 11.9118 29.8333 9.17624 29.2049V29.2206Z" fill="#DEDEDE"/>
<path d="M2.76876 50.3654C2.1435 49.7841 3.05012 48.0717 3.22207 47.2705C3.39402 46.4693 2.87818 41.3479 3.73791 36.6507C4.11307 34.6084 5.14474 32.8018 6.31711 31.435C3.20644 29.8483 -1.6237 27.1305 -3.74958 25.5595C-5.46905 24.3027 -8.03262 22.8888 -8.70477 20.7994C-8.7673 20.6738 -8.82982 20.5638 -8.87672 20.4224C-9.87714 17.3747 -8.36088 15.301 -6.17247 13.1802C-6.29752 12.9602 -6.43821 12.7717 -6.54763 12.5518C-9.26751 15.0496 -11.5028 17.2961 -10.3461 20.8309C-10.2992 20.9565 -10.2367 21.0822 -10.1741 21.2079C-9.50198 23.2973 -6.93841 24.7112 -5.21894 25.968C-3.07743 27.539 1.73708 30.2568 4.84775 31.8435C3.65975 33.2102 2.62807 35.0169 2.26855 37.0591C1.40881 41.7721 1.92466 46.8778 1.75271 47.679C1.58076 48.4802 0.658502 50.2083 1.29939 50.7738C1.75271 51.1823 3.62849 50.9152 4.6758 50.4911C3.84733 50.6324 3.0345 50.6324 2.76876 50.3811V50.3654Z" fill="#C2C2C2"/>
<path d="M2.95517 34.2157C2.95517 34.2157 1.75154 36.9021 1.51706 39.5256C1.28259 42.1492 1.76717 46.7836 1.51706 47.3177C1.26696 47.8519 0.610441 50.1298 0.641704 50.6482C0.672967 51.1666 1.20443 52.1563 1.2357 52.3449C1.26696 52.5334 1.31386 53.3189 1.31386 53.3189L4.70589 53.7116L4.98726 52.989C4.98726 52.989 7.91035 53.9001 10.005 53.8373C12.084 53.7745 13.6471 53.5074 13.8503 53.1147C14.0535 52.7219 13.7878 51.9993 12.0214 51.8107C10.2551 51.6222 6.86304 49.3914 6.05021 48.8102C5.23737 48.2132 8.50435 36.8235 8.50435 36.8235C8.50435 36.8235 8.25425 34.5613 6.9412 33.9486C5.42495 33.226 2.9708 34.2157 2.9708 34.2157H2.95517Z" fill="black"/>
<path d="M8.95866 48.0876L11.1158 48.3389C11.3503 48.3703 11.5691 48.1661 11.6004 47.899C11.6316 47.632 11.4441 47.3963 11.2096 47.3649L9.05244 47.1135C8.81797 47.0821 8.59913 47.2864 8.56787 47.5534C8.53661 47.8205 8.72418 48.0561 8.95866 48.0876Z" fill="#303030"/>
<path d="M11.2567 47.7894L9.39656 47.7266C9.39656 47.7266 9.3653 48.9834 9.44345 49.5489C9.52161 50.1145 9.72482 52.6123 9.49035 53.3821C9.25588 54.1519 9.20898 54.3561 9.20898 54.3561H11.5224C11.5224 54.3561 11.7882 53.335 11.71 52.3296C11.6319 51.3241 11.1473 49.9102 11.1317 49.2975C11.1317 48.6849 11.2723 47.8051 11.2723 47.8051L11.2567 47.7894Z" fill="#303030"/>
<path d="M16.742 13.7306C17.2578 14.6732 17.1015 15.7729 16.3825 16.1657C15.6634 16.5584 14.663 16.1028 14.1471 15.1602C13.6313 14.2176 13.7876 13.118 14.5067 12.7252C15.2257 12.3325 16.2261 12.788 16.742 13.7306Z" fill="#DEDEDE"/>
<path d="M6.83254 24.9947C5.44133 23.4865 3.97197 22.0883 3.12787 21.4128C2.65892 21.0358 2.04929 20.5645 1.36151 20.0775C1.42403 19.9989 1.47093 19.9047 1.53345 19.8261C0.720615 19.4491 -0.0609636 19.0406 -0.826908 18.5693C-0.95196 18.4908 -1.06138 18.4122 -1.18643 18.3337C-2.07743 17.7681 -2.87463 17.1083 -3.64058 16.4014C-3.92195 16.8412 -3.96884 17.4225 -3.28105 18.098C-1.62411 19.7319 7.09827 25.3246 7.1608 25.3717C7.05138 25.246 6.92633 25.1203 6.81691 24.9947H6.83254Z" fill="#C2C2C2"/>
<path d="M33.9383 28.2304C33.9383 28.2304 31.4842 26.0153 28.6236 24.3658C25.763 22.7163 22.4804 21.8051 21.1205 22.6691C19.7605 23.5332 19.8387 25.2141 21.4331 26.3924C23.0275 27.5549 32.0469 30.9954 32.3439 31.0268C32.6409 31.0582 33.9383 28.2461 33.9383 28.2461V28.2304Z" fill="#7A63FF"/>
<ellipse cx="57.4269" cy="24.8965" rx="1.39175" ry="0.463918" fill="#1F2326"/>
</g>
<defs>
<clipPath id="clip0_2239_22056">
<rect width="150" height="96.8041" fill="white" transform="translate(-78.5)"/>
</clipPath>
</defs>
</svg>
