<svg width="72" height="71" viewBox="0 0 72 71" fill="none" xmlns="http://www.w3.org/2000/svg">
<g clip-path="url(#clip0_2239_21942)">
<path d="M15.2257 14.4373C15.2257 14.4373 16.5701 13.6204 17.4454 13.2591C19.6495 12.3322 22.3381 11.6096 22.3381 11.6096L21.8379 5.04297C21.8379 5.04297 19.8058 7.54079 15.9448 7.58792C15.0694 9.63016 14.366 12.2694 15.2101 14.4373H15.2257Z" fill="#FFA47C"/>
<path d="M36.1417 19.5586C36.6576 19.9042 36.3918 27.1463 30.5144 28.6073C24.6526 30.084 18.4156 29.1728 15.9615 31.4979C13.4917 33.8229 12.0223 35.9122 8.89601 35.6452C6.80139 35.4567 5.33203 34.5141 5.33203 34.5141C5.33203 34.5141 8.95854 34.9383 10.0527 34.1685C11.3814 33.2259 12.2412 31.6235 13.5855 29.6598C14.1951 28.7801 15.7895 28.0418 15.7895 28.0418C15.7895 28.0418 13.3979 27.6333 11.9129 28.4188C10.4279 29.2043 8.80222 29.8012 7.69239 29.6127C6.44187 29.4085 5.36329 27.6961 5.36329 27.6961C5.36329 27.6961 7.08276 28.6073 8.23949 27.9318C9.39623 27.2563 11.7566 25.0884 14.4296 25.1983C17.1026 25.3083 15.6645 23.2346 13.3197 22.9362C12.3193 22.8105 10.6936 24.3029 10.6936 24.3029C10.6936 24.3029 11.3033 21.3652 14.4452 21.8051C23.1051 23.0304 24.1367 20.4226 24.1367 20.4226L36.2043 19.5586H36.1417Z" fill="#330E01"/>
<path d="M48.0217 17.3907C48.4437 17.8306 46.6617 24.8528 40.628 25.0413C34.5786 25.2298 28.6855 23.0148 25.7937 24.7742C22.8862 26.518 21.0104 28.246 18.0092 27.3192C16.0083 26.6908 14.7578 25.4497 14.7578 25.4497C14.7578 25.4497 18.2124 26.6437 19.4316 26.1252C20.9323 25.4969 22.1046 24.0987 23.8397 22.4649C24.6213 21.7266 26.3251 21.3495 26.3251 21.3495C26.3251 21.3495 24.0742 20.4384 22.4485 20.894C20.8228 21.3495 19.119 21.5852 18.0717 21.161C16.8993 20.6897 16.1959 18.7889 16.1959 18.7889C16.1959 18.7889 17.6965 20.0456 18.9627 19.6215C20.2288 19.1973 22.9956 17.595 25.5748 18.2705C28.1697 18.946 27.2005 16.6053 24.9652 15.8198C24.0273 15.4899 22.1046 16.5895 22.1046 16.5895C22.1046 16.5895 23.3083 13.8404 26.2939 14.9557C34.5004 18.0034 36.0479 15.6627 36.0479 15.6627L48.0217 17.3907Z" fill="#330E01"/>
<path d="M60.1666 18.176C60.4792 18.7102 57.1185 25.1197 51.1941 23.8943C45.2698 22.669 40.0488 19.1343 36.8288 20.1555C33.6087 21.1766 31.3734 22.4176 28.6691 20.8153C26.8715 19.747 25.9492 18.2389 25.9492 18.2389C25.9492 18.2389 29.0443 20.2026 30.3417 19.9826C31.9361 19.7156 33.4211 18.6316 35.4688 17.4534C36.3911 16.9193 38.1418 16.9507 38.1418 16.9507C38.1418 16.9507 36.1722 15.5368 34.484 15.5997C32.7958 15.6625 31.092 15.4897 30.1541 14.8299C29.1224 14.0916 28.8723 12.0807 28.8723 12.0807C28.8723 12.0807 30.029 13.6517 31.3734 13.5417C32.7177 13.4318 35.7658 12.5206 38.1262 13.7774C40.4865 15.0498 40.0957 12.552 38.0949 11.2481C37.2508 10.6983 35.1405 11.3267 35.1405 11.3267C35.1405 11.3267 36.9538 8.93883 39.5955 10.714C46.8642 15.5997 46.5203 14.123 48.9275 13.6831C56.6964 12.2221 60.1666 18.1603 60.1666 18.1603V18.176Z" fill="#330E01"/>
<path d="M28.7321 38.2372C30.9517 38.5043 33.9999 39.6825 36.4071 45.0394C38.8144 50.4121 35.6881 53.8211 35.3442 56.0047C34.9847 58.2826 45.5516 68.1953 46.2081 70.3318C46.8646 72.4683 46.8177 74.7619 45.958 75.7673C45.0983 76.7728 43.0974 77.9667 41.8625 80.9829C40.6277 83.9992 39.8461 85.79 38.7675 86.0257C37.6889 86.2613 35.5161 87.3139 34.8596 87.7695C34.1875 88.225 33.3277 89.0733 33.3277 89.0733C33.3277 89.0733 32.171 83.6064 32.8119 83.8578C33.4528 84.1248 34.375 84.7532 34.7502 83.6221C35.1254 82.491 36.8292 81.4856 37.3294 80.8887C37.8296 80.2917 41.8782 75.4846 41.4561 73.3952C41.0497 71.3058 33.0464 65.5875 29.9826 62.8855C26.9188 60.1835 21.9167 57.5914 20.8694 54.9365C19.6345 51.7631 18.6497 47.4744 19.5407 44.7724C20.4474 42.0703 23.7456 37.6245 28.7164 38.2215L28.7321 38.2372Z" fill="#EFAE5D"/>
<path d="M-41.7037 38.2217C-40.0468 33.4617 -34.0599 28.8902 -24.1026 29.8171C-14.1453 30.744 -12.207 32.3306 2.3459 32.582C10.443 32.7234 13.7882 30.2256 18.6652 27.0679C24.0737 23.5804 33.6871 19.4488 39.9866 17.7679C45.9422 16.1655 53.7579 15.7728 57.4939 18.2549C61.2298 20.737 53.9768 32.2521 47.4897 33.6817C44.254 34.3886 35.8286 41.8035 36.0787 43.1388C36.3288 44.4741 38.5485 48.3858 36.9384 52.6117C35.3284 56.8376 24.9022 65.9334 12.7409 65.3836C0.57954 64.8337 -12.676 57.3088 -17.6468 56.6962C-22.6176 56.0835 -35.3573 59.5239 -39.3277 55.408C-43.2981 51.2921 -43.4544 43.3273 -41.6724 38.2217H-41.7037Z" fill="#F8B969"/>
<path d="M49.1154 17.6732C48.0368 20.061 47.7555 28.3242 49.6312 30.9163C51.507 33.5084 56.2434 34.451 58.3692 35.2679C60.5108 36.0848 62.3396 36.4461 63.1056 37.3887C63.8715 38.3312 63.9028 38.9753 64.403 39.3209C64.8876 39.6508 68.7329 39.4623 69.3738 39.0225C70.0147 38.5826 70.2805 37.2159 70.7963 36.5875C71.3121 35.9748 71.7342 34.6238 71.359 34.0739C70.9839 33.5241 70.0929 31.5918 68.9674 30.8849C67.8419 30.178 64.4655 26.3291 63.2932 24.9938C62.1364 23.6428 60.2763 19.307 57.744 18.0816C55.2117 16.872 50.491 14.5784 49.0998 17.6574L49.1154 17.6732Z" fill="#F8B969"/>
<path d="M52.5703 18.6791C51.7731 19.0718 50.5226 17.2024 50.6633 15.8357C50.8039 14.4689 51.6324 12.0497 52.5234 11.3741C53.4144 10.7143 53.0705 12.3953 53.6489 13.3535C54.2116 14.2961 55.212 17.3595 52.5703 18.6791Z" fill="#F8B969"/>
<path d="M61.6834 36.745C58.7759 36.745 52.0231 36.6978 46.8178 36.258C34.7503 35.2683 34.0938 28.9373 34.0625 28.6703L34.8441 28.6074C34.8441 28.6074 35.5319 34.5456 46.8803 35.4882C53.6175 36.038 62.9964 35.9595 63.0902 35.9595V36.745C63.0902 36.745 62.5587 36.745 61.6677 36.745H61.6834Z" fill="#191919"/>
<path d="M63.5742 33.5401C63.5742 33.5401 63.6055 32.1891 64.856 30.6339C65.9346 29.2986 66.8881 28.9844 66.8881 28.9844L68.0761 30.1783C68.0761 30.1783 66.9819 30.6496 66.2316 31.6393C65.4813 32.629 65.1374 34.2942 65.1374 34.2942L63.5742 33.5401Z" fill="#191919"/>
<path d="M63.1685 34.0422C63.106 33.948 53.055 25.6533 53.055 25.6533L52.4453 26.2974L62.5276 34.4978L63.1529 34.0265L63.1685 34.0422Z" fill="#191919"/>
<path d="M55.1027 34.2159C55.0401 34.1216 54.0241 32.1108 53.4457 28.9532C52.9455 26.204 53.5395 24.3817 54.1648 22.6694C54.79 20.957 57.1191 17.8151 57.1191 17.8151L55.8843 17.3281C55.8843 17.3281 52.3984 21.6325 52.0545 25.8113C51.7106 29.99 53.4614 33.6189 53.4614 33.6189L55.0714 34.2159H55.1027Z" fill="#191919"/>
<path d="M52.0866 25.8106C51.9303 25.8263 50.1796 24.2239 49.0854 22.1188C47.7723 19.6053 47.8505 16.919 47.8505 16.919L48.6477 16.7305C48.6477 16.7305 48.6477 19.8567 49.9139 22.1346C51.0081 24.114 52.2898 24.9623 52.2898 24.9623L52.1023 25.8263L52.0866 25.8106Z" fill="#191919"/>
<path d="M63.9502 36.8865C63.3562 36.8865 62.8091 36.588 62.4808 36.101C62.2151 35.7082 62.1213 35.237 62.2151 34.7657C62.3089 34.2944 62.5746 33.9016 62.9654 33.6346C63.747 33.1005 64.8881 33.3361 65.4196 34.1216C65.6853 34.5143 65.7791 34.9856 65.6853 35.4569C65.5915 35.9282 65.3258 36.3209 64.935 36.588C64.638 36.7922 64.3097 36.8865 63.9502 36.8865ZM63.9502 34.0116C63.7314 34.0116 63.5282 34.0745 63.3406 34.2001C63.0905 34.3572 62.9342 34.6086 62.8716 34.9071C62.8091 35.1898 62.8716 35.4883 63.0436 35.7397C63.3718 36.2267 64.0753 36.3681 64.5598 36.0382C64.8099 35.8811 64.9663 35.6297 65.0288 35.3312C65.0913 35.0484 65.0288 34.75 64.8568 34.4986C64.6536 34.2001 64.3097 34.0116 63.9502 34.0116Z" fill="#E8A900"/>
<path d="M28.2322 43.5782C30.3268 44.3323 33.0467 46.1703 34.2034 51.9357C35.3445 57.7011 32.5152 61.1101 30.7176 62.3825C28.92 63.655 25.6217 62.5554 25.1528 63.0424C24.6838 63.5293 30.6551 73.552 30.8114 75.7828C30.9677 78.0136 30.4206 80.2286 29.3576 81.0298C28.2947 81.831 26.075 82.5379 24.2149 85.1928C22.3547 87.8477 21.1824 89.4187 20.0725 89.4187C18.9627 89.4187 16.618 89.9528 15.8676 90.2356C15.1173 90.5184 14.0857 91.1625 14.0857 91.1625C14.0857 91.1625 14.1638 85.5699 14.7422 85.9626C15.3205 86.3553 16.0709 87.1722 16.6805 86.1668C17.2901 85.1614 19.1815 84.5487 19.8068 84.0932C20.4164 83.6219 25.4341 79.8359 25.4967 77.7151C25.5592 75.5943 19.0408 68.2108 16.6492 64.8961C14.2732 61.5814 13.1165 60.1047 14.6484 57.7011C16.1803 55.2975 16.3366 50.349 17.8216 47.914C19.3066 45.4791 23.5115 41.8973 28.2165 43.5939L28.2322 43.5782Z" fill="#F8B969"/>
<path d="M-11.7843 47.4589C-10.143 48.5428 -6.17258 49.7682 2.20591 50.2552C5.14463 50.428 11.6317 50.8678 18.4002 49.4854C21.6515 48.8256 16.2743 28.576 15.8366 28.6388C15.3989 28.7017 12.6947 31.4823 4.26927 32.0007C-6.71969 32.6605 -12.9254 31.4037 -12.9254 31.4037C-12.9254 31.4037 -13.41 46.3906 -11.7687 47.4746L-11.7843 47.4589Z" fill="#318401"/>
<path d="M6.62891 31.733C6.62891 31.733 8.72353 39.8392 9.11432 47.7254C9.63016 58.078 8.64537 65.2573 8.64537 65.2573L13.7569 65.7914C13.7569 65.7914 14.7417 57.8895 13.8507 46.8142C13.1629 38.3153 11.1308 31.0732 11.1308 31.0732L6.64454 31.733H6.62891Z" fill="black"/>
<path d="M15.5232 6.15824C14.304 5.70266 8.84857 6.48814 11.0995 6.20536C11.2089 6.20536 7.67621 6.62952 7.00405 6.66094C6.39442 6.69236 -0.811706 6.89658 -4.65706 10.0542C-5.28232 10.5726 -6.93926 11.1696 -6.54848 12.5206C-4.98532 15.8039 -1.89028 18.2232 1.53302 19.7941C2.64286 20.5325 3.64327 19.1972 4.78437 18.9615C7.09784 18.4902 11.1308 19.0244 14.0695 18.6159C17.0082 18.2075 18.9153 16.3694 19.4155 14.3272C19.9157 12.3007 18.9778 7.46213 15.5389 6.14253L15.5232 6.15824Z" fill="#FFBD39"/>
<path d="M-6.54763 12.5361C-9.26751 15.034 -11.5028 17.2804 -10.3461 20.8151C-9.39256 23.7213 -3.23375 23.5171 -0.935913 22.4489C0.23645 21.899 0.877345 20.8151 1.53387 19.8097C-1.88943 18.2544 -4.98448 15.8351 -6.54763 12.5361Z" fill="#DEDEDE"/>
<path d="M14.0537 9.75567C15.8044 9.00161 17.4457 10.714 18.7744 13.1961C20.1031 15.6782 23.4013 21.5693 23.6358 23.1088C23.8703 24.6483 22.4009 26.8477 20.6033 25.5438C18.8213 24.2399 14.1475 18.6473 13.0845 16.5579C12.0216 14.4685 10.2083 11.3895 14.0381 9.75567H14.0537Z" fill="#318401"/>
<path d="M37.4714 33.524C37.6121 33.3354 37.5652 33.0684 37.3776 32.927L35.9082 31.8273C35.7206 31.6859 35.4549 31.7331 35.3142 31.9216C35.1735 32.1101 35.2204 32.3772 35.408 32.5185L36.8774 33.6182C37.0649 33.7596 37.3307 33.7282 37.4714 33.524Z" fill="#DEDEDE"/>
<path d="M38.0026 32.9117C38.1433 32.7231 38.112 32.4561 37.9088 32.3147L36.4395 31.215C36.2519 31.0736 35.9862 31.1208 35.8455 31.3093C35.7048 31.4978 35.7517 31.7649 35.9393 31.9062L37.4086 33.0059C37.5962 33.1473 37.8776 33.1159 38.0183 32.9117H38.0026Z" fill="#DEDEDE"/>
<path d="M38.487 32.2993C38.6277 32.1108 38.5808 31.8438 38.3932 31.7024L36.9238 30.6027C36.7363 30.4613 36.4705 30.5085 36.3298 30.697C36.1892 30.8855 36.2361 31.1526 36.4236 31.2939L37.893 32.3936C38.0806 32.535 38.3463 32.4879 38.487 32.2993Z" fill="#DEDEDE"/>
<path d="M38.9089 31.6704C39.0496 31.4819 39.0027 31.2149 38.8151 31.0735L37.3457 29.9738C37.1581 29.8324 36.8924 29.8796 36.7517 30.0681C36.611 30.2566 36.6579 30.5236 36.8455 30.665L38.3149 31.7647C38.5025 31.9061 38.7682 31.859 38.9089 31.6704Z" fill="#DEDEDE"/>
<path d="M33.5161 28.1045C33.5161 28.1045 36.361 28.9057 36.8613 29.2042C37.3771 29.5026 38.9402 31.215 38.9402 31.215C38.9402 31.215 37.9242 31.4192 37.6585 31.8748C37.4084 32.3461 36.8613 33.6028 36.8613 33.6028C36.8613 33.6028 35.0011 32.8488 34.2821 32.2518C33.563 31.6391 32.3438 30.7751 32.3438 30.7751L33.5005 28.1045H33.5161Z" fill="#DEDEDE"/>
<path d="M26.3884 3.22017C25.3723 1.88485 21.949 0.20393 19.7763 2.26188C17.5878 4.31984 17.9474 6.80195 18.6508 8.42003C19.1979 9.69251 19.8075 10.4466 21.1206 11.342C21.3863 11.5305 23.9499 12.4574 24.5126 12.3631C24.8878 12.3003 25.6381 9.70822 25.7475 9.73963C25.8569 9.77105 26.1695 9.66109 26.2321 9.45686C26.3102 9.14267 26.3102 7.19469 26.4197 7.00617C26.5291 6.81766 27.5764 4.7597 26.404 3.22017H26.3884Z" fill="#FFBD95"/>
<path d="M26.9197 4.52452C26.9197 4.52452 25.1064 3.0164 22.199 4.87013C21.5737 5.26287 22.2146 7.55647 22.0427 7.71356C21.8551 7.88637 20.3232 5.81271 20.3545 6.07977C20.6515 8.64043 19.6198 9.83435 19.4009 9.81864C18.7288 9.7401 17.2594 5.93838 18.7757 3.3463C20.2919 0.754227 23.2932 1.00558 23.981 1.28835C24.6688 1.55541 26.779 2.10525 26.9197 4.54023V4.52452Z" fill="#F8B969"/>
<path d="M21.4334 6.83419C21.5272 7.65109 21.4647 8.71934 21.0114 8.76647C20.5581 8.8136 20.136 8.20093 20.0422 7.38403C19.9484 6.56713 20.2142 5.8602 20.6519 5.81307C21.0895 5.76594 21.324 6.0173 21.4178 6.83419H21.4334Z" fill="#FFBD95"/>
<path d="M19.166 6.72374C19.2598 6.72374 19.5412 8.65601 20.0883 9.64572C20.6354 10.6354 21.6671 11.6094 23.0583 12.1435C23.2771 12.2378 23.6835 12.2692 23.6835 12.2692C23.6835 12.2692 23.2771 11.8922 23.1833 11.8293C21.6671 10.9967 20.8699 9.95991 20.823 9.83423C20.7917 9.70856 21.6827 8.37324 22.1516 7.28928C22.3236 6.86512 22.5581 5.79688 22.5581 5.79688H21.9953C21.9953 5.79688 21.9172 6.51951 21.7452 6.94367C21.2294 8.21615 20.4165 9.19014 20.4165 9.19014C20.4165 9.19014 20.1508 8.59318 19.9476 8.01192C19.7288 7.35212 19.635 6.36242 19.635 6.36242L19.1348 6.70803L19.166 6.72374Z" fill="#383838"/>
<path d="M8.83306 47.5215C8.83306 47.5215 8.98938 48.7468 8.64548 49.5794C8.30159 50.412 7.9108 52.1558 7.87954 52.8156C7.84827 53.4754 8.98938 54.3551 8.98938 54.3551L10.9902 54.3866C10.9902 54.3866 10.49 50.9933 10.2555 49.9722C10.0211 48.9511 10.5213 47.7257 10.5213 47.7257L8.83306 47.5372V47.5215Z" fill="black"/>
<path d="M6.0663 33.3516C6.0663 33.3516 5.12841 36.4778 4.81578 39.8867C4.50315 43.2957 4.76889 45.1809 5.73804 45.4636C6.7072 45.7307 8.22345 45.8564 8.73929 46.6733C9.25513 47.5059 9.75534 48.4799 10.4588 48.4485C11.1622 48.417 11.3966 42.6516 11.3498 38.8656C11.3029 35.0796 10.49 33.8543 10.49 33.8543L6.0663 33.3516Z" fill="#191919"/>
<path d="M6.84845 26.0936C7.42682 25.7323 9.11502 25.8894 9.42765 26.2979C9.94349 26.9891 10.178 29.754 10.0217 30.3038C9.86534 30.8536 9.97476 33.1315 8.23966 33.32C6.50456 33.5086 6.25445 32.0947 6.16066 31.1364C6.06688 30.1781 5.67609 26.8163 6.83282 26.0779L6.84845 26.0936Z" fill="#303030"/>
<path d="M10.0366 28.9531C10.0366 28.9531 10.1773 32.5977 8.16085 32.6763C6.70712 32.7234 6.51954 31.3567 6.09749 31.3724C5.67544 31.3724 4.75318 31.8908 4.29987 31.7494C3.84655 31.608 2.2365 30.8069 1.62687 30.9482C1.01725 31.0896 -4.29747 32.3464 -4.14115 33.2104C-3.98484 34.0901 -0.702217 37.9233 2.92429 37.6091C6.55081 37.2949 7.4418 34.9856 8.23901 34.9228C9.03622 34.8599 11.2246 36.3995 12.0531 34.9385C12.4283 34.2787 13.0535 28.9845 10.021 28.9531H10.0366Z" fill="#191919"/>
<path d="M6.12967 27.5391C6.12967 27.5391 0.611742 30.9166 -2.07688 30.5396C-7.12586 29.8327 -7.8918 28.1989 -9.3299 29.1886C-10.0333 29.6756 -8.7828 32.896 -6.17233 33.2259C-3.56187 33.5715 7.77098 32.6447 7.77098 32.6447C7.77098 32.6447 6.59861 32.1263 6.31724 30.2254C6.06714 28.5916 6.1453 27.5391 6.1453 27.5391H6.12967Z" fill="#303030"/>
<path d="M28.5127 5.49876C28.5752 5.16885 27.5436 4.76041 27.5436 4.49334C27.5748 3.22087 27.0746 0.707339 23.7138 0.110376C18.9931 -0.737941 16.539 3.67645 17.4769 6.48846C17.6801 7.08542 18.0083 7.79235 18.0865 7.8709C18.3366 8.10654 18.7118 7.28965 20.0717 6.78694C21.1659 6.37849 22.307 6.08001 23.2762 6.04859C25.3239 6.00146 28.4189 5.89149 28.4971 5.48305L28.5127 5.49876Z" fill="#318401"/>
<path d="M-9.62695 17.7835C-8.81411 16.4168 -6.71949 16.1812 -4.9375 16.4639C-3.15551 16.7467 1.17442 19.8572 3.11273 21.3967C5.05103 22.9363 10.1938 28.2932 10.3657 29.9585C10.5377 31.6237 9.11523 33.8701 6.30156 32.5505C3.50352 31.2309 -2.73346 27.7905 -5.25013 25.9525C-7.7668 24.1145 -12.1124 21.9309 -9.64259 17.7993L-9.62695 17.7835Z" fill="#DEDEDE"/>
<path d="M9.17624 29.2196C7.48804 28.8269 3.11121 32.3144 2.26711 37.0273C1.40738 41.7401 1.92322 46.8457 1.75127 47.6469C1.57932 48.4481 0.657064 50.1762 1.29796 50.7417C1.92322 51.323 5.40905 50.5689 5.40905 49.8777C5.40905 49.1865 5.12768 49.4221 5.34652 47.7569C5.58099 46.0917 7.97262 37.9856 8.59788 36.1475C9.22314 34.3095 11.9118 29.8323 9.17624 29.2039V29.2196Z" fill="#DEDEDE"/>
<path d="M2.76876 50.3647C2.1435 49.7834 3.05012 48.0711 3.22207 47.2699C3.39402 46.4687 2.87818 41.3474 3.73791 36.6502C4.11307 34.608 5.14474 32.8014 6.31711 31.4347C3.20644 29.848 -1.6237 27.1302 -3.74958 25.5593C-5.46905 24.3025 -8.03262 22.8887 -8.70477 20.7993C-8.7673 20.6736 -8.82982 20.5636 -8.87672 20.4223C-9.87714 17.3746 -8.36088 15.3009 -6.17247 13.1801C-6.29752 12.9602 -6.43821 12.7717 -6.54763 12.5518C-9.26751 15.0496 -11.5028 17.296 -10.3461 20.8307C-10.2992 20.9564 -10.2367 21.0821 -10.1741 21.2077C-9.50198 23.2971 -6.93841 24.711 -5.21894 25.9677C-3.07743 27.5387 1.73708 30.2564 4.84775 31.8431C3.65975 33.2098 2.62807 35.0164 2.26855 37.0587C1.40881 41.7715 1.92466 46.8772 1.75271 47.6783C1.58076 48.4795 0.658502 50.2076 1.29939 50.7731C1.75271 51.1816 3.62849 50.9145 4.6758 50.4904C3.84733 50.6317 3.0345 50.6317 2.76876 50.3804V50.3647Z" fill="#C2C2C2"/>
<path d="M2.95517 34.2157C2.95517 34.2157 1.75154 36.902 1.51706 39.5255C1.28259 42.149 1.76717 46.7833 1.51706 47.3175C1.26696 47.8516 0.610441 50.1295 0.641704 50.6479C0.672967 51.1663 1.20443 52.156 1.2357 52.3445C1.26696 52.533 1.31386 53.3185 1.31386 53.3185L4.70589 53.7113L4.98726 52.9886C4.98726 52.9886 7.91035 53.8998 10.005 53.8369C12.084 53.7741 13.6471 53.507 13.8503 53.1143C14.0535 52.7216 13.7878 51.9989 12.0214 51.8104C10.2551 51.6219 6.86304 49.3911 6.05021 48.8099C5.23737 48.2129 8.50435 36.8235 8.50435 36.8235C8.50435 36.8235 8.25425 34.5613 6.9412 33.9486C5.42495 33.226 2.9708 34.2157 2.9708 34.2157H2.95517Z" fill="black"/>
<path d="M8.95866 48.0866L11.1158 48.3379C11.3503 48.3693 11.5691 48.1651 11.6004 47.898C11.6316 47.631 11.4441 47.3953 11.2096 47.3639L9.05244 47.1126C8.81797 47.0812 8.59913 47.2854 8.56787 47.5524C8.53661 47.8195 8.72418 48.0551 8.95866 48.0866Z" fill="#303030"/>
<path d="M11.2567 47.7884L9.39656 47.7256C9.39656 47.7256 9.3653 48.9824 9.44345 49.5479C9.52161 50.1134 9.72482 52.6113 9.49035 53.381C9.25588 54.1508 9.20898 54.355 9.20898 54.355H11.5224C11.5224 54.355 11.7882 53.3339 11.71 52.3285C11.6319 51.3231 11.1473 49.9092 11.1317 49.2965C11.1317 48.6839 11.2723 47.8041 11.2723 47.8041L11.2567 47.7884Z" fill="#303030"/>
<path d="M16.742 13.7306C17.2578 14.6732 17.1015 15.7729 16.3825 16.1656C15.6634 16.5583 14.663 16.1028 14.1471 15.1602C13.6313 14.2176 13.7876 13.1179 14.5067 12.7252C15.2257 12.3325 16.2261 12.788 16.742 13.7306Z" fill="#DEDEDE"/>
<path d="M6.83254 24.9935C5.44133 23.4854 3.97197 22.0873 3.12787 21.4117C2.65892 21.0347 2.04929 20.5634 1.36151 20.0764C1.42403 19.9979 1.47093 19.9036 1.53345 19.8251C0.720616 19.448 -0.0609634 19.0396 -0.826908 18.5683C-0.95196 18.4898 -1.06138 18.4112 -1.18643 18.3327C-2.07743 17.7671 -2.87463 17.1073 -3.64058 16.4004C-3.92195 16.8403 -3.96884 17.4215 -3.28105 18.097C-1.62411 19.7308 7.09827 25.3234 7.1608 25.3706C7.05138 25.2449 6.92633 25.1192 6.81691 24.9935H6.83254Z" fill="#C2C2C2"/>
<path d="M33.9383 28.2303C33.9383 28.2303 31.4842 26.0153 28.6236 24.3658C25.763 22.7163 22.4804 21.8051 21.1205 22.6691C19.7605 23.5332 19.8387 25.2141 21.4331 26.3923C23.0275 27.5548 32.0469 30.9952 32.3439 31.0266C32.6409 31.058 33.9383 28.246 33.9383 28.246V28.2303Z" fill="#318401"/>
<ellipse cx="57.4269" cy="24.8965" rx="1.39175" ry="0.463909" fill="#1F2326"/>
</g>
<defs>
<clipPath id="clip0_2239_21942">
<rect width="150" height="96.8023" fill="white" transform="translate(-78.5)"/>
</clipPath>
</defs>
</svg>
