<svg width="118" height="100" viewBox="0 0 118 100" fill="none" xmlns="http://www.w3.org/2000/svg">
<path d="M47.1468 8.78115C48.0449 6.01722 51.9551 6.01722 52.8532 8.78115L60.5522 32.4762C60.9538 33.7123 62.1056 34.5491 63.4053 34.5491H88.3198C91.226 34.5491 92.4343 38.268 90.0831 39.9762L69.9269 54.6205C68.8755 55.3845 68.4355 56.7386 68.8371 57.9746L76.5361 81.6697C77.4342 84.4336 74.2707 86.732 71.9196 85.0238L51.7634 70.3794C50.7119 69.6155 49.2881 69.6155 48.2366 70.3794L28.0804 85.0238C25.7293 86.732 22.5658 84.4336 23.4639 81.6697L31.1629 57.9746C31.5645 56.7386 31.1245 55.3845 30.0731 54.6205L9.91686 39.9762C7.56572 38.268 8.77405 34.5491 11.6802 34.5491H36.5947C37.8944 34.5491 39.0462 33.7123 39.4478 32.4762L47.1468 8.78115Z" fill="#8F211D"/>
<g filter="url(#filter0_d_2239_36778)">
<path d="M65.1468 8.78115C66.0449 6.01722 69.9551 6.01722 70.8532 8.78115L78.5522 32.4762C78.9538 33.7123 80.1056 34.5491 81.4053 34.5491H106.32C109.226 34.5491 110.434 38.268 108.083 39.9762L87.9269 54.6205C86.8755 55.3845 86.4355 56.7386 86.8371 57.9746L94.5361 81.6697C95.4342 84.4336 92.2707 86.732 89.9196 85.0238L69.7634 70.3794C68.7119 69.6155 67.2881 69.6155 66.2366 70.3794L46.0804 85.0238C43.7293 86.732 40.5658 84.4336 41.4639 81.6697L49.1629 57.9746C49.5645 56.7386 49.1245 55.3845 48.0731 54.6205L27.9169 39.9762C25.5657 38.268 26.7741 34.5491 29.6802 34.5491H54.5947C55.8944 34.5491 57.0462 33.7123 57.4478 32.4762L65.1468 8.78115Z" fill="#FFEB3A"/>
<path d="M58.8655 56.144V45.056H61.9615V56.144H58.8655ZM54.7135 52.064V49.136H66.1375V52.064H54.7135ZM67.7462 59V56.48L74.2262 50.36C74.7382 49.896 75.1142 49.48 75.3542 49.112C75.5942 48.744 75.7542 48.408 75.8342 48.104C75.9302 47.8 75.9782 47.52 75.9782 47.264C75.9782 46.592 75.7462 46.08 75.2822 45.728C74.8342 45.36 74.1702 45.176 73.2902 45.176C72.5862 45.176 71.9302 45.312 71.3222 45.584C70.7302 45.856 70.2262 46.28 69.8102 46.856L66.9782 45.032C67.6182 44.072 68.5142 43.312 69.6662 42.752C70.8182 42.192 72.1462 41.912 73.6502 41.912C74.8982 41.912 75.9862 42.12 76.9142 42.536C77.8582 42.936 78.5862 43.504 79.0982 44.24C79.6262 44.976 79.8902 45.856 79.8902 46.88C79.8902 47.424 79.8182 47.968 79.6742 48.512C79.5462 49.04 79.2742 49.6 78.8582 50.192C78.4582 50.784 77.8662 51.448 77.0822 52.184L71.7062 57.248L70.9622 55.832H80.4422V59H67.7462Z" fill="#8F211D"/>
</g>
<defs>
<filter id="filter0_d_2239_36778" x="22.6738" y="6.70801" width="90.6523" height="86.9023" filterUnits="userSpaceOnUse" color-interpolation-filters="sRGB">
<feFlood flood-opacity="0" result="BackgroundImageFix"/>
<feColorMatrix in="SourceAlpha" type="matrix" values="0 0 0 0 0 0 0 0 0 0 0 0 0 0 0 0 0 0 127 0" result="hardAlpha"/>
<feOffset dy="4"/>
<feGaussianBlur stdDeviation="2"/>
<feComposite in2="hardAlpha" operator="out"/>
<feColorMatrix type="matrix" values="0 0 0 0 0 0 0 0 0 0 0 0 0 0 0 0 0 0 0.25 0"/>
<feBlend mode="normal" in2="BackgroundImageFix" result="effect1_dropShadow_2239_36778"/>
<feBlend mode="normal" in="SourceGraphic" in2="effect1_dropShadow_2239_36778" result="shape"/>
</filter>
</defs>
</svg>
