<svg width="150" height="107" viewBox="0 0 150 107" fill="none" xmlns="http://www.w3.org/2000/svg">
<g clip-path="url(#clip0_2239_30860)">
<path d="M93.7257 16.48C93.7257 16.48 95.0701 15.5918 95.9454 15.1989C98.1495 14.1912 100.838 13.4054 100.838 13.4054L100.338 6.26562C100.338 6.26562 98.3058 8.98149 94.4448 9.03273C93.5694 11.2532 92.866 14.1228 93.7101 16.48H93.7257Z" fill="#FFA47C"/>
<path d="M44.6438 39.0605C44.6438 39.0605 45.3316 32.194 39.0477 30.3322C32.9201 28.5216 23.8851 37.5403 12.1928 35.6273C7.83157 34.9099 3.37659 25.9766 3.37659 25.9766C3.37659 25.9766 2.18859 28.9999 2.84512 32.0744C3.50164 35.149 4.59585 36.4642 4.59585 36.4642C4.68963 36.8229 2.62627 35.8835 1.53207 34.6195C0.875545 33.8679 0.156496 31.8011 0.156496 31.8011C0.156496 31.8011 -1.09403 36.9767 3.61106 41.2469C3.90806 41.5202 0.500389 42.4084 0.500389 42.4084C0.500389 42.4084 2.28238 45.6025 5.8151 47.8059C8.9883 49.7873 12.99 50.8293 12.99 50.8293L7.65962 53.6305C7.65962 53.6305 13.2713 54.4333 14.9439 54.2967C16.1163 54.2113 19.055 52.7936 19.055 52.7936L16.7259 56.2268C16.7259 56.2268 20.0241 57.3029 27.6054 52.4349C35.2023 47.5839 44.6438 39.0264 44.6438 39.0264V39.0605Z" fill="#330E01"/>
<path d="M114.642 22.0479C115.158 22.4236 114.892 30.2979 109.014 31.8864C103.153 33.4921 96.9156 32.5014 94.4615 35.0293C91.9917 37.5573 90.5223 39.8291 87.396 39.5387C85.3014 39.3337 83.832 38.3089 83.832 38.3089C83.832 38.3089 87.4585 38.77 88.5527 37.9331C89.8814 36.9082 90.7412 35.166 92.0855 33.0309C92.6951 32.0743 94.2895 31.2715 94.2895 31.2715C94.2895 31.2715 91.8979 30.8274 90.4129 31.6815C88.9279 32.5355 87.3022 33.1846 86.1924 32.9796C84.9419 32.7576 83.8633 30.8958 83.8633 30.8958C83.8633 30.8958 85.5828 31.8864 86.7395 31.152C87.8962 30.4175 90.2566 28.0603 92.9296 28.1799C95.6026 28.2995 94.1645 26.0448 91.8197 25.7202C90.8193 25.5836 89.1936 27.2063 89.1936 27.2063C89.1936 27.2063 89.8033 24.0122 92.9452 24.4904C101.605 25.8227 102.637 22.9873 102.637 22.9873L114.704 22.0479H114.642Z" fill="#330E01"/>
<path d="M126.522 19.691C126.944 20.1692 125.162 27.8044 119.128 28.0094C113.079 28.2144 107.185 25.8059 104.294 27.719C101.386 29.615 99.5104 31.4939 96.5092 30.4861C94.5083 29.8029 93.2578 28.4535 93.2578 28.4535C93.2578 28.4535 96.7124 29.7516 97.9316 29.188C99.4323 28.5047 100.605 26.9845 102.34 25.2081C103.121 24.4053 104.825 23.9954 104.825 23.9954C104.825 23.9954 102.574 23.0047 100.949 23.5C99.3228 23.9954 97.619 24.2516 96.5717 23.7904C95.3993 23.278 94.6959 21.2112 94.6959 21.2112C94.6959 21.2112 96.1965 22.5777 97.4627 22.1165C98.7288 21.6553 101.496 19.913 104.075 20.6475C106.67 21.382 105.701 18.8369 103.465 17.9829C102.527 17.6242 100.605 18.8199 100.605 18.8199C100.605 18.8199 101.808 15.8307 104.794 17.0434C113 20.3571 114.548 17.8121 114.548 17.8121L126.522 19.691Z" fill="#330E01"/>
<path d="M138.667 20.5449C138.979 21.1256 135.618 28.0946 129.694 26.7623C123.77 25.43 118.549 21.5868 115.329 22.6971C112.109 23.8073 109.873 25.1567 107.169 23.4145C105.371 22.253 104.449 20.6132 104.449 20.6132C104.449 20.6132 107.544 22.7483 108.842 22.5092C110.436 22.2188 111.921 21.0402 113.969 19.7592C114.891 19.1784 116.642 19.2126 116.642 19.2126C116.642 19.2126 114.672 17.6753 112.984 17.7436C111.296 17.8119 109.592 17.6241 108.654 16.9067C107.622 16.1039 107.372 13.9175 107.372 13.9175C107.372 13.9175 108.529 15.6256 109.873 15.506C111.218 15.3865 114.266 14.3958 116.626 15.7622C118.987 17.1458 118.596 14.4299 116.595 13.0122C115.751 12.4144 113.641 13.0976 113.641 13.0976C113.641 13.0976 115.454 10.5013 118.096 12.4315C125.364 17.7436 125.02 16.138 127.428 15.6597C135.196 14.0712 138.667 20.5278 138.667 20.5278V20.5449Z" fill="#330E01"/>
<path d="M52.9289 39.3001C59.0721 36.9258 66.4815 42.4601 69.2639 46.5082C72.0619 50.5564 71.5617 58.4478 70.5144 61.232C67.5131 69.2258 63.2457 76.861 63.449 77.4588C63.8085 78.5007 75.751 94.2323 76.4075 96.3503C76.6888 97.2727 77.5642 99.8006 77.7049 100.279C77.8456 100.757 72.8435 101.56 72.8435 101.56C72.8435 101.56 71.1709 98.2975 71.0146 97.1189C70.3581 91.9947 56.743 82.0023 56.024 80.7896C55.3049 79.5768 57.0557 73.1544 56.2272 70.8827C55.3987 68.6109 46.7545 63.145 44.5036 59.1481C42.2683 55.1512 41.0646 43.8778 52.9133 39.3001H52.9289Z" fill="#6F2200"/>
<path d="M72.3265 100.825C72.3265 100.825 72.1701 103.148 72.514 103.456C72.8579 103.763 79.1418 106.428 80.0328 105.984C80.9238 105.54 78.9386 102.755 78.6729 101.765C78.4071 100.774 77.3129 99.1855 77.3129 99.1855L72.3108 100.825H72.3265Z" fill="#303030"/>
<path d="M107.232 42.3576C109.452 42.648 112.5 43.929 114.907 49.7536C117.314 55.5953 114.188 59.3018 113.844 61.6761C113.485 64.1528 124.052 74.9309 124.708 77.2539C125.365 79.5769 125.318 82.0707 124.458 83.1638C123.598 84.257 121.597 85.5552 120.363 88.8347C119.128 92.1142 118.346 94.0615 117.267 94.3177C116.189 94.5739 114.016 95.7183 113.36 96.2137C112.687 96.709 111.828 97.6314 111.828 97.6314C111.828 97.6314 110.671 91.6872 111.312 91.9605C111.953 92.2509 112.875 92.9341 113.25 91.7043C113.625 90.4745 115.329 89.3813 115.829 88.7322C116.33 88.0831 120.378 82.8564 119.956 80.5846C119.55 78.3129 111.546 72.0954 108.483 69.1575C105.419 66.2196 100.417 63.4013 99.3694 60.5146C98.1345 57.0642 97.1497 52.4012 98.0407 49.4632C98.9474 46.5253 102.246 41.6914 107.216 42.3405L107.232 42.3576Z" fill="#6F2200"/>
<path d="M36.7963 42.3404C38.4532 37.1649 44.4401 32.1943 54.3974 33.2021C64.3547 34.2099 66.293 35.935 80.8459 36.2083C88.943 36.3621 92.2882 33.6462 97.1652 30.2129C102.574 26.421 112.187 21.9287 118.487 20.1011C124.442 18.3588 132.258 17.9318 135.994 20.6306C139.73 23.3293 132.477 35.8496 125.99 37.404C122.754 38.1726 114.329 46.2348 114.579 47.6867C114.829 49.1386 117.048 53.3917 115.438 57.9865C113.828 62.5812 103.402 72.4711 91.2409 71.8732C79.0795 71.2754 65.824 63.0937 60.8532 62.4275C55.8824 61.7614 43.1427 65.5021 39.1723 61.0269C35.2019 56.5517 35.0456 47.8917 36.8276 42.3404H36.7963Z" fill="#97380E"/>
<path d="M111.313 91.9769C111.313 91.9769 109.422 90.6958 108.843 91.2595C108.265 91.8232 106.592 97.5282 106.749 98.4506C106.905 99.3729 108.546 98.536 109.406 98.3822C110.25 98.2114 111.844 97.6478 111.844 97.6478L111.329 91.9769H111.313Z" fill="#191919"/>
<path d="M127.615 19.9983C126.537 22.5946 126.255 31.5791 128.131 34.3975C130.007 37.2158 134.743 38.2407 136.869 39.1289C139.011 40.0171 140.84 40.4099 141.606 41.4348C142.372 42.4596 142.403 43.16 142.903 43.5357C143.388 43.8944 147.233 43.6895 147.874 43.2112C148.515 42.7329 148.78 41.2469 149.296 40.5637C149.812 39.8975 150.234 38.4286 149.859 37.8307C149.484 37.2329 148.593 35.1319 147.467 34.3633C146.342 33.5947 142.966 29.4098 141.793 27.958C140.636 26.489 138.776 21.7747 136.244 20.4424C133.712 19.1271 128.991 16.6333 127.6 19.9812L127.615 19.9983Z" fill="#97380E"/>
<path d="M131.07 21.0915C130.273 21.5186 129.023 19.4859 129.163 17.9999C129.304 16.5138 130.132 13.8834 131.023 13.1489C131.914 12.4315 131.571 14.2592 132.149 15.3011C132.712 16.326 133.712 19.6567 131.07 21.0915Z" fill="#6F2200"/>
<path d="M140.183 40.7346C137.276 40.7346 130.523 40.6834 125.318 40.2051C113.25 39.129 112.594 32.2454 112.562 31.955L113.344 31.8867C113.344 31.8867 114.032 38.3433 125.38 39.3682C132.118 39.966 141.496 39.8806 141.59 39.8806V40.7346C141.59 40.7346 141.059 40.7346 140.168 40.7346H140.183Z" fill="#191919"/>
<path d="M142.074 37.2503C142.074 37.2503 142.105 35.7814 143.356 34.0904C144.435 32.6385 145.388 32.2969 145.388 32.2969L146.576 33.595C146.576 33.595 145.482 34.1074 144.732 35.1835C143.981 36.2596 143.637 38.0702 143.637 38.0702L142.074 37.2503Z" fill="#191919"/>
<path d="M141.669 37.797C141.606 37.6945 131.555 28.6758 131.555 28.6758L130.945 29.3761L141.028 38.2923L141.653 37.7799L141.669 37.797Z" fill="#191919"/>
<path d="M133.603 37.984C133.54 37.8815 132.524 35.6952 131.946 32.2619C131.446 29.2728 132.04 27.2914 132.665 25.4296C133.29 23.5678 135.619 20.1516 135.619 20.1516L134.384 19.6221C134.384 19.6221 130.898 24.3022 130.555 28.8458C130.211 33.3893 131.961 37.335 131.961 37.335L133.571 37.984H133.603Z" fill="#191919"/>
<path d="M130.587 28.8464C130.43 28.8635 128.68 27.1212 127.585 24.8324C126.272 22.0994 126.35 19.1786 126.35 19.1786L127.148 18.9736C127.148 18.9736 127.148 22.3727 128.414 24.8495C129.508 27.0017 130.79 27.924 130.79 27.924L130.602 28.8635L130.587 28.8464Z" fill="#191919"/>
<path d="M142.45 40.8878C141.856 40.8878 141.309 40.5633 140.981 40.0338C140.715 39.6068 140.621 39.0944 140.715 38.5819C140.809 38.0695 141.075 37.6425 141.465 37.3521C142.247 36.7714 143.388 37.0276 143.92 37.8816C144.185 38.3086 144.279 38.8211 144.185 39.3335C144.092 39.8459 143.826 40.2729 143.435 40.5633C143.138 40.7854 142.81 40.8878 142.45 40.8878ZM142.45 37.762C142.231 37.762 142.028 37.8304 141.841 37.967C141.59 38.1378 141.434 38.4111 141.372 38.7357C141.309 39.0431 141.372 39.3676 141.544 39.6409C141.872 40.1704 142.575 40.3242 143.06 39.9655C143.31 39.7947 143.466 39.5214 143.529 39.1968C143.591 38.8894 143.529 38.5648 143.357 38.2915C143.154 37.967 142.81 37.762 142.45 37.762Z" fill="#E8A900"/>
<path d="M106.732 48.1651C108.827 48.985 111.547 50.9835 112.703 57.2521C113.845 63.5208 111.015 67.2274 109.218 68.6109C107.42 69.9945 104.122 68.7988 103.653 69.3283C103.184 69.8578 109.155 80.7555 109.311 83.1809C109.468 85.6064 108.921 88.0148 107.858 88.886C106.795 89.7571 104.575 90.5257 102.715 93.4124C100.855 96.2991 99.6824 98.0071 98.5725 98.0071C97.4627 98.0071 95.118 98.5879 94.3676 98.8954C93.6173 99.2028 92.5857 99.9031 92.5857 99.9031C92.5857 99.9031 92.6638 93.8223 93.2422 94.2494C93.8205 94.6764 94.5709 95.5646 95.1805 94.4714C95.7901 93.3782 97.6815 92.7121 98.3068 92.2167C98.9164 91.7043 103.934 87.5878 103.997 85.2819C104.059 82.976 97.5408 74.9479 95.1492 71.3439C92.7732 67.7398 91.6165 66.1342 93.1484 63.5208C94.6803 60.9074 94.8366 55.527 96.3216 52.8794C97.8066 50.2319 102.011 46.3374 106.717 48.1822L106.732 48.1651Z" fill="#97380E"/>
<path d="M93.2572 94.2494C93.2572 94.2494 91.6784 92.5413 90.9907 92.9512C90.3029 93.3612 87.5205 98.5025 87.4736 99.442C87.4267 100.381 89.2087 99.9715 90.0684 100.023C90.9281 100.074 92.6007 99.9031 92.6007 99.9031L93.2572 94.2494Z" fill="#303030"/>
<path d="M51.2249 38.8893C57.9933 39.1455 63.2143 47.5835 64.496 52.6565C65.7778 57.7295 62.5421 65.1597 60.5725 67.4144C54.8827 73.888 48.4894 78.7048 48.4894 79.371C48.4737 80.5154 60.6663 86.2375 61.2759 87.0062C61.8856 87.7748 63.4018 94.6926 63.3706 95.205C63.3393 95.7174 58.3841 92.8649 58.3841 92.8649C58.3841 92.8649 58.3372 91.3447 57.3993 90.6615C56.4614 89.9782 40.0171 81.7453 39.7357 80.2763C39.47 78.8073 44.9097 74.1613 44.9097 71.6163C44.9097 69.0712 36.9377 59.3522 36.1717 54.5525C35.4058 49.7527 38.1726 38.3598 51.2405 38.8722L51.2249 38.8893Z" fill="#97380E"/>
<path d="M58.368 92.8652C58.368 92.8652 56.8205 94.6075 56.9143 95.1028C57.008 95.5982 59.8842 101.081 60.869 101.372C61.8538 101.662 62.4634 99.2364 62.8542 98.2628C63.2606 97.2892 63.3388 95.2224 63.3388 95.2224L58.3524 92.8823L58.368 92.8652Z" fill="#303030"/>
<path d="M66.7157 52.384C68.357 53.5625 72.3274 54.8949 80.7059 55.4244C83.6446 55.6123 90.1317 56.0905 96.9002 54.5874C100.152 53.87 94.7743 31.8527 94.3366 31.9211C93.8989 31.9894 91.1947 35.0127 82.7693 35.5764C71.7803 36.2938 65.5746 34.9273 65.5746 34.9273C65.5746 34.9273 65.09 51.2225 66.7313 52.401L66.7157 52.384Z" fill="#7A63FF"/>
<path d="M85.1289 35.2858C85.1289 35.2858 87.2235 44.0995 87.6143 52.6741C88.1302 63.9304 87.1454 71.7364 87.1454 71.7364L92.2569 72.3171C92.2569 72.3171 93.2417 63.7254 92.3507 51.6834C91.6629 42.4427 89.6308 34.5684 89.6308 34.5684L85.1445 35.2858H85.1289Z" fill="black"/>
<path d="M94.0232 7.47758C92.804 6.98223 87.3486 7.83628 89.5995 7.52882C89.7089 7.52882 86.1762 7.99001 85.5041 8.02417C84.8944 8.05833 77.6883 8.28038 73.8429 11.7136C73.2177 12.2773 71.5607 12.9264 71.9515 14.3953C73.5147 17.9653 76.6097 20.5957 80.033 22.3038C81.1429 23.1066 82.1433 21.6547 83.2844 21.3985C85.5978 20.8861 89.6308 21.4668 92.5695 21.0227C95.5082 20.5786 97.4153 18.5802 97.9155 16.3596C98.4157 14.1562 97.4778 8.89529 94.0389 7.4605L94.0232 7.47758Z" fill="#213C9B"/>
<path d="M71.9524 14.4131C69.2325 17.1289 66.9972 19.5715 68.1539 23.4147C69.1074 26.5747 75.2663 26.3526 77.5641 25.1911C78.7365 24.5933 79.3773 23.4147 80.0339 22.3215C76.6106 20.6305 73.5155 18.0001 71.9524 14.4131Z" fill="#DEDEDE"/>
<path d="M92.5537 11.3895C94.3044 10.5696 95.9457 12.4314 97.2744 15.1302C98.6031 17.829 101.901 24.2343 102.136 25.9083C102.37 27.5822 100.901 29.9735 99.1033 28.5558C97.3213 27.1381 92.6475 21.0573 91.5845 18.7855C90.5216 16.5138 88.7083 13.1659 92.5381 11.3895H92.5537Z" fill="#7A63FF"/>
<path d="M115.971 37.2329C116.112 37.028 116.065 36.7376 115.878 36.5839L114.408 35.3882C114.221 35.2345 113.955 35.2857 113.814 35.4907C113.674 35.6957 113.72 35.986 113.908 36.1398L115.377 37.3354C115.565 37.4892 115.831 37.455 115.971 37.2329Z" fill="#DEDEDE"/>
<path d="M116.503 36.5669C116.643 36.362 116.612 36.0716 116.409 35.9179L114.939 34.7222C114.752 34.5685 114.486 34.6197 114.345 34.8247C114.205 35.0297 114.252 35.32 114.439 35.4738L115.909 36.6694C116.096 36.8231 116.378 36.789 116.518 36.5669H116.503Z" fill="#DEDEDE"/>
<path d="M116.987 35.9009C117.128 35.6959 117.081 35.4056 116.893 35.2518L115.424 34.0562C115.236 33.9025 114.971 33.9537 114.83 34.1587C114.689 34.3636 114.736 34.654 114.924 34.8077L116.393 36.0034C116.581 36.1571 116.846 36.1059 116.987 35.9009Z" fill="#DEDEDE"/>
<path d="M117.409 35.2173C117.55 35.0124 117.503 34.722 117.315 34.5683L115.846 33.3726C115.658 33.2189 115.392 33.2701 115.252 33.4751C115.111 33.68 115.158 33.9704 115.346 34.1241L116.815 35.3198C117.002 35.4735 117.268 35.4223 117.409 35.2173Z" fill="#DEDEDE"/>
<path d="M112.016 31.3398C112.016 31.3398 114.861 32.211 115.361 32.5355C115.877 32.86 117.44 34.7219 117.44 34.7219C117.44 34.7219 116.424 34.9439 116.158 35.4393C115.908 35.9517 115.361 37.3182 115.361 37.3182C115.361 37.3182 113.501 36.4983 112.782 35.8492C112.063 35.183 110.844 34.2436 110.844 34.2436L112 31.3398H112.016Z" fill="#DEDEDE"/>
<path d="M104.888 4.28437C103.872 2.83249 100.449 1.00484 98.2763 3.24243C96.0878 5.48003 96.4474 8.17881 97.1508 9.93815C97.6979 11.3217 98.3075 12.1416 99.6206 13.1152C99.8863 13.3202 102.45 14.3279 103.013 14.2255C103.388 14.1571 104.138 11.3388 104.247 11.3729C104.357 11.4071 104.67 11.2875 104.732 11.0655C104.81 10.7239 104.81 8.60584 104.92 8.40087C105.029 8.19589 106.076 5.9583 104.904 4.28437H104.888Z" fill="#FFBD95"/>
<path d="M105.42 5.70176C105.42 5.70176 103.606 4.06199 100.699 6.07753C100.074 6.50456 100.715 8.99837 100.543 9.16918C100.355 9.35707 98.8232 7.10239 98.8545 7.39276C99.1515 10.177 98.1198 11.4751 97.9009 11.458C97.2288 11.3726 95.7594 7.23904 97.2757 4.42069C98.7919 1.60234 101.793 1.87563 102.481 2.18309C103.169 2.47347 105.279 3.0713 105.42 5.71884V5.70176Z" fill="#8D3B26"/>
<path d="M99.9334 8.21287C100.027 9.10108 99.9647 10.2626 99.5114 10.3138C99.0581 10.3651 98.636 9.69891 98.5422 8.8107C98.4484 7.92249 98.7142 7.15385 99.1519 7.10261C99.5895 7.05137 99.824 7.32466 99.9178 8.21287H99.9334Z" fill="#FFBD95"/>
<path d="M97.666 8.09273C97.7598 8.09273 98.0412 10.1937 98.5883 11.2698C99.1354 12.3459 100.167 13.4049 101.558 13.9856C101.777 14.0881 102.184 14.1223 102.184 14.1223C102.184 14.1223 101.777 13.7123 101.683 13.644C100.167 12.7387 99.3699 11.6114 99.323 11.4748C99.2917 11.3381 100.183 9.88623 100.652 8.70765C100.824 8.24646 101.058 7.08496 101.058 7.08496H100.495C100.495 7.08496 100.417 7.87068 100.245 8.33187C99.7294 9.71542 98.9165 10.7744 98.9165 10.7744C98.9165 10.7744 98.6508 10.1254 98.4476 9.49337C98.2288 8.77597 98.135 7.69987 98.135 7.69987L97.6348 8.07565L97.666 8.09273Z" fill="#383838"/>
<path d="M87.3331 52.4512C87.3331 52.4512 87.4894 53.7835 87.1455 54.6888C86.8016 55.5941 86.4108 57.49 86.3795 58.2074C86.3483 58.9248 87.4894 59.8814 87.4894 59.8814L89.4902 59.9155C89.4902 59.9155 88.99 56.226 88.7555 55.1158C88.5211 54.0055 89.0213 52.6732 89.0213 52.6732L87.3331 52.4683V52.4512Z" fill="black"/>
<path d="M84.5663 37.0449C84.5663 37.0449 83.6284 40.444 83.3158 44.1506C83.0032 47.8571 83.2689 49.9068 84.238 50.2143C85.2072 50.5047 86.7235 50.6413 87.2393 51.5295C87.7551 52.4348 88.2553 53.4938 88.9588 53.4597C89.6622 53.4255 89.8966 47.1568 89.8498 43.0403C89.8029 38.9238 88.99 37.5915 88.99 37.5915L84.5663 37.0449Z" fill="#191919"/>
<path d="M85.3484 29.1533C85.9268 28.7604 87.615 28.9312 87.9277 29.3753C88.4435 30.1269 88.678 33.1331 88.5217 33.731C88.3653 34.3288 88.4748 36.8055 86.7397 37.0105C85.0046 37.2155 84.7545 35.6782 84.6607 34.6362C84.5669 33.5943 84.1761 29.939 85.3328 29.1362L85.3484 29.1533Z" fill="#303030"/>
<path d="M88.5366 32.2617C88.5366 32.2617 88.6773 36.2245 86.6608 36.3099C85.2071 36.3611 85.0195 34.8751 84.5975 34.8922C84.1754 34.8922 83.2532 35.4558 82.7999 35.3021C82.3466 35.1484 80.7365 34.2773 80.1269 34.431C79.5172 34.5847 74.2025 35.9512 74.3588 36.8906C74.5152 37.8472 77.7978 42.0149 81.4243 41.6733C85.0508 41.3317 85.9418 38.8208 86.739 38.7525C87.5362 38.6841 89.7246 40.3581 90.5531 38.7695C90.9283 38.0521 91.5535 32.2959 88.521 32.2617H88.5366Z" fill="#191919"/>
<path d="M84.6297 30.7246C84.6297 30.7246 79.1117 34.397 76.4231 33.9871C71.3741 33.2184 70.6082 31.442 69.1701 32.5181C68.4667 33.0476 69.7172 36.5492 72.3277 36.9079C74.9381 37.2837 86.271 36.2759 86.271 36.2759C86.271 36.2759 85.0986 35.7122 84.8172 33.6454C84.5671 31.869 84.6453 30.7246 84.6453 30.7246H84.6297Z" fill="#303030"/>
<path d="M107.013 6.76064C107.075 6.40194 106.044 5.95784 106.044 5.66747C106.075 4.28391 105.575 1.55097 102.214 0.901896C97.4931 -0.0204722 95.039 4.77926 95.9769 7.83674C96.1801 8.48581 96.5083 9.25445 96.5865 9.33986C96.8366 9.59607 97.2118 8.70787 98.5717 8.16128C99.6659 7.71717 100.807 7.39264 101.776 7.35847C103.824 7.30723 106.919 7.18767 106.997 6.74356L107.013 6.76064Z" fill="#7A63FF"/>
<path d="M68.873 20.1179C69.6859 18.6319 71.7805 18.3757 73.5625 18.6831C75.3445 18.9906 79.6744 22.3726 81.6127 24.0465C83.551 25.7204 88.6938 31.545 88.8657 33.3556C89.0377 35.1662 87.6152 37.6088 84.8016 36.174C82.0035 34.7392 75.7665 30.9984 73.2499 29C70.7332 27.0015 66.3876 24.6273 68.8574 20.135L68.873 20.1179Z" fill="#DEDEDE"/>
<path d="M87.6762 32.5523C85.988 32.1253 81.6112 35.9173 80.7671 41.0415C79.9074 46.1658 80.4232 51.7171 80.2513 52.5882C80.0793 53.4593 79.1571 55.3382 79.798 55.9532C80.4232 56.5851 83.909 55.7653 83.909 55.0137C83.909 54.2621 83.6277 54.5184 83.8465 52.7078C84.081 50.8972 86.4726 42.0835 87.0979 40.085C87.7231 38.0865 90.4118 33.2185 87.6762 32.5352V32.5523Z" fill="#DEDEDE"/>
<path d="M81.2688 55.5434C80.6435 54.9114 81.5501 53.0496 81.7221 52.1785C81.894 51.3073 81.3782 45.739 82.2379 40.6318C82.6131 38.4113 83.6447 36.447 84.8171 34.9609C81.7064 33.2358 76.8763 30.2808 74.7504 28.5727C73.0309 27.2062 70.4674 25.6689 69.7952 23.3972C69.7327 23.2605 69.6702 23.1409 69.6233 22.9872C68.6229 19.6735 70.1391 17.4188 72.3275 15.1129C72.2025 14.8738 72.0618 14.6688 71.9524 14.4297C69.2325 17.1456 66.9972 19.5881 68.1539 23.4313C68.2008 23.568 68.2633 23.7046 68.3259 23.8413C68.998 26.113 71.5616 27.6503 73.2811 29.0168C75.4226 30.7249 80.2371 33.6799 83.3477 35.405C82.1598 36.8911 81.1281 38.8554 80.7685 41.0759C79.9088 46.2002 80.4247 51.7514 80.2527 52.6226C80.0808 53.4937 79.1585 55.3726 79.7994 55.9875C80.2527 56.4316 82.1285 56.1412 83.1758 55.6801C82.3473 55.8338 81.5345 55.8338 81.2688 55.5605V55.5434Z" fill="#C2C2C2"/>
<path d="M81.4552 37.9847C81.4552 37.9847 80.2515 40.9055 80.0171 43.758C79.7826 46.6106 80.2672 51.6494 80.0171 52.2302C79.767 52.8109 79.1104 55.2877 79.1417 55.8513C79.173 56.415 79.7044 57.4911 79.7357 57.6961C79.767 57.901 79.8139 58.7551 79.8139 58.7551L83.2059 59.1821L83.4873 58.3964C83.4873 58.3964 86.4104 59.3871 88.505 59.3187C90.584 59.2504 92.1471 58.96 92.3503 58.533C92.5535 58.106 92.2878 57.3203 90.5214 57.1153C88.7551 56.9103 85.363 54.4848 84.5502 53.8529C83.7374 53.2038 87.0044 40.8201 87.0044 40.8201C87.0044 40.8201 86.7542 38.3605 85.4412 37.6943C83.9249 36.9086 81.4708 37.9847 81.4708 37.9847H81.4552Z" fill="black"/>
<path d="M87.4587 53.0664L89.6158 53.3397C89.8503 53.3739 90.0691 53.1518 90.1004 52.8614C90.1316 52.571 89.9441 52.3148 89.7096 52.2807L87.5524 52.0074C87.318 51.9732 87.0991 52.1953 87.0679 52.4856C87.0366 52.776 87.2242 53.0322 87.4587 53.0664Z" fill="#303030"/>
<path d="M89.7567 52.7422L87.8966 52.6738C87.8966 52.6738 87.8653 54.0403 87.9435 54.6552C88.0216 55.2701 88.2248 57.986 87.9904 58.823C87.7559 59.6599 87.709 59.882 87.709 59.882H90.0224C90.0224 59.882 90.2882 58.7717 90.21 57.6785C90.1319 56.5854 89.6473 55.0481 89.6317 54.3819C89.6317 53.7158 89.7723 52.7592 89.7723 52.7592L89.7567 52.7422Z" fill="#303030"/>
<path d="M95.242 15.7106C95.7578 16.7354 95.6015 17.9311 94.8825 18.3581C94.1634 18.7852 93.163 18.2898 92.6471 17.2649C92.1313 16.2401 92.2876 15.0444 93.0067 14.6174C93.7257 14.1904 94.7261 14.6857 95.242 15.7106Z" fill="#DEDEDE"/>
<path d="M85.3325 27.9575C83.9413 26.3177 82.472 24.7975 81.6279 24.0631C81.1589 23.6531 80.5493 23.1407 79.8615 22.6112C79.924 22.5258 79.9709 22.4233 80.0335 22.3379C79.2206 21.928 78.439 21.4838 77.6731 20.9714C77.548 20.886 77.4386 20.8006 77.3136 20.7152C76.4226 20.1003 75.6254 19.3829 74.8594 18.6143C74.5781 19.0925 74.5312 19.7245 75.2189 20.459C76.8759 22.2354 85.5983 28.3162 85.6608 28.3674C85.5514 28.2308 85.4263 28.0942 85.3169 27.9575H85.3325Z" fill="#C2C2C2"/>
<path d="M112.438 31.4762C112.438 31.4762 109.984 29.0678 107.124 27.2743C104.263 25.4808 100.98 24.4901 99.6205 25.4296C98.2605 26.369 98.3387 28.1967 99.9331 29.4777C101.528 30.7417 110.547 34.4825 110.844 34.5166C111.141 34.5508 112.438 31.4933 112.438 31.4933V31.4762Z" fill="#7A63FF"/>
<ellipse cx="135.927" cy="27.8521" rx="1.39175" ry="0.504405" fill="#1F2326"/>
</g>
<defs>
<clipPath id="clip0_2239_30860">
<rect width="150" height="105.252" fill="white" transform="translate(0 0.782227)"/>
</clipPath>
</defs>
</svg>
