<svg width="158" height="114" viewBox="0 0 158 114" fill="none" xmlns="http://www.w3.org/2000/svg">
<g clip-path="url(#clip0_2239_30692)" filter="url(#filter0_d_2239_30692)">
<path d="M97.7257 16.1331C97.7257 16.1331 99.0701 15.2449 99.9454 14.8521C102.149 13.8443 104.838 13.0586 104.838 13.0586L104.338 5.91895C104.338 5.91895 102.306 8.63476 98.4448 8.686C97.5694 10.9065 96.866 13.776 97.7101 16.1331H97.7257Z" fill="#FFA47C"/>
<path d="M48.6438 38.7146C48.6438 38.7146 49.3316 31.8482 43.0477 29.9864C36.9202 28.1759 27.8851 37.1944 16.1928 35.2814C11.8316 34.564 7.37659 25.6309 7.37659 25.6309C7.37659 25.6309 6.18859 28.6541 6.84512 31.7286C7.50164 34.8031 8.59585 36.1183 8.59585 36.1183C8.68963 36.477 6.62627 35.5376 5.53207 34.2736C4.87555 33.5221 4.1565 31.4553 4.1565 31.4553C4.1565 31.4553 2.90597 36.6308 7.61106 40.9009C7.90806 41.1742 4.50039 42.0624 4.50039 42.0624C4.50039 42.0624 6.28238 45.2564 9.8151 47.4598C12.9883 49.4412 16.99 50.4831 16.99 50.4831L11.6596 53.2843C11.6596 53.2843 17.2713 54.0871 18.9439 53.9505C20.1163 53.8651 23.055 52.4474 23.055 52.4474L20.7259 55.8806C20.7259 55.8806 24.0242 56.9566 31.6054 52.0887C39.2024 47.2378 48.6438 38.6804 48.6438 38.6804V38.7146Z" fill="#330E01"/>
<path d="M118.642 21.7021C119.158 22.0779 118.892 29.9521 113.014 31.5406C107.153 33.1461 100.916 32.1555 98.4615 34.6834C95.9917 37.2113 94.5223 39.483 91.396 39.1927C89.3014 38.9877 87.832 37.9629 87.832 37.9629C87.832 37.9629 91.4585 38.424 92.5527 37.5871C93.8814 36.5623 94.7412 34.82 96.0855 32.685C96.6951 31.7284 98.2895 30.9257 98.2895 30.9257C98.2895 30.9257 95.8979 30.4816 94.4129 31.3356C92.9279 32.1896 91.3022 32.8387 90.1924 32.6337C88.9419 32.4117 87.8633 30.5499 87.8633 30.5499C87.8633 30.5499 89.5828 31.5406 90.7395 30.8061C91.8962 30.0716 94.2566 27.7145 96.9296 27.8341C99.6026 27.9536 98.1645 25.699 95.8197 25.3745C94.8193 25.2378 93.1936 26.8605 93.1936 26.8605C93.1936 26.8605 93.8033 23.6664 96.9452 24.1447C105.605 25.477 106.637 22.6416 106.637 22.6416L118.704 21.7021H118.642Z" fill="#330E01"/>
<path d="M130.522 19.3443C130.944 19.8225 129.162 27.4575 123.128 27.6625C117.079 27.8675 111.185 25.4591 108.294 27.3721C105.386 29.2681 103.51 31.1469 100.509 30.1392C98.5083 29.456 97.2578 28.1066 97.2578 28.1066C97.2578 28.1066 100.712 29.4047 101.932 28.8411C103.432 28.1578 104.605 26.6377 106.34 24.8613C107.121 24.0585 108.825 23.6486 108.825 23.6486C108.825 23.6486 106.574 22.6579 104.949 23.1532C103.323 23.6486 101.619 23.9048 100.572 23.4436C99.3993 22.9312 98.6959 20.8644 98.6959 20.8644C98.6959 20.8644 100.197 22.2309 101.463 21.7697C102.729 21.3085 105.496 19.5663 108.075 20.3008C110.67 21.0352 109.701 18.4902 107.465 17.6362C106.527 17.2775 104.605 18.4731 104.605 18.4731C104.605 18.4731 105.808 15.484 108.794 16.6968C117 20.0104 118.548 17.4654 118.548 17.4654L130.522 19.3443Z" fill="#330E01"/>
<path d="M142.667 20.199C142.979 20.7798 139.618 27.7486 133.694 26.4163C127.77 25.0841 122.549 21.2409 119.329 22.3512C116.109 23.4614 113.873 24.8108 111.169 23.0686C109.371 21.9071 108.449 20.2673 108.449 20.2673C108.449 20.2673 111.544 22.4024 112.842 22.1633C114.436 21.8729 115.921 20.6944 117.969 19.4133C118.891 18.8326 120.642 18.8667 120.642 18.8667C120.642 18.8667 118.672 17.3295 116.984 17.3978C115.296 17.4661 113.592 17.2782 112.654 16.5609C111.622 15.7581 111.372 13.5718 111.372 13.5718C111.372 13.5718 112.529 15.2798 113.873 15.1602C115.218 15.0407 118.266 14.05 120.626 15.4165C122.987 16.8 122.596 14.0842 120.595 12.6665C119.751 12.0687 117.641 12.7519 117.641 12.7519C117.641 12.7519 119.454 10.1556 122.096 12.0857C129.364 17.3978 129.02 15.7922 131.428 15.314C139.196 13.7255 142.667 20.1819 142.667 20.1819V20.199Z" fill="#330E01"/>
<path d="M56.9289 38.9534C63.0721 36.5792 70.4815 42.1133 73.2639 46.1614C76.0619 50.2095 75.5617 58.1007 74.5144 60.8849C71.5131 68.8786 67.2457 76.5136 67.449 77.1114C67.8085 78.1533 79.751 93.8845 80.4075 96.0025C80.6888 96.9249 81.5642 99.4528 81.7049 99.9311C81.8456 100.409 76.8435 101.212 76.8435 101.212C76.8435 101.212 75.1709 97.9497 75.0146 96.7712C74.3581 91.647 60.743 81.6549 60.024 80.4421C59.3049 79.2294 61.0557 72.8071 60.2272 70.5354C59.3987 68.2637 50.7545 62.7979 48.5036 58.801C46.2683 54.8042 45.0646 43.531 56.9133 38.9534H56.9289Z" fill="#EFAE5D"/>
<path d="M76.3265 100.478C76.3265 100.478 76.1701 102.801 76.514 103.108C76.8579 103.415 83.1418 106.08 84.0328 105.636C84.9238 105.192 82.9386 102.408 82.6729 101.417C82.4071 100.426 81.3129 98.8379 81.3129 98.8379L76.3108 100.478H76.3265Z" fill="#303030"/>
<path d="M111.232 42.0109C113.452 42.3013 116.5 43.5823 118.907 49.4068C121.314 55.2484 118.188 58.9548 117.844 61.329C117.485 63.8057 128.052 74.5836 128.708 76.9065C129.365 79.2295 129.318 81.7233 128.458 82.8164C127.598 83.9096 125.597 85.2077 124.363 88.4872C123.128 91.7666 122.346 93.7138 121.267 93.97C120.189 94.2262 118.016 95.3706 117.36 95.866C116.687 96.3613 115.828 97.2837 115.828 97.2837C115.828 97.2837 114.671 91.3396 115.312 91.6129C115.953 91.9033 116.875 92.5865 117.25 91.3567C117.625 90.1269 119.329 89.0337 119.829 88.3847C120.33 87.7356 124.378 82.509 123.956 80.2372C123.55 77.9655 115.546 71.7482 112.483 68.8103C109.419 65.8725 104.417 63.0542 103.369 60.1676C102.135 56.7173 101.15 52.0543 102.041 49.1164C102.947 46.1786 106.246 41.3448 111.216 41.9938L111.232 42.0109Z" fill="#EFAE5D"/>
<path d="M40.7963 41.9933C42.4532 36.8178 48.4401 31.8474 58.3974 32.8551C68.3547 33.8629 70.293 35.588 84.8459 35.8613C92.943 36.0151 96.2882 33.2992 101.165 29.866C106.574 26.0742 116.187 21.582 122.487 19.7543C128.442 18.0121 136.258 17.5851 139.994 20.2838C143.73 22.9826 136.477 35.5026 129.99 37.057C126.754 37.8256 118.329 45.8876 118.579 47.3395C118.829 48.7913 121.048 53.0444 119.438 57.6391C117.828 62.2337 107.402 72.1234 95.2409 71.5256C83.0795 70.9278 69.824 62.7462 64.8532 62.08C59.8824 61.4139 47.1427 65.1545 43.1723 60.6794C39.2019 56.2043 39.0456 47.5444 40.8276 41.9933H40.7963Z" fill="#F8B969"/>
<path d="M115.313 91.6302C115.313 91.6302 113.422 90.3492 112.843 90.9128C112.265 91.4765 110.592 97.1814 110.749 98.1038C110.905 99.0261 112.546 98.1892 113.406 98.0354C114.25 97.8646 115.844 97.301 115.844 97.301L115.329 91.6302H115.313Z" fill="#191919"/>
<path d="M131.615 19.6525C130.537 22.2488 130.255 31.2332 132.131 34.0515C134.007 36.8698 138.743 37.8946 140.869 38.7828C143.011 39.671 144.84 40.0638 145.606 41.0887C146.372 42.1135 146.403 42.8138 146.903 43.1896C147.388 43.5483 151.233 43.3433 151.874 42.865C152.515 42.3868 152.78 40.9008 153.296 40.2175C153.812 39.5514 154.234 38.0825 153.859 37.4847C153.484 36.8868 152.593 34.7859 151.467 34.0173C150.342 33.2487 146.966 29.0639 145.793 27.6121C144.636 26.1431 142.776 21.4289 140.244 20.0966C137.712 18.7814 132.991 16.2877 131.6 19.6354L131.615 19.6525Z" fill="#F8B969"/>
<path d="M135.07 20.7457C134.273 21.1727 133.023 19.1401 133.163 17.6541C133.304 16.1681 134.132 13.5377 135.023 12.8032C135.914 12.0858 135.571 13.9134 136.149 14.9554C136.712 15.9802 137.712 19.3109 135.07 20.7457Z" fill="#F8B969"/>
<path d="M144.183 40.3878C141.276 40.3878 134.523 40.3365 129.318 39.8583C117.25 38.7822 116.594 31.8987 116.562 31.6084L117.344 31.54C117.344 31.54 118.032 37.9965 129.38 39.0213C136.118 39.6192 145.496 39.5338 145.59 39.5338V40.3878C145.59 40.3878 145.059 40.3878 144.168 40.3878H144.183Z" fill="#191919"/>
<path d="M146.074 36.9036C146.074 36.9036 146.105 35.4346 147.356 33.7437C148.435 32.2918 149.388 31.9502 149.388 31.9502L150.576 33.2483C150.576 33.2483 149.482 33.7607 148.732 34.8368C147.981 35.9129 147.637 37.7234 147.637 37.7234L146.074 36.9036Z" fill="#191919"/>
<path d="M145.669 37.4501C145.606 37.3476 135.555 28.3291 135.555 28.3291L134.945 29.0294L145.028 37.9455L145.653 37.4331L145.669 37.4501Z" fill="#191919"/>
<path d="M137.603 37.638C137.54 37.5355 136.524 35.3492 135.946 31.916C135.446 28.9269 136.04 26.9455 136.665 25.0838C137.29 23.222 139.619 19.8059 139.619 19.8059L138.384 19.2764C138.384 19.2764 134.898 23.9564 134.555 28.4999C134.211 33.0433 135.961 36.9889 135.961 36.9889L137.571 37.638H137.603Z" fill="#191919"/>
<path d="M134.587 28.4995C134.43 28.5166 132.68 26.7744 131.585 24.4856C130.272 21.7527 130.35 18.8319 130.35 18.8319L131.148 18.627C131.148 18.627 131.148 22.026 132.414 24.5027C133.508 26.6548 134.79 27.5772 134.79 27.5772L134.602 28.5166L134.587 28.4995Z" fill="#191919"/>
<path d="M146.45 40.5421C145.856 40.5421 145.309 40.2175 144.981 39.688C144.715 39.261 144.621 38.7486 144.715 38.2362C144.809 37.7238 145.075 37.2968 145.465 37.0064C146.247 36.4257 147.388 36.6819 147.92 37.5359C148.185 37.9629 148.279 38.4753 148.185 38.9877C148.092 39.5002 147.826 39.9272 147.435 40.2175C147.138 40.4396 146.81 40.5421 146.45 40.5421ZM146.45 37.4163C146.231 37.4163 146.028 37.4847 145.841 37.6213C145.59 37.7921 145.434 38.0654 145.372 38.3899C145.309 38.6974 145.372 39.0219 145.544 39.2952C145.872 39.8247 146.575 39.9784 147.06 39.6197C147.31 39.4489 147.466 39.1756 147.529 38.8511C147.591 38.5436 147.529 38.2191 147.357 37.9458C147.154 37.6213 146.81 37.4163 146.45 37.4163Z" fill="#E8A900"/>
<path d="M110.732 47.8184C112.827 48.6383 115.547 50.6367 116.703 56.9053C117.845 63.1739 115.015 66.8803 113.218 68.2639C111.42 69.6474 108.122 68.4517 107.653 68.9812C107.184 69.5107 113.155 80.4082 113.311 82.8336C113.468 85.259 112.921 87.6674 111.858 88.5385C110.795 89.4096 108.575 90.1782 106.715 93.0649C104.855 95.9515 103.682 97.6595 102.573 97.6595C101.463 97.6595 99.118 98.2403 98.3676 98.5477C97.6173 98.8552 96.5857 99.5555 96.5857 99.5555C96.5857 99.5555 96.6638 93.4748 97.2422 93.9018C97.8205 94.3288 98.5709 95.217 99.1805 94.1239C99.7901 93.0307 101.682 92.3646 102.307 91.8692C102.916 91.3568 107.934 87.2404 107.997 84.9345C108.059 82.6286 101.541 74.6008 99.1492 70.9968C96.7732 67.3928 95.6165 65.7872 97.1484 63.1738C98.6803 60.5605 98.8366 55.1801 100.322 52.5327C101.807 49.8852 106.011 45.9908 110.717 47.8355L110.732 47.8184Z" fill="#F8B969"/>
<path d="M97.2572 93.9017C97.2572 93.9017 95.6784 92.1936 94.9907 92.6036C94.3029 93.0135 91.5205 98.1548 91.4736 99.0942C91.4267 100.034 93.2087 99.6237 94.0684 99.6749C94.9281 99.7262 96.6007 99.5554 96.6007 99.5554L97.2572 93.9017Z" fill="#303030"/>
<path d="M55.2249 38.5436C61.9933 38.7998 67.2143 47.2376 68.496 52.3105C69.7778 57.3835 66.5421 64.8135 64.5725 67.0681C58.8827 73.5417 52.4894 78.3584 52.4894 79.0245C52.4737 80.1689 64.6663 85.8909 65.2759 86.6596C65.8856 87.4282 67.4018 94.3458 67.3706 94.8582C67.3393 95.3707 62.3841 92.5182 62.3841 92.5182C62.3841 92.5182 62.3372 90.998 61.3993 90.3148C60.4614 89.6316 44.0171 81.3988 43.7357 79.9298C43.47 78.4609 48.9097 73.815 48.9097 71.27C48.9097 68.725 40.9377 59.0061 40.1717 54.2065C39.4058 49.4068 42.1726 38.0141 55.2405 38.5265L55.2249 38.5436Z" fill="#F8B969"/>
<path d="M62.368 92.5176C62.368 92.5176 60.8205 94.2598 60.9143 94.7551C61.008 95.2505 63.8842 100.733 64.869 101.024C65.8538 101.314 66.4634 98.8886 66.8542 97.915C67.2606 96.9414 67.3388 94.8747 67.3388 94.8747L62.3524 92.5347L62.368 92.5176Z" fill="#303030"/>
<path d="M70.7157 52.0369C72.357 53.2155 76.3274 54.5478 84.7059 55.0773C87.6446 55.2651 94.1317 55.7434 100.9 54.2403C104.152 53.5229 98.7743 31.5061 98.3366 31.5744C97.8989 31.6427 95.1947 34.666 86.7693 35.2296C75.7803 35.947 69.5746 34.5806 69.5746 34.5806C69.5746 34.5806 69.09 50.8754 70.7313 52.054L70.7157 52.0369Z" fill="#318401"/>
<path d="M89.1289 34.9391C89.1289 34.9391 91.2235 43.7526 91.6143 52.3271C92.1302 63.5832 91.1454 71.389 91.1454 71.389L96.2569 71.9698C96.2569 71.9698 97.2417 63.3782 96.3507 51.3364C95.6629 42.0958 93.6308 34.2217 93.6308 34.2217L89.1445 34.9391H89.1289Z" fill="black"/>
<path d="M98.0232 7.13187C96.804 6.63654 91.3486 7.49057 93.5995 7.18312C93.7089 7.18312 90.1762 7.64429 89.5041 7.67845C88.8944 7.71261 81.6883 7.93466 77.8429 11.3679C77.2177 11.9315 75.5607 12.5806 75.9515 14.0495C77.5147 17.6193 80.6097 20.2498 84.033 21.9578C85.1429 22.7606 86.1433 21.3088 87.2844 21.0525C89.5978 20.5401 93.6308 21.1209 96.5695 20.6768C99.5082 20.2327 101.415 18.2342 101.915 16.0138C102.416 13.8104 101.478 8.54956 98.0389 7.11479L98.0232 7.13187Z" fill="#48EE4F"/>
<path d="M75.9524 14.0664C73.2325 16.7822 70.9972 19.2247 72.1539 23.0679C73.1074 26.2278 79.2663 26.0057 81.5641 24.8443C82.7365 24.2464 83.3773 23.0679 84.0339 21.9747C80.6106 20.2837 77.5155 17.6533 75.9524 14.0664Z" fill="#DEDEDE"/>
<path d="M96.5537 11.0438C98.3044 10.2239 99.9457 12.0857 101.274 14.7844C102.603 17.4832 105.901 23.8884 106.136 25.5623C106.37 27.2362 104.901 29.6275 103.103 28.2098C101.321 26.7921 96.6475 20.7114 95.5845 18.4397C94.5216 16.168 92.7083 12.8202 96.5381 11.0438H96.5537Z" fill="#318401"/>
<path d="M119.971 36.8872C120.112 36.6822 120.065 36.3919 119.878 36.2381L118.408 35.0425C118.221 34.8888 117.955 34.94 117.814 35.145C117.674 35.35 117.72 35.6403 117.908 35.7941L119.377 36.9897C119.565 37.1434 119.831 37.1093 119.971 36.8872Z" fill="#DEDEDE"/>
<path d="M120.503 36.2212C120.643 36.0162 120.612 35.7259 120.409 35.5721L118.939 34.3765C118.752 34.2228 118.486 34.274 118.345 34.479C118.205 34.6839 118.252 34.9743 118.439 35.128L119.909 36.3237C120.096 36.4774 120.378 36.4432 120.518 36.2212H120.503Z" fill="#DEDEDE"/>
<path d="M120.987 35.5542C121.128 35.3492 121.081 35.0589 120.893 34.9051L119.424 33.7095C119.236 33.5558 118.971 33.607 118.83 33.812C118.689 34.017 118.736 34.3073 118.924 34.461L120.393 35.6567C120.581 35.8104 120.846 35.7592 120.987 35.5542Z" fill="#DEDEDE"/>
<path d="M121.409 34.8716C121.55 34.6666 121.503 34.3763 121.315 34.2225L119.846 33.0269C119.658 32.8732 119.392 32.9244 119.252 33.1294C119.111 33.3343 119.158 33.6247 119.346 33.7784L120.815 34.9741C121.002 35.1278 121.268 35.0766 121.409 34.8716Z" fill="#DEDEDE"/>
<path d="M116.016 30.9941C116.016 30.9941 118.861 31.8653 119.361 32.1898C119.877 32.5143 121.44 34.3761 121.44 34.3761C121.44 34.3761 120.424 34.5981 120.158 35.0935C119.908 35.6059 119.361 36.9723 119.361 36.9723C119.361 36.9723 117.501 36.1525 116.782 35.5034C116.063 34.8373 114.844 33.8978 114.844 33.8978L116 30.9941H116.016Z" fill="#DEDEDE"/>
<path d="M108.888 3.93863C107.872 2.48678 104.449 0.659156 102.276 2.89671C100.088 5.13427 100.447 7.833 101.151 9.5923C101.698 10.9758 102.308 11.7957 103.621 12.7693C103.886 12.9743 106.45 13.982 107.013 13.8795C107.388 13.8112 108.138 10.9929 108.247 11.0271C108.357 11.0612 108.67 10.9417 108.732 10.7196C108.81 10.378 108.81 8.26002 108.92 8.05505C109.029 7.85008 110.076 5.61252 108.904 3.93863H108.888Z" fill="#FFBD95"/>
<path d="M109.42 5.35598C109.42 5.35598 107.606 3.71625 104.699 5.73176C104.074 6.15877 104.715 8.65253 104.543 8.82334C104.355 9.01123 102.823 6.75659 102.854 7.04696C103.151 9.83109 102.12 11.1292 101.901 11.1121C101.229 11.0267 99.7594 6.89324 101.276 4.07494C102.792 1.25664 105.793 1.52993 106.481 1.83738C107.169 2.12775 109.279 2.72557 109.42 5.37306V5.35598Z" fill="#F8B969"/>
<path d="M103.933 7.86715C104.027 8.75534 103.965 9.91682 103.511 9.96806C103.058 10.0193 102.636 9.35316 102.542 8.46497C102.448 7.57678 102.714 6.80815 103.152 6.75691C103.59 6.70567 103.824 6.97896 103.918 7.86715H103.933Z" fill="#FFBD95"/>
<path d="M101.666 7.74701C101.76 7.74701 102.041 9.84792 102.588 10.924C103.135 12.0001 104.167 13.0591 105.558 13.6398C105.777 13.7423 106.184 13.7765 106.184 13.7765C106.184 13.7765 105.777 13.3665 105.683 13.2982C104.167 12.3929 103.37 11.2656 103.323 11.129C103.292 10.9923 104.183 9.54047 104.652 8.36191C104.824 7.90074 105.058 6.73926 105.058 6.73926H104.495C104.495 6.73926 104.417 7.52496 104.245 7.98614C103.729 9.36967 102.917 10.4287 102.917 10.4287C102.917 10.4287 102.651 9.7796 102.448 9.14762C102.229 8.43023 102.135 7.35416 102.135 7.35416L101.635 7.72993L101.666 7.74701Z" fill="#383838"/>
<path d="M91.3331 52.1055C91.3331 52.1055 91.4894 53.4378 91.1455 54.343C90.8016 55.2483 90.4108 57.1442 90.3795 57.8616C90.3483 58.579 91.4894 59.5355 91.4894 59.5355L93.4902 59.5697C93.4902 59.5697 92.99 55.8803 92.7555 54.77C92.5211 53.6598 93.0213 52.3275 93.0213 52.3275L91.3331 52.1225V52.1055Z" fill="black"/>
<path d="M88.5663 36.6992C88.5663 36.6992 87.6284 40.0983 87.3158 43.8047C87.0032 47.5112 87.2689 49.5609 88.238 49.8683C89.2072 50.1587 90.7235 50.2954 91.2393 51.1835C91.7551 52.0888 92.2553 53.1478 92.9588 53.1137C93.6622 53.0795 93.8966 46.8109 93.8498 42.6945C93.8029 38.5781 92.99 37.2458 92.99 37.2458L88.5663 36.6992Z" fill="#191919"/>
<path d="M89.3484 28.8076C89.9268 28.4147 91.615 28.5855 91.9277 29.0296C92.4435 29.7812 92.678 32.7873 92.5217 33.3852C92.3653 33.983 92.4748 36.4597 90.7397 36.6646C89.0046 36.8696 88.7545 35.3323 88.6607 34.2904C88.5669 33.2485 88.1761 29.5933 89.3328 28.7905L89.3484 28.8076Z" fill="#303030"/>
<path d="M92.5366 31.916C92.5366 31.916 92.6773 35.8787 90.6608 35.9641C89.2071 36.0154 89.0195 34.5293 88.5975 34.5464C88.1754 34.5464 87.2532 35.1101 86.7999 34.9564C86.3466 34.8026 84.7365 33.9315 84.1269 34.0852C83.5172 34.239 78.2025 35.6054 78.3588 36.5449C78.5152 37.5014 81.7978 41.669 85.4243 41.3274C89.0508 40.9858 89.9418 38.475 90.739 38.4066C91.5362 38.3383 93.7246 40.0122 94.5531 38.4237C94.9283 37.7063 95.5535 31.9502 92.521 31.916H92.5366Z" fill="#191919"/>
<path d="M88.6297 30.3789C88.6297 30.3789 83.1117 34.0512 80.4231 33.6413C75.3741 32.8727 74.6082 31.0963 73.1701 32.1724C72.4667 32.7019 73.7172 36.2034 76.3277 36.5621C78.9381 36.9378 90.271 35.9301 90.271 35.9301C90.271 35.9301 89.0986 35.3664 88.8172 33.2997C88.5671 31.5233 88.6453 30.3789 88.6453 30.3789H88.6297Z" fill="#303030"/>
<path d="M111.013 6.41483C111.075 6.05614 110.044 5.61204 110.044 5.32167C110.075 3.93815 109.575 1.20525 106.214 0.556191C101.493 -0.36616 99.039 4.43348 99.9769 7.49091C100.18 8.13997 100.508 8.90859 100.586 8.994C100.837 9.25021 101.212 8.36202 102.572 7.81544C103.666 7.37134 104.807 7.04681 105.776 7.01265C107.824 6.96141 110.919 6.84184 110.997 6.39775L111.013 6.41483Z" fill="#318401"/>
<path d="M72.873 19.7722C73.6859 18.2862 75.7805 18.03 77.5625 18.3374C79.3445 18.6449 83.6744 22.0268 85.6127 23.7007C87.551 25.3746 92.6938 31.1991 92.8657 33.0096C93.0377 34.8202 91.6152 37.2627 88.8016 35.8279C86.0035 34.3932 79.7665 30.6525 77.2499 28.6541C74.7332 26.6557 70.3876 24.2815 72.8574 19.7893L72.873 19.7722Z" fill="#DEDEDE"/>
<path d="M91.6762 32.2066C89.988 31.7796 85.6112 35.5715 84.7671 40.6957C83.9074 45.8198 84.4232 51.371 84.2513 52.2421C84.0793 53.1133 83.1571 54.9921 83.798 55.607C84.4232 56.239 87.909 55.4191 87.909 54.6676C87.909 53.916 87.6277 54.1722 87.8465 52.3617C88.081 50.5512 90.4726 41.7376 91.0979 39.7392C91.7231 37.7407 94.4118 32.8728 91.6762 32.1895V32.2066Z" fill="#DEDEDE"/>
<path d="M85.2688 55.1969C84.6435 54.565 85.5501 52.7032 85.7221 51.8321C85.894 50.961 85.3782 45.3927 86.2379 40.2856C86.6131 38.0651 87.6447 36.1009 88.8171 34.6148C85.7064 32.8897 80.8763 29.9348 78.7504 28.2267C77.0309 26.8603 74.4674 25.323 73.7952 23.0513C73.7327 22.9146 73.6702 22.7951 73.6233 22.6414C72.6229 19.3277 74.1391 17.0731 76.3275 14.7672C76.2025 14.5281 76.0618 14.3231 75.9524 14.084C73.2325 16.7998 70.9972 19.2423 72.1539 23.0855C72.2008 23.2221 72.2633 23.3587 72.3259 23.4954C72.998 25.7671 75.5616 27.3044 77.2811 28.6708C79.4226 30.3789 84.2371 33.3338 87.3477 35.0589C86.1598 36.5449 85.1281 38.5092 84.7685 40.7297C83.9088 45.8539 84.4247 51.4051 84.2527 52.2762C84.0808 53.1473 83.1585 55.0261 83.7994 55.641C84.2527 56.0851 86.1285 55.7948 87.1758 55.3336C86.3473 55.4873 85.5345 55.4873 85.2688 55.214V55.1969Z" fill="#C2C2C2"/>
<path d="M85.4552 37.638C85.4552 37.638 84.2515 40.5588 84.0171 43.4112C83.7826 46.2637 84.2672 51.3025 84.0171 51.8832C83.767 52.464 83.1104 54.9406 83.1417 55.5043C83.173 56.068 83.7044 57.144 83.7357 57.349C83.767 57.554 83.8139 58.408 83.8139 58.408L87.2059 58.835L87.4873 58.0493C87.4873 58.0493 90.4104 59.04 92.505 58.9717C94.584 58.9033 96.1471 58.613 96.3503 58.186C96.5535 57.7589 96.2878 56.9732 94.5214 56.7683C92.7551 56.5633 89.363 54.1379 88.5502 53.5059C87.7374 52.8568 91.0044 40.4734 91.0044 40.4734C91.0044 40.4734 90.7542 38.0138 89.4412 37.3476C87.9249 36.5619 85.4708 37.638 85.4708 37.638H85.4552Z" fill="black"/>
<path d="M91.4587 52.7197L93.6158 52.993C93.8503 53.0271 94.0691 52.8051 94.1004 52.5147C94.1316 52.2244 93.9441 51.9682 93.7096 51.934L91.5524 51.6607C91.318 51.6265 91.0991 51.8486 91.0679 52.139C91.0366 52.4293 91.2242 52.6855 91.4587 52.7197Z" fill="#303030"/>
<path d="M93.7567 52.3955L91.8966 52.3271C91.8966 52.3271 91.8653 53.6936 91.9435 54.3085C92.0216 54.9234 92.2248 57.6392 91.9904 58.4762C91.7559 59.3131 91.709 59.5352 91.709 59.5352H94.0224C94.0224 59.5352 94.2882 58.4249 94.21 57.3318C94.1319 56.2386 93.6473 54.7013 93.6317 54.0352C93.6317 53.3691 93.7723 52.4126 93.7723 52.4126L93.7567 52.3955Z" fill="#303030"/>
<path d="M99.242 15.3649C99.7578 16.3897 99.6015 17.5853 98.8825 18.0124C98.1634 18.4394 97.163 17.944 96.6471 16.9192C96.1313 15.8944 96.2876 14.6987 97.0067 14.2717C97.7257 13.8447 98.7261 14.34 99.242 15.3649Z" fill="#DEDEDE"/>
<path d="M89.3325 27.6116C87.9413 25.9719 86.472 24.4517 85.6279 23.7173C85.1589 23.3073 84.5493 22.7949 83.8615 22.2654C83.924 22.18 83.9709 22.0775 84.0335 21.9921C83.2206 21.5822 82.439 21.1381 81.6731 20.6257C81.548 20.5403 81.4386 20.4549 81.3136 20.3695C80.4226 19.7546 79.6254 19.0372 78.8594 18.2686C78.5781 18.7468 78.5312 19.3788 79.2189 20.1133C80.8759 21.8896 89.5983 27.9703 89.6608 28.0216C89.5514 27.8849 89.4263 27.7483 89.3169 27.6116H89.3325Z" fill="#C2C2C2"/>
<path d="M116.438 31.1304C116.438 31.1304 113.984 28.722 111.124 26.9286C108.263 25.1351 104.98 24.1444 103.62 25.0839C102.261 26.0233 102.339 27.8509 103.933 29.132C105.528 30.3959 114.547 34.1366 114.844 34.1707C115.141 34.2049 116.438 31.1475 116.438 31.1475V31.1304Z" fill="#318401"/>
<ellipse cx="139.927" cy="27.5054" rx="1.39175" ry="0.504395" fill="#1F2326"/>
</g>
<defs>
<filter id="filter0_d_2239_30692" x="0" y="0.436523" width="158" height="113.251" filterUnits="userSpaceOnUse" color-interpolation-filters="sRGB">
<feFlood flood-opacity="0" result="BackgroundImageFix"/>
<feColorMatrix in="SourceAlpha" type="matrix" values="0 0 0 0 0 0 0 0 0 0 0 0 0 0 0 0 0 0 127 0" result="hardAlpha"/>
<feOffset dy="4"/>
<feGaussianBlur stdDeviation="2"/>
<feComposite in2="hardAlpha" operator="out"/>
<feColorMatrix type="matrix" values="0 0 0 0 0 0 0 0 0 0 0 0 0 0 0 0 0 0 0.25 0"/>
<feBlend mode="normal" in2="BackgroundImageFix" result="effect1_dropShadow_2239_30692"/>
<feBlend mode="normal" in="SourceGraphic" in2="effect1_dropShadow_2239_30692" result="shape"/>
</filter>
<clipPath id="clip0_2239_30692">
<rect width="150" height="105.251" fill="white" transform="translate(4 0.436523)"/>
</clipPath>
</defs>
</svg>
