<svg width="150" height="107" viewBox="0 0 150 107" fill="none" xmlns="http://www.w3.org/2000/svg">
<g clip-path="url(#clip0_2239_30748)">
<path d="M93.7257 16.5187C93.7257 16.5187 95.0701 15.6262 95.9454 15.2314C98.1495 14.2188 100.838 13.4293 100.838 13.4293L100.338 6.25488C100.338 6.25488 98.3058 8.98389 94.4448 9.03538C93.5694 11.2666 92.866 14.1501 93.7101 16.5187H93.7257Z" fill="#FFA47C"/>
<path d="M44.6438 39.2088C44.6438 39.2088 45.3316 32.3091 39.0477 30.4382C32.9201 28.6189 23.8851 37.6813 12.1928 35.7589C7.83157 35.0381 3.37659 26.0615 3.37659 26.0615C3.37659 26.0615 2.18859 29.0995 2.84512 32.1889C3.50164 35.2784 4.59585 36.6 4.59585 36.6C4.68963 36.9604 2.62627 36.0164 1.53207 34.7463C0.875545 33.9911 0.156496 31.9143 0.156496 31.9143C0.156496 31.9143 -1.09403 37.1149 3.61106 41.4058C3.90806 41.6804 0.500389 42.5729 0.500389 42.5729C0.500389 42.5729 2.28238 45.7825 5.8151 47.9966C8.9883 49.9876 12.99 51.0345 12.99 51.0345L7.65962 53.8494C7.65962 53.8494 13.2713 54.656 14.9439 54.5187C16.1163 54.4329 19.055 53.0083 19.055 53.0083L16.7259 56.4582C16.7259 56.4582 20.0241 57.5395 27.6054 52.6479C35.2023 47.7735 44.6438 39.1745 44.6438 39.1745V39.2088Z" fill="#A8A8A8"/>
<path d="M114.642 22.1143C115.158 22.4919 114.892 30.4043 109.014 32.0005C103.153 33.6139 96.9156 32.6184 94.4615 35.1586C91.9917 37.6988 90.5223 39.9815 87.396 39.6898C85.3014 39.4838 83.832 38.454 83.832 38.454C83.832 38.454 87.4585 38.9174 88.5527 38.0764C89.8814 37.0466 90.7412 35.2959 92.0855 33.1504C92.6951 32.1893 94.2895 31.3826 94.2895 31.3826C94.2895 31.3826 91.8979 30.9363 90.4129 31.7945C88.9279 32.6527 87.3022 33.3049 86.1924 33.099C84.9419 32.8758 83.8633 31.005 83.8633 31.005C83.8633 31.005 85.5828 32.0005 86.7395 31.2624C87.8962 30.5244 90.2566 28.1558 92.9296 28.276C95.6026 28.3961 94.1645 26.1305 91.8197 25.8044C90.8193 25.6671 89.1936 27.2977 89.1936 27.2977C89.1936 27.2977 89.8033 24.0881 92.9452 24.5687C101.605 25.9074 102.637 23.0583 102.637 23.0583L114.704 22.1143H114.642Z" fill="#330E01"/>
<path d="M126.522 19.7452C126.944 20.2258 125.162 27.8979 119.128 28.1039C113.079 28.3099 107.185 25.8898 104.294 27.8121C101.386 29.7173 99.5104 31.6053 96.5092 30.5926C94.5083 29.9061 93.2578 28.5502 93.2578 28.5502C93.2578 28.5502 96.7124 29.8546 97.9316 29.2882C99.4323 28.6016 100.605 27.0741 102.34 25.2891C103.121 24.4824 104.825 24.0705 104.825 24.0705C104.825 24.0705 102.574 23.075 100.949 23.5727C99.3228 24.0705 97.619 24.3279 96.5717 23.8645C95.3993 23.3496 94.6959 21.2728 94.6959 21.2728C94.6959 21.2728 96.1965 22.6459 97.4627 22.1825C98.7288 21.7191 101.496 19.9684 104.075 20.7064C106.67 21.4444 105.701 18.8871 103.465 18.0289C102.527 17.6684 100.605 18.8699 100.605 18.8699C100.605 18.8699 101.808 15.8663 104.794 17.0849C113 20.4146 114.548 17.8572 114.548 17.8572L126.522 19.7452Z" fill="#A8A8A8"/>
<path d="M138.667 20.6032C138.979 21.1868 135.618 28.1895 129.694 26.8508C123.77 25.512 118.549 21.6502 115.329 22.7659C112.109 23.8815 109.873 25.2374 107.169 23.4867C105.371 22.3196 104.449 20.6719 104.449 20.6719C104.449 20.6719 107.544 22.8173 108.842 22.5771C110.436 22.2853 111.921 21.101 113.969 19.8137C114.891 19.2302 116.642 19.2645 116.642 19.2645C116.642 19.2645 114.672 17.7198 112.984 17.7884C111.296 17.8571 109.592 17.6683 108.654 16.9474C107.622 16.1407 107.372 13.9438 107.372 13.9438C107.372 13.9438 108.529 15.6601 109.873 15.54C111.218 15.4198 114.266 14.4244 116.626 15.7974C118.987 17.1877 118.596 14.4587 116.595 13.0341C115.751 12.4334 113.641 13.1199 113.641 13.1199C113.641 13.1199 115.454 10.5111 118.096 12.4505C125.364 17.7884 125.02 16.175 127.428 15.6945C135.196 14.0982 138.667 20.5861 138.667 20.5861V20.6032Z" fill="#A8A8A8"/>
<path d="M52.9289 39.4493C59.0721 37.0636 66.4815 42.6246 69.2639 46.6924C72.0619 50.7601 71.5617 58.6897 70.5144 61.4874C67.5132 69.5199 63.2457 77.1921 63.449 77.7928C63.8085 78.8398 75.751 94.6474 76.4075 96.7757C76.6889 97.7025 77.5642 100.243 77.7049 100.723C77.8456 101.204 72.8435 102.011 72.8435 102.011C72.8435 102.011 71.1709 98.7324 71.0146 97.5481C70.3581 92.399 56.743 82.3583 56.024 81.1397C55.3049 79.9211 57.0557 73.4676 56.2272 71.1848C55.3987 68.9021 46.7545 63.4097 44.5036 59.3934C42.2683 55.3771 41.0646 44.0492 52.9133 39.4493H52.9289Z" fill="#CDCBCB"/>
<path d="M72.3265 101.273C72.3265 101.273 72.1701 103.607 72.514 103.916C72.8579 104.225 79.1418 106.902 80.0328 106.456C80.9238 106.01 78.9386 103.212 78.6729 102.217C78.4071 101.221 77.3129 99.625 77.3129 99.625L72.3108 101.273H72.3265Z" fill="#303030"/>
<path d="M107.232 42.521C109.452 42.8128 112.5 44.1001 114.907 49.9529C117.314 55.8228 114.188 59.5473 113.844 61.9331C113.485 64.4218 124.052 75.252 124.708 77.5862C125.365 79.9205 125.318 82.4264 124.458 83.5248C123.598 84.6233 121.597 85.9277 120.363 89.2231C119.128 92.5186 118.346 94.4752 117.267 94.7327C116.189 94.9901 114.016 96.1401 113.36 96.6378C112.687 97.1356 111.828 98.0624 111.828 98.0624C111.828 98.0624 110.671 92.0895 111.312 92.3641C111.953 92.6559 112.875 93.3424 113.25 92.1066C113.625 90.8708 115.329 89.7724 115.829 89.1202C116.33 88.4679 120.378 83.2159 119.956 80.9331C119.55 78.6504 111.546 72.4028 108.483 69.4507C105.419 66.4986 100.417 63.6666 99.3694 60.7659C98.1345 57.2989 97.1497 52.6132 98.0407 49.6611C98.9474 46.709 102.246 41.8517 107.216 42.5039L107.232 42.521Z" fill="#CDCBCB"/>
<path d="M36.7963 42.5036C38.4532 37.3031 44.4401 32.3085 54.3974 33.3211C64.3547 34.3338 66.293 36.0673 80.8459 36.3419C88.943 36.4964 92.2882 33.7674 97.1652 30.3175C102.574 26.5072 112.187 21.9932 118.487 20.1567C124.442 18.406 132.258 17.9769 135.994 20.6887C139.73 23.4006 132.477 35.9815 125.99 37.5434C122.754 38.3157 114.329 46.4169 114.579 47.8758C114.829 49.3347 117.048 53.6085 115.438 58.2255C113.828 62.8425 103.402 72.7802 91.2409 72.1795C79.0795 71.5788 65.824 63.3574 60.8532 62.688C55.8824 62.0186 43.1427 65.7775 39.1723 61.2806C35.2019 56.7837 35.0456 48.0818 36.8276 42.5036H36.7963Z" fill="#DADADA"/>
<path d="M111.313 92.3815C111.313 92.3815 109.422 91.0942 108.843 91.6606C108.265 92.227 106.592 97.9596 106.749 98.8865C106.905 99.8133 108.546 98.9723 109.406 98.8178C110.25 98.6462 111.844 98.0798 111.844 98.0798L111.329 92.3815H111.313Z" fill="#191919"/>
<path d="M127.615 20.0543C126.537 22.6632 126.255 31.6912 128.131 34.5232C130.007 37.3552 134.743 38.385 136.869 39.2775C139.011 40.17 140.84 40.5648 141.606 41.5946C142.372 42.6244 142.403 43.3281 142.903 43.7057C143.388 44.0661 147.233 43.8602 147.874 43.3796C148.515 42.899 148.78 41.4058 149.296 40.7192C149.812 40.0499 150.234 38.5738 149.859 37.9731C149.484 37.3724 148.593 35.2612 147.467 34.4889C146.342 33.7165 142.966 29.5114 141.793 28.0525C140.636 26.5765 138.776 21.8393 136.244 20.5005C133.712 19.179 128.991 16.6731 127.6 20.0371L127.615 20.0543Z" fill="#DADADA"/>
<path d="M131.07 21.1523C130.273 21.5813 129.023 19.5389 129.163 18.0456C129.304 16.5524 130.132 13.9092 131.023 13.1712C131.914 12.4503 131.571 14.2868 132.149 15.3338C132.712 16.3636 133.712 19.7105 131.07 21.1523Z" fill="#DADADA"/>
<path d="M140.183 40.8907C137.276 40.8907 130.523 40.8392 125.318 40.3587C113.25 39.2774 112.594 32.3604 112.562 32.0687L113.344 32C113.344 32 114.032 38.4878 125.38 39.5176C132.118 40.1184 141.496 40.0326 141.59 40.0326V40.8907C141.59 40.8907 141.059 40.8907 140.168 40.8907H140.183Z" fill="#191919"/>
<path d="M142.074 37.3895C142.074 37.3895 142.105 35.9135 143.356 34.2143C144.435 32.7554 145.388 32.4121 145.388 32.4121L146.576 33.7165C146.576 33.7165 145.482 34.2314 144.732 35.3128C143.981 36.3941 143.637 38.2134 143.637 38.2134L142.074 37.3895Z" fill="#191919"/>
<path d="M141.669 37.9388C141.606 37.8358 131.555 28.7734 131.555 28.7734L130.945 29.4771L141.028 38.4365L141.653 37.9216L141.669 37.9388Z" fill="#191919"/>
<path d="M133.603 38.1276C133.54 38.0246 132.524 35.8277 131.946 32.3778C131.446 29.3742 132.04 27.3832 132.665 25.5124C133.29 23.6415 135.619 20.2088 135.619 20.2088L134.384 19.6768C134.384 19.6768 130.898 24.3796 130.555 28.9451C130.211 33.5106 131.961 37.4754 131.961 37.4754L133.571 38.1276H133.603Z" fill="#191919"/>
<path d="M130.587 28.945C130.43 28.9621 128.68 27.2114 127.585 24.9115C126.272 22.1653 126.35 19.2304 126.35 19.2304L127.148 19.0244C127.148 19.0244 127.148 22.44 128.414 24.9287C129.508 27.0913 130.79 28.0181 130.79 28.0181L130.602 28.9621L130.587 28.945Z" fill="#191919"/>
<path d="M142.45 41.0451C141.856 41.0451 141.309 40.719 140.981 40.187C140.715 39.7579 140.621 39.243 140.715 38.7281C140.809 38.2132 141.075 37.7841 141.465 37.4923C142.247 36.9087 143.388 37.1662 143.92 38.0244C144.185 38.4534 144.279 38.9684 144.185 39.4833C144.092 39.9982 143.826 40.4273 143.435 40.719C143.138 40.9422 142.81 41.0451 142.45 41.0451ZM142.45 37.9042C142.231 37.9042 142.028 37.9729 141.841 38.1102C141.59 38.2818 141.434 38.5564 141.372 38.8825C141.309 39.1915 141.372 39.5176 141.544 39.7922C141.872 40.3243 142.575 40.4788 143.06 40.1183C143.31 39.9467 143.466 39.6721 143.529 39.346C143.591 39.037 143.529 38.7109 143.357 38.4363C143.154 38.1102 142.81 37.9042 142.45 37.9042Z" fill="#E8A900"/>
<path d="M106.732 48.3568C108.827 49.1806 111.547 51.1888 112.703 57.4878C113.845 63.7868 111.015 67.5113 109.218 68.9016C107.42 70.2918 104.122 69.0904 103.653 69.6225C103.184 70.1545 109.155 81.1049 109.311 83.5421C109.468 85.9794 108.921 88.3994 107.858 89.2748C106.795 90.1501 104.575 90.9225 102.715 93.8231C100.855 96.7238 99.6824 98.4401 98.5725 98.4401C97.4627 98.4401 95.118 99.0237 94.3676 99.3326C93.6173 99.6416 92.5857 100.345 92.5857 100.345C92.5857 100.345 92.6638 94.235 93.2422 94.6641C93.8205 95.0932 94.5709 95.9857 95.1805 94.8873C95.7901 93.7888 97.6815 93.1194 98.3068 92.6217C98.9164 92.1068 103.934 87.9703 103.997 85.6533C104.059 83.3362 97.5408 75.2693 95.1492 71.6478C92.7732 68.0263 91.6165 66.4129 93.1484 63.7868C94.6803 61.1608 94.8366 55.7543 96.3216 53.0939C97.8066 50.4336 102.011 46.5203 106.717 48.374L106.732 48.3568Z" fill="#DADADA"/>
<path d="M93.2572 94.6642C93.2572 94.6642 91.6784 92.9478 90.9907 93.3597C90.3029 93.7717 87.5205 98.9379 87.4736 99.8819C87.4267 100.826 89.2087 100.414 90.0684 100.465C90.9281 100.517 92.6007 100.345 92.6007 100.345L93.2572 94.6642Z" fill="#303030"/>
<path d="M51.2249 39.0369C57.9933 39.2944 63.2143 47.7732 64.496 52.8708C65.7778 57.9683 62.5421 65.4345 60.5725 67.7001C54.8827 74.2051 48.4894 79.0452 48.4894 79.7146C48.4737 80.8645 60.6663 86.6143 61.2759 87.3867C61.8856 88.1591 63.4018 95.1103 63.3706 95.6252C63.3393 96.1401 58.3841 93.2738 58.3841 93.2738C58.3841 93.2738 58.3372 91.7463 57.3993 91.0597C56.4614 90.3732 40.0171 82.1003 39.7357 80.6243C39.47 79.1482 44.9097 74.4797 44.9097 71.9223C44.9097 69.365 36.9377 59.5989 36.1717 54.7759C35.4058 49.9529 38.1726 38.5048 51.2405 39.0197L51.2249 39.0369Z" fill="#DADADA"/>
<path d="M58.368 93.2744C58.368 93.2744 56.8205 95.0251 56.9143 95.5228C57.008 96.0206 59.8842 101.53 60.869 101.822C61.8538 102.114 62.4634 99.6764 62.8542 98.6981C63.2606 97.7198 63.3388 95.643 63.3388 95.643L58.3524 93.2916L58.368 93.2744Z" fill="#303030"/>
<path d="M66.7157 52.5963C68.357 53.7806 72.3274 55.1194 80.7059 55.6514C83.6446 55.8402 90.1317 56.3208 96.9002 54.8104C100.152 54.0895 94.7743 31.9657 94.3366 32.0343C93.8989 32.103 91.1947 35.1409 82.7693 35.7073C71.7803 36.4282 65.5746 35.0551 65.5746 35.0551C65.5746 35.0551 65.09 51.4292 66.7313 52.6135L66.7157 52.5963Z" fill="#D2534D"/>
<path d="M85.1289 35.4152C85.1289 35.4152 87.2235 44.2716 87.6143 52.8877C88.1302 64.1985 87.1454 72.0423 87.1454 72.0423L92.2569 72.6259C92.2569 72.6259 93.2417 63.9926 92.3507 51.8922C91.6629 42.6067 89.6308 34.6943 89.6308 34.6943L85.1445 35.4152H85.1289Z" fill="black"/>
<path d="M94.0232 7.47346C92.804 6.97572 87.3486 7.8339 89.5995 7.52495C89.7089 7.52495 86.1762 7.98837 85.504 8.0227C84.8944 8.05703 77.6883 8.28015 73.8429 11.73C73.2177 12.2964 71.5607 12.9486 71.9515 14.4247C73.5147 18.0119 76.6097 20.6551 80.033 22.3715C81.1429 23.1781 82.1433 21.7192 83.2844 21.4618C85.5978 20.9469 89.6308 21.5304 92.5695 21.0842C95.5082 20.6379 97.4153 18.6298 97.9155 16.3985C98.4157 14.1844 97.4778 8.89804 94.0389 7.4563L94.0232 7.47346Z" fill="#D2534D"/>
<path d="M71.9524 14.4414C69.2325 17.1704 66.9972 19.6248 68.1539 23.4866C69.1074 26.6619 75.2663 26.4388 77.5641 25.2716C78.7365 24.6709 79.3773 23.4866 80.0339 22.3881C76.6106 20.6889 73.5155 18.0458 71.9524 14.4414Z" fill="#DEDEDE"/>
<path d="M92.5537 11.4041C94.3044 10.5803 95.9457 12.4511 97.2744 15.1629C98.6031 17.8748 101.901 24.3111 102.136 25.9932C102.37 27.6752 100.901 30.0781 99.1033 28.6535C97.3213 27.2289 92.6475 21.1187 91.5845 18.836C90.5216 16.5532 88.7083 13.1891 92.5381 11.4041H92.5537Z" fill="#0D0D0D"/>
<path d="M115.971 37.3722C116.112 37.1662 116.065 36.8744 115.878 36.72L114.408 35.5185C114.221 35.3641 113.955 35.4155 113.814 35.6215C113.674 35.8275 113.72 36.1193 113.908 36.2737L115.377 37.4752C115.565 37.6296 115.831 37.5953 115.971 37.3722Z" fill="white"/>
<path d="M116.503 36.7032C116.643 36.4973 116.612 36.2055 116.409 36.051L114.939 34.8496C114.752 34.6951 114.486 34.7466 114.345 34.9526C114.205 35.1585 114.252 35.4503 114.439 35.6048L115.909 36.8062C116.096 36.9607 116.378 36.9264 116.518 36.7032H116.503Z" fill="white"/>
<path d="M116.987 36.0343C117.128 35.8283 117.081 35.5366 116.893 35.3821L115.424 34.1806C115.236 34.0262 114.971 34.0777 114.83 34.2836C114.689 34.4896 114.736 34.7814 114.924 34.9358L116.393 36.1373C116.581 36.2918 116.846 36.2403 116.987 36.0343Z" fill="white"/>
<path d="M117.409 35.3478C117.55 35.1418 117.503 34.85 117.315 34.6956L115.846 33.4941C115.658 33.3396 115.392 33.3911 115.252 33.5971C115.111 33.8031 115.158 34.0948 115.346 34.2493L116.815 35.4508C117.002 35.6052 117.268 35.5537 117.409 35.3478Z" fill="white"/>
<path d="M112.016 31.4512C112.016 31.4512 114.861 32.3265 115.361 32.6526C115.877 32.9787 117.44 34.8496 117.44 34.8496C117.44 34.8496 116.424 35.0727 116.158 35.5704C115.908 36.0853 115.361 37.4584 115.361 37.4584C115.361 37.4584 113.501 36.6346 112.782 35.9824C112.063 35.313 110.844 34.369 110.844 34.369L112 31.4512H112.016Z" fill="white"/>
<path d="M104.888 4.26421C103.872 2.8053 100.449 0.968801 98.2763 3.21723C96.0878 5.46566 96.4474 8.17751 97.1508 9.94535C97.6979 11.3356 98.3075 12.1595 99.6206 13.1378C99.8863 13.3437 102.45 14.3564 103.013 14.2534C103.388 14.1848 104.138 11.3528 104.247 11.3871C104.357 11.4214 104.67 11.3013 104.732 11.0781C104.81 10.7349 104.81 8.60659 104.92 8.40063C105.029 8.19467 106.076 5.94624 104.904 4.26421H104.888Z" fill="#FFBD95"/>
<path d="M105.42 5.68843C105.42 5.68843 103.606 4.04073 100.699 6.06603C100.074 6.49512 100.715 9.00101 100.543 9.17264C100.355 9.36144 98.8232 7.09585 98.8545 7.38763C99.1515 10.1853 98.1198 11.4897 97.9009 11.4726C97.2288 11.3867 95.7594 7.23316 97.2757 4.40117C98.7919 1.56917 101.793 1.84379 102.481 2.15274C103.169 2.44452 105.279 3.04524 105.42 5.7056V5.68843Z" fill="#8D3B26"/>
<path d="M99.9334 8.21144C100.027 9.10394 99.9647 10.2711 99.5114 10.3226C99.0581 10.374 98.636 9.70467 98.5422 8.81216C98.4484 7.91966 98.7142 7.1473 99.1519 7.0958C99.5895 7.04431 99.824 7.31893 99.9178 8.21144H99.9334Z" fill="#FFBD95"/>
<path d="M97.666 8.09078C97.7598 8.09078 98.0412 10.2019 98.5883 11.2832C99.1354 12.3645 100.167 13.4286 101.558 14.0122C101.777 14.1152 102.184 14.1495 102.184 14.1495C102.184 14.1495 101.777 13.7376 101.683 13.6689C100.167 12.7593 99.3699 11.6265 99.323 11.4892C99.2917 11.3519 100.183 9.89295 100.652 8.70866C100.824 8.24525 101.058 7.07812 101.058 7.07812H100.495C100.495 7.07812 100.417 7.86765 100.245 8.33107C99.7294 9.72132 98.9165 10.7855 98.9165 10.7855C98.9165 10.7855 98.6508 10.1332 98.4476 9.49819C98.2288 8.77732 98.135 7.69601 98.135 7.69601L97.6348 8.07361L97.666 8.09078Z" fill="#383838"/>
<path d="M87.3331 52.665C87.3331 52.665 87.4894 54.0038 87.1455 54.9135C86.8016 55.8231 86.4108 57.7283 86.3795 58.4492C86.3483 59.17 87.4894 60.1312 87.4894 60.1312L89.4902 60.1655C89.4902 60.1655 88.99 56.4582 88.7555 55.3426C88.5211 54.2269 89.0213 52.8882 89.0213 52.8882L87.3331 52.6822V52.665Z" fill="black"/>
<path d="M84.5663 37.1836C84.5663 37.1836 83.6284 40.5991 83.3158 44.3236C83.0032 48.0481 83.2689 50.1078 84.238 50.4167C85.2072 50.7085 86.7235 50.8458 87.2393 51.7383C87.7551 52.648 88.2553 53.7121 88.9588 53.6778C89.6622 53.6435 89.8966 47.3444 89.8498 43.208C89.8029 39.0716 88.99 37.7328 88.99 37.7328L84.5663 37.1836Z" fill="#191919"/>
<path d="M85.3484 29.2539C85.9268 28.8592 87.615 29.0308 87.9277 29.4771C88.4435 30.2323 88.678 33.2531 88.5217 33.8538C88.3653 34.4545 88.4748 36.9432 86.7397 37.1492C85.0046 37.3552 84.7545 35.8104 84.6607 34.7635C84.5669 33.7165 84.1761 30.0435 85.3328 29.2368L85.3484 29.2539Z" fill="#303030"/>
<path d="M88.5366 32.3779C88.5366 32.3779 88.6773 36.3599 86.6609 36.4457C85.2071 36.4972 85.0195 35.004 84.5975 35.0211C84.1754 35.0211 83.2532 35.5875 82.7999 35.433C82.3466 35.2786 80.7365 34.4032 80.1269 34.5577C79.5172 34.7122 74.2025 36.0853 74.3588 37.0293C74.5152 37.9904 77.7978 42.1783 81.4243 41.8351C85.0508 41.4918 85.9418 38.9687 86.739 38.9001C87.5362 38.8314 89.7246 40.5135 90.5531 38.9173C90.9283 38.1964 91.5535 32.4123 88.521 32.3779H88.5366Z" fill="#191919"/>
<path d="M84.6297 30.833C84.6297 30.833 79.1117 34.5232 76.4231 34.1113C71.3741 33.3389 70.6082 31.5539 69.1701 32.6352C68.4667 33.1673 69.7172 36.6858 72.3277 37.0462C74.9381 37.4238 86.271 36.4112 86.271 36.4112C86.271 36.4112 85.0986 35.8448 84.8172 33.768C84.5671 31.983 84.6453 30.833 84.6453 30.833H84.6297Z" fill="#303030"/>
<path d="M107.013 6.75246C107.075 6.39202 106.044 5.94577 106.044 5.65399C106.075 4.26374 105.575 1.51756 102.214 0.865347C97.4931 -0.0614862 95.039 4.76148 95.9769 7.83376C96.1801 8.48598 96.5083 9.25834 96.5865 9.34416C96.8366 9.60161 97.2118 8.7091 98.5717 8.15987C99.6659 7.71362 100.807 7.38751 101.776 7.35318C103.824 7.30169 106.919 7.18154 106.997 6.73529L107.013 6.75246Z" fill="#D2534D"/>
<path d="M68.873 20.1742C69.6859 18.681 71.7805 18.4236 73.5625 18.7325C75.3445 19.0414 79.6744 22.4398 81.6127 24.1219C83.551 25.8039 88.6938 31.6567 88.8657 33.476C89.0377 35.2954 87.6152 37.7498 84.8016 36.308C82.0035 34.8663 75.7665 31.1074 73.2499 29.0993C70.7332 27.0912 66.3876 24.7054 68.8574 20.1914L68.873 20.1742Z" fill="#DEDEDE"/>
<path d="M87.6762 32.6697C85.988 32.2406 81.6112 36.0509 80.7671 41.2C79.9074 46.3491 80.4232 51.9272 80.2513 52.8026C80.0793 53.6779 79.1571 55.5659 79.798 56.1838C80.4232 56.8188 83.909 55.995 83.909 55.2398C83.909 54.4846 83.6277 54.742 83.8465 52.9227C84.081 51.1034 86.4726 42.247 87.0979 40.2388C87.7231 38.2307 90.4118 33.3391 87.6762 32.6525V32.6697Z" fill="#DEDEDE"/>
<path d="M81.2688 55.7717C80.6435 55.1367 81.5501 53.2658 81.7221 52.3905C81.894 51.5152 81.3782 45.9198 82.2379 40.7879C82.6131 38.5567 83.6447 36.5828 84.8171 35.0896C81.7064 33.3561 76.8763 30.3868 74.7504 28.6704C73.0309 27.2973 70.4674 25.7526 69.7952 23.4699C69.7327 23.3326 69.6702 23.2124 69.6233 23.0579C68.6229 19.7282 70.1391 17.4626 72.3275 15.1455C72.2025 14.9052 72.0618 14.6993 71.9524 14.459C69.2325 17.188 66.9972 19.6424 68.1539 23.5042C68.2008 23.6415 68.2633 23.7788 68.3259 23.9161C68.998 26.1989 71.5616 27.7436 73.2811 29.1167C75.4226 30.833 80.2371 33.8023 83.3477 35.5359C82.1598 37.0291 81.1281 39.0029 80.7685 41.2342C79.9088 46.3832 80.4247 51.9614 80.2527 52.8368C80.0808 53.7121 79.1585 55.6001 79.7994 56.218C80.2527 56.6642 82.1285 56.3725 83.1758 55.909C82.3473 56.0635 81.5345 56.0635 81.2688 55.7889V55.7717Z" fill="#C2C2C2"/>
<path d="M81.4552 38.1271C81.4552 38.1271 80.2515 41.0621 80.0171 43.9284C79.7826 46.7948 80.2672 51.858 80.0171 52.4416C79.767 53.0251 79.1104 55.5139 79.1417 56.0803C79.173 56.6467 79.7044 57.728 79.7357 57.9339C79.767 58.1399 79.8139 58.9981 79.8139 58.9981L83.2059 59.4271L83.4873 58.6376C83.4873 58.6376 86.4104 59.6331 88.505 59.5645C90.584 59.4958 92.1471 59.204 92.3503 58.7749C92.5535 58.3458 92.2878 57.5563 90.5214 57.3504C88.7551 57.1444 85.363 54.7072 84.5502 54.0721C83.7374 53.4199 87.0044 40.9763 87.0044 40.9763C87.0044 40.9763 86.7542 38.5047 85.4412 37.8354C83.9249 37.0458 81.4708 38.1271 81.4708 38.1271H81.4552Z" fill="black"/>
<path d="M87.4587 53.2825L89.6158 53.5571C89.8503 53.5914 90.0691 53.3683 90.1004 53.0765C90.1316 52.7847 89.9441 52.5273 89.7096 52.493L87.5524 52.2183C87.318 52.184 87.0991 52.4071 87.0679 52.6989C87.0366 52.9907 87.2242 53.2482 87.4587 53.2825Z" fill="#303030"/>
<path d="M89.7567 52.9564L87.8966 52.8877C87.8966 52.8877 87.8653 54.2608 87.9435 54.8787C88.0216 55.4966 88.2248 58.2256 87.9904 59.0666C87.7559 59.9076 87.709 60.1307 87.709 60.1307H90.0224C90.0224 60.1307 90.2882 59.0151 90.21 57.9166C90.1319 56.8182 89.6473 55.2734 89.6317 54.6041C89.6317 53.9347 89.7723 52.9735 89.7723 52.9735L89.7567 52.9564Z" fill="#303030"/>
<path d="M95.242 15.7459C95.7578 16.7757 95.6015 17.9772 94.8825 18.4063C94.1634 18.8354 93.163 18.3376 92.6471 17.3078C92.1313 16.278 92.2876 15.0765 93.0067 14.6475C93.7257 14.2184 94.7261 14.7161 95.242 15.7459Z" fill="#DEDEDE"/>
<path d="M85.3325 28.0525C83.9413 26.4048 82.472 24.8773 81.6279 24.1392C81.1589 23.7273 80.5493 23.2124 79.8615 22.6803C79.924 22.5945 79.9709 22.4915 80.0335 22.4057C79.2206 21.9938 78.439 21.5475 77.6731 21.0326C77.548 20.9468 77.4386 20.861 77.3136 20.7752C76.4226 20.1573 75.6254 19.4364 74.8594 18.6641C74.5781 19.1446 74.5312 19.7797 75.2189 20.5177C76.8759 22.3027 85.5983 28.413 85.6608 28.4645C85.5514 28.3272 85.4263 28.1898 85.3169 28.0525H85.3325Z" fill="#C2C2C2"/>
<path d="M112.438 31.5883C112.438 31.5883 109.984 29.1682 107.124 27.366C104.263 25.5639 100.98 24.5684 99.6205 25.5124C98.2605 26.4564 98.3387 28.2929 99.9331 29.5801C101.528 30.8503 110.547 34.6091 110.844 34.6434C111.141 34.6777 112.438 31.6054 112.438 31.6054V31.5883Z" fill="#0D0D0D"/>
<ellipse cx="136.546" cy="28.6221" rx="1.39175" ry="0.506847" fill="#1F2326"/>
</g>
<defs>
<clipPath id="clip0_2239_30748">
<rect width="150" height="105.762" fill="white" transform="translate(0 0.745117)"/>
</clipPath>
</defs>
</svg>
