<svg width="150" height="106" viewBox="0 0 150 106" fill="none" xmlns="http://www.w3.org/2000/svg">
<g clip-path="url(#clip0_2239_30804)">
<path d="M93.7257 16.1236C93.7257 16.1236 95.0701 15.2353 95.9454 14.8425C98.1495 13.8347 100.838 13.049 100.838 13.049L100.338 5.90918C100.338 5.90918 98.3058 8.62504 94.4448 8.67628C93.5694 10.8968 92.866 13.7664 93.7101 16.1236H93.7257Z" fill="#FFA47C"/>
<path d="M44.6438 38.7041C44.6438 38.7041 45.3316 31.8376 39.0477 29.9757C32.9201 28.1652 23.8851 37.1839 12.1928 35.2708C7.83157 34.5534 3.37659 25.6201 3.37659 25.6201C3.37659 25.6201 2.18859 28.6434 2.84512 31.718C3.50164 34.7926 4.59585 36.1078 4.59585 36.1078C4.68963 36.4665 2.62627 35.527 1.53207 34.263C0.875545 33.5115 0.156496 31.4447 0.156496 31.4447C0.156496 31.4447 -1.09403 36.6202 3.61106 40.8904C3.90806 41.1637 0.500389 42.0519 0.500389 42.0519C0.500389 42.0519 2.28238 45.2461 5.8151 47.4495C8.9883 49.4309 12.99 50.4728 12.99 50.4728L7.65962 53.2741C7.65962 53.2741 13.2713 54.0769 14.9439 53.9402C16.1163 53.8548 19.055 52.4371 19.055 52.4371L16.7259 55.8704C16.7259 55.8704 20.0241 56.9465 27.6054 52.0784C35.2023 47.2274 44.6438 38.6699 44.6438 38.6699V38.7041Z" fill="#330E01"/>
<path d="M114.642 21.6914C115.158 22.0672 114.892 29.9415 109.014 31.53C103.153 33.1356 96.9156 32.1449 94.4615 34.6729C91.9917 37.2009 90.5223 39.4726 87.396 39.1822C85.3014 38.9773 83.832 37.9524 83.832 37.9524C83.832 37.9524 87.4585 38.4136 88.5527 37.5766C89.8814 36.5518 90.7412 34.8095 92.0855 32.6744C92.6951 31.7179 94.2895 30.9151 94.2895 30.9151C94.2895 30.9151 91.8979 30.471 90.4129 31.325C88.9279 32.1791 87.3022 32.8282 86.1924 32.6232C84.9419 32.4011 83.8633 30.5393 83.8633 30.5393C83.8633 30.5393 85.5828 31.53 86.7395 30.7955C87.8962 30.061 90.2566 27.7039 92.9296 27.8234C95.6026 27.943 94.1645 25.6883 91.8197 25.3638C90.8193 25.2272 89.1936 26.8498 89.1936 26.8498C89.1936 26.8498 89.8033 23.6557 92.9452 24.134C101.605 25.4663 102.637 22.6309 102.637 22.6309L114.704 21.6914H114.642Z" fill="#330E01"/>
<path d="M126.522 19.3345C126.944 19.8128 125.162 27.448 119.128 27.6529C113.079 27.8579 107.185 25.4495 104.294 27.3626C101.386 29.2585 99.5104 31.1374 96.5092 30.1297C94.5083 29.4464 93.2578 28.097 93.2578 28.097C93.2578 28.097 96.7124 29.3952 97.9316 28.8315C99.4323 28.1483 100.605 26.6281 102.34 24.8517C103.121 24.0489 104.825 23.6389 104.825 23.6389C104.825 23.6389 102.574 22.6482 100.949 23.1436C99.3228 23.6389 97.619 23.8951 96.5717 23.434C95.3993 22.9215 94.6959 20.8547 94.6959 20.8547C94.6959 20.8547 96.1965 22.2212 97.4627 21.76C98.7288 21.2988 101.496 19.5566 104.075 20.2911C106.67 21.0255 105.701 18.4805 103.465 17.6264C102.527 17.2678 100.605 18.4634 100.605 18.4634C100.605 18.4634 101.808 15.4743 104.794 16.687C113 20.0007 114.548 17.4556 114.548 17.4556L126.522 19.3345Z" fill="#330E01"/>
<path d="M138.667 20.1884C138.979 20.7692 135.618 27.7382 129.694 26.4059C123.77 25.0736 118.549 21.2304 115.329 22.3406C112.109 23.4509 109.873 24.8003 107.169 23.058C105.371 21.8965 104.449 20.2568 104.449 20.2568C104.449 20.2568 107.544 22.3919 108.842 22.1527C110.436 21.8624 111.921 20.6838 113.969 19.4027C114.891 18.822 116.642 18.8561 116.642 18.8561C116.642 18.8561 114.672 17.3189 112.984 17.3872C111.296 17.4555 109.592 17.2676 108.654 16.5502C107.622 15.7474 107.372 13.5611 107.372 13.5611C107.372 13.5611 108.529 15.2691 109.873 15.1496C111.218 15.03 114.266 14.0393 116.626 15.4058C118.987 16.7893 118.596 14.0735 116.595 12.6558C115.751 12.0579 113.641 12.7412 113.641 12.7412C113.641 12.7412 115.454 10.1449 118.096 12.075C125.364 17.3872 125.02 15.7816 127.428 15.3033C135.196 13.7148 138.667 20.1714 138.667 20.1714V20.1884Z" fill="#330E01"/>
<path d="M52.9289 38.9436C59.0721 36.5694 66.4815 42.1036 69.2639 46.1518C72.0619 50.2 71.5617 58.0913 70.5144 60.8755C67.5131 68.8694 63.2457 76.5045 63.449 77.1024C63.8085 78.1443 75.751 93.8758 76.4075 95.9938C76.6888 96.9162 77.5642 99.4442 77.7049 99.9224C77.8456 100.401 72.8435 101.204 72.8435 101.204C72.8435 101.204 71.1709 97.9411 71.0146 96.7625C70.3581 91.6382 56.743 81.6459 56.024 80.4331C55.3049 79.2204 57.0557 72.798 56.2272 70.5262C55.3987 68.2545 46.7545 62.7886 44.5036 58.7916C42.2683 54.7947 41.0646 43.5213 52.9133 38.9436H52.9289Z" fill="#1F2326"/>
<path d="M72.3265 100.469C72.3265 100.469 72.1701 102.792 72.514 103.099C72.8579 103.407 79.1418 106.071 80.0328 105.627C80.9238 105.183 78.9386 102.399 78.6729 101.408C78.4071 100.418 77.3129 98.8291 77.3129 98.8291L72.3108 100.469H72.3265Z" fill="#303030"/>
<path d="M107.232 42.0011C109.452 42.2915 112.5 43.5726 114.907 49.3972C117.314 55.2388 114.188 58.9454 113.844 61.3196C113.485 63.7964 124.052 74.5744 124.708 76.8974C125.365 79.2204 125.318 81.7142 124.458 82.8074C123.598 83.9006 121.597 85.1987 120.363 88.4783C119.128 91.7578 118.346 93.705 117.267 93.9612C116.189 94.2174 114.016 95.3619 113.36 95.8572C112.687 96.3526 111.828 97.2749 111.828 97.2749C111.828 97.2749 110.671 91.3308 111.312 91.6041C111.953 91.8944 112.875 92.5777 113.25 91.3479C113.625 90.118 115.329 89.0249 115.829 88.3758C116.33 87.7267 120.378 82.5 119.956 80.2282C119.55 77.9564 111.546 71.739 108.483 68.8011C105.419 65.8632 100.417 63.0448 99.3694 60.1581C98.1345 56.7078 97.1497 52.0447 98.0407 49.1068C98.9474 46.1689 102.246 41.335 107.216 41.9841L107.232 42.0011Z" fill="#1F2326"/>
<path d="M36.7963 41.9839C38.4532 36.8084 44.4401 31.8379 54.3974 32.8457C64.3547 33.8534 66.293 35.5786 80.8459 35.8519C88.943 36.0056 92.2882 33.2898 97.1652 29.8565C102.574 26.0645 112.187 21.5723 118.487 19.7446C124.442 18.0024 132.258 17.5753 135.994 20.2741C139.73 22.9729 132.477 35.4932 125.99 37.0476C122.754 37.8162 114.329 45.8784 114.579 47.3302C114.829 48.7821 117.048 53.0353 115.438 57.63C113.828 62.2248 103.402 72.1146 91.2409 71.5168C79.0795 70.919 65.824 62.7372 60.8532 62.0711C55.8824 61.4049 43.1427 65.1456 39.1723 60.6704C35.2019 56.1952 35.0456 47.5352 36.8276 41.9839H36.7963Z" fill="#0D0D0D"/>
<path d="M111.313 91.6205C111.313 91.6205 109.422 90.3394 108.843 90.9031C108.265 91.4667 106.592 97.1718 106.749 98.0941C106.905 99.0165 108.546 98.1795 109.406 98.0258C110.25 97.855 111.844 97.2913 111.844 97.2913L111.329 91.6205H111.313Z" fill="#191919"/>
<path d="M127.615 19.6418C126.537 22.2381 126.255 31.2227 128.131 34.041C130.007 36.8594 134.743 37.8842 136.869 38.7724C139.011 39.6606 140.84 40.0535 141.606 41.0783C142.372 42.1032 142.403 42.8035 142.903 43.1793C143.388 43.538 147.233 43.333 147.874 42.8548C148.515 42.3765 148.78 40.8905 149.296 40.2072C149.812 39.5411 150.234 38.0721 149.859 37.4743C149.484 36.8764 148.593 34.7755 147.467 34.0069C146.342 33.2382 142.966 29.0534 141.793 27.6015C140.636 26.1326 138.776 21.4182 136.244 20.0859C133.712 18.7707 128.991 16.2769 127.6 19.6247L127.615 19.6418Z" fill="#0D0D0D"/>
<path d="M131.07 20.7351C130.273 21.1621 129.023 19.1295 129.163 17.6434C129.304 16.1574 130.132 13.5269 131.023 12.7925C131.914 12.0751 131.571 13.9027 132.149 14.9447C132.712 15.9695 133.712 19.3003 131.07 20.7351Z" fill="#0D0D0D"/>
<path d="M140.183 40.3782C137.276 40.3782 130.523 40.3269 125.318 39.8487C113.25 38.7726 112.594 31.889 112.562 31.5986L113.344 31.5303C113.344 31.5303 114.032 37.9869 125.38 39.0117C132.118 39.6095 141.496 39.5241 141.59 39.5241V40.3782C141.59 40.3782 141.059 40.3782 140.168 40.3782H140.183Z" fill="#8F211D"/>
<path d="M142.074 36.8939C142.074 36.8939 142.105 35.4249 143.356 33.7339C144.435 32.282 145.388 31.9404 145.388 31.9404L146.576 33.2386C146.576 33.2386 145.482 33.751 144.732 34.8271C143.981 35.9032 143.637 37.7138 143.637 37.7138L142.074 36.8939Z" fill="#8F211D"/>
<path d="M141.669 37.4405C141.606 37.338 131.555 28.3193 131.555 28.3193L130.945 29.0197L141.028 37.9359L141.653 37.4235L141.669 37.4405Z" fill="#8F211D"/>
<path d="M133.603 37.6276C133.54 37.5251 132.524 35.3387 131.946 31.9055C131.446 28.9163 132.04 26.9349 132.665 25.0731C133.29 23.2113 135.619 19.7951 135.619 19.7951L134.384 19.2656C134.384 19.2656 130.898 23.9458 130.555 28.4893C130.211 33.0328 131.961 36.9785 131.961 36.9785L133.571 37.6276H133.603Z" fill="#8F211D"/>
<path d="M130.587 28.4899C130.43 28.507 128.68 26.7648 127.585 24.4759C126.272 21.743 126.35 18.8222 126.35 18.8222L127.148 18.6172C127.148 18.6172 127.148 22.0163 128.414 24.493C129.508 26.6452 130.79 27.5676 130.79 27.5676L130.602 28.507L130.587 28.4899Z" fill="#8F211D"/>
<path d="M142.45 40.5314C141.856 40.5314 141.309 40.2069 140.981 39.6774C140.715 39.2503 140.621 38.7379 140.715 38.2255C140.809 37.7131 141.075 37.286 141.465 36.9957C142.247 36.4149 143.388 36.6711 143.92 37.5252C144.185 37.9522 144.279 38.4646 144.185 38.977C144.092 39.4895 143.826 39.9165 143.435 40.2069C143.138 40.4289 142.81 40.5314 142.45 40.5314ZM142.45 37.4056C142.231 37.4056 142.028 37.4739 141.841 37.6106C141.59 37.7814 141.434 38.0547 141.372 38.3792C141.309 38.6867 141.372 39.0112 141.544 39.2845C141.872 39.814 142.575 39.9677 143.06 39.609C143.31 39.4382 143.466 39.1649 143.529 38.8404C143.591 38.5329 143.529 38.2084 143.357 37.9351C143.154 37.6106 142.81 37.4056 142.45 37.4056Z" fill="#E8A900"/>
<path d="M106.732 47.8087C108.827 48.6285 111.547 50.627 112.703 56.8957C113.845 63.1644 111.015 66.8709 109.218 68.2545C107.42 69.638 104.122 68.4424 103.653 68.9719C103.184 69.5014 109.155 80.399 109.311 82.8245C109.468 85.25 108.921 87.6584 107.858 88.5295C106.795 89.4006 104.575 90.1693 102.715 93.0559C100.855 95.9426 99.6824 97.6507 98.5725 97.6507C97.4627 97.6507 95.118 98.2315 94.3676 98.5389C93.6173 98.8464 92.5857 99.5467 92.5857 99.5467C92.5857 99.5467 92.6638 93.4659 93.2422 93.8929C93.8205 94.3199 94.5709 95.2081 95.1805 94.115C95.7901 93.0218 97.6815 92.3556 98.3068 91.8603C98.9164 91.3479 103.934 87.2314 103.997 84.9254C104.059 82.6195 97.5408 74.5915 95.1492 70.9874C92.7732 67.3834 91.6165 65.7778 93.1484 63.1644C94.6803 60.551 94.8366 55.1705 96.3216 52.523C97.8066 49.8754 102.011 45.981 106.717 47.8257L106.732 47.8087Z" fill="#0D0D0D"/>
<path d="M93.2572 93.8929C93.2572 93.8929 91.6784 92.1848 90.9907 92.5948C90.3029 93.0047 87.5205 98.1461 87.4736 99.0855C87.4267 100.025 89.2087 99.615 90.0684 99.6663C90.9281 99.7175 92.6007 99.5467 92.6007 99.5467L93.2572 93.8929Z" fill="#303030"/>
<path d="M51.2249 38.5328C57.9933 38.789 63.2143 47.227 64.496 52.3C65.7778 57.3731 62.5421 64.8032 60.5725 67.0579C54.8827 73.5316 48.4894 78.3484 48.4894 79.0146C48.4737 80.159 60.6663 85.8811 61.2759 86.6497C61.8856 87.4184 63.4018 94.3361 63.3706 94.8485C63.3393 95.361 58.3841 92.5085 58.3841 92.5085C58.3841 92.5085 58.3372 90.9883 57.3993 90.305C56.4614 89.6218 40.0171 81.3888 39.7357 79.9198C39.47 78.4509 44.9097 73.8049 44.9097 71.2598C44.9097 68.7148 36.9377 58.9957 36.1717 54.196C35.4058 49.3963 38.1726 38.0033 51.2405 38.5158L51.2249 38.5328Z" fill="#0D0D0D"/>
<path d="M58.368 92.5088C58.368 92.5088 56.8205 94.251 56.9143 94.7464C57.008 95.2417 59.8842 100.725 60.869 101.015C61.8538 101.305 62.4634 98.88 62.8542 97.9064C63.2606 96.9327 63.3388 94.866 63.3388 94.866L58.3524 92.5259L58.368 92.5088Z" fill="#303030"/>
<path d="M66.7157 52.0275C68.357 53.2061 72.3274 54.5384 80.7059 55.0679C83.6446 55.2558 90.1317 55.7341 96.9002 54.231C100.152 53.5136 94.7743 31.4963 94.3366 31.5646C93.8989 31.6329 91.1947 34.6563 82.7693 35.2199C71.7803 35.9373 65.5746 34.5708 65.5746 34.5708C65.5746 34.5708 65.09 50.866 66.7313 52.0446L66.7157 52.0275Z" fill="#8F211D"/>
<path d="M85.1289 34.9293C85.1289 34.9293 87.2235 43.7431 87.6143 52.3177C88.1302 63.574 87.1454 71.3799 87.1454 71.3799L92.2569 71.9607C92.2569 71.9607 93.2417 63.369 92.3507 51.327C91.6629 42.0862 89.6308 34.2119 89.6308 34.2119L85.1445 34.9293H85.1289Z" fill="black"/>
<path d="M94.0232 7.12114C92.804 6.62579 87.3486 7.47983 89.5995 7.17238C89.7089 7.17238 86.1762 7.63356 85.5041 7.66772C84.8944 7.70189 77.6883 7.92394 73.8429 11.3572C73.2177 11.9209 71.5607 12.5699 71.9515 14.0389C73.5147 17.6088 76.6097 20.2393 80.033 21.9474C81.1429 22.7502 82.1433 21.2983 83.2844 21.0421C85.5978 20.5296 89.6308 21.1104 92.5695 20.6663C95.5082 20.2222 97.4153 18.2237 97.9155 16.0032C98.4157 13.7998 97.4778 8.53885 94.0389 7.10405L94.0232 7.12114Z" fill="#8F211D"/>
<path d="M71.9524 14.0566C69.2325 16.7725 66.9972 19.2151 68.1539 23.0583C69.1074 26.2182 75.2663 25.9962 77.5641 24.8347C78.7365 24.2369 79.3773 23.0583 80.0339 21.9651C76.6106 20.2741 73.5155 17.6436 71.9524 14.0566Z" fill="#DEDEDE"/>
<path d="M92.5537 11.0331C94.3044 10.2132 95.9457 12.075 97.2744 14.7738C98.6031 17.4726 101.901 23.8779 102.136 25.5518C102.37 27.2257 100.901 29.6171 99.1033 28.1994C97.3213 26.7816 92.6475 20.7008 91.5845 18.4291C90.5216 16.1573 88.7083 12.8095 92.5381 11.0331H92.5537Z" fill="#FFEB3A"/>
<path d="M115.971 36.8765C116.112 36.6715 116.065 36.3812 115.878 36.2274L114.408 35.0318C114.221 34.878 113.955 34.9293 113.814 35.1343C113.674 35.3392 113.72 35.6296 113.908 35.7833L115.377 36.979C115.565 37.1327 115.831 37.0986 115.971 36.8765Z" fill="#DEDEDE"/>
<path d="M116.503 36.2105C116.643 36.0055 116.612 35.7151 116.409 35.5614L114.939 34.3658C114.752 34.212 114.486 34.2633 114.345 34.4682C114.205 34.6732 114.252 34.9636 114.439 35.1173L115.909 36.313C116.096 36.4667 116.378 36.4325 116.518 36.2105H116.503Z" fill="#DEDEDE"/>
<path d="M116.987 35.5445C117.128 35.3395 117.081 35.0491 116.893 34.8954L115.424 33.6997C115.236 33.546 114.971 33.5973 114.83 33.8022C114.689 34.0072 114.736 34.2976 114.924 34.4513L116.393 35.647C116.581 35.8007 116.846 35.7494 116.987 35.5445Z" fill="#DEDEDE"/>
<path d="M117.409 34.8609C117.55 34.6559 117.503 34.3655 117.315 34.2118L115.846 33.0161C115.658 32.8624 115.392 32.9137 115.252 33.1186C115.111 33.3236 115.158 33.614 115.346 33.7677L116.815 34.9634C117.002 35.1171 117.268 35.0658 117.409 34.8609Z" fill="#DEDEDE"/>
<path d="M112.016 30.9834C112.016 30.9834 114.861 31.8545 115.361 32.1791C115.877 32.5036 117.44 34.3654 117.44 34.3654C117.44 34.3654 116.424 34.5875 116.158 35.0828C115.908 35.5952 115.361 36.9617 115.361 36.9617C115.361 36.9617 113.501 36.1418 112.782 35.4928C112.063 34.8266 110.844 33.8872 110.844 33.8872L112 30.9834H112.016Z" fill="#DEDEDE"/>
<path d="M104.888 3.92792C103.872 2.47605 100.449 0.648392 98.2763 2.88599C96.0878 5.12359 96.4474 7.82237 97.1508 9.5817C97.6979 10.9653 98.3075 11.7851 99.6206 12.7587C99.8863 12.9637 102.45 13.9715 103.013 13.869C103.388 13.8007 104.138 10.9823 104.247 11.0165C104.357 11.0507 104.67 10.9311 104.732 10.709C104.81 10.3674 104.81 8.24939 104.92 8.04442C105.029 7.83945 106.076 5.60185 104.904 3.92792H104.888Z" fill="#FFBD95"/>
<path d="M105.42 5.34531C105.42 5.34531 103.606 3.70554 100.699 5.72109C100.074 6.14811 100.715 8.64192 100.543 8.81273C100.355 9.00062 98.8232 6.74594 98.8545 7.03632C99.1515 9.82051 98.1198 11.1187 97.9009 11.1016C97.2288 11.0162 95.7594 6.88259 97.2757 4.06424C98.7919 1.24589 101.793 1.51919 102.481 1.82665C103.169 2.11702 105.279 2.71485 105.42 5.36239V5.34531Z" fill="#8D3B26"/>
<path d="M99.9334 7.85642C100.027 8.74463 99.9647 9.90613 99.5114 9.95738C99.0581 10.0086 98.636 9.34246 98.5422 8.45426C98.4484 7.56605 98.7142 6.79741 99.1519 6.74617C99.5895 6.69492 99.824 6.96822 99.9178 7.85642H99.9334Z" fill="#FFBD95"/>
<path d="M97.666 7.73629C97.7598 7.73629 98.0412 9.83724 98.5883 10.9133C99.1354 11.9894 100.167 13.0484 101.558 13.6292C101.777 13.7317 102.184 13.7658 102.184 13.7658C102.184 13.7658 101.777 13.3559 101.683 13.2876C100.167 12.3823 99.3699 11.255 99.323 11.1183C99.2917 10.9817 100.183 9.52978 100.652 8.3512C100.824 7.89002 101.058 6.72852 101.058 6.72852H100.495C100.495 6.72852 100.417 7.51424 100.245 7.97542C99.7294 9.35897 98.9165 10.418 98.9165 10.418C98.9165 10.418 98.6508 9.76891 98.4476 9.13692C98.2288 8.41952 98.135 7.34343 98.135 7.34343L97.6348 7.71921L97.666 7.73629Z" fill="#383838"/>
<path d="M87.3331 52.0947C87.3331 52.0947 87.4894 53.427 87.1455 54.3323C86.8016 55.2376 86.4108 57.1336 86.3795 57.851C86.3483 58.5684 87.4894 59.5249 87.4894 59.5249L89.4902 59.5591C89.4902 59.5591 88.99 55.8696 88.7555 54.7593C88.5211 53.6491 89.0213 52.3168 89.0213 52.3168L87.3331 52.1118V52.0947Z" fill="black"/>
<path d="M84.5663 36.6885C84.5663 36.6885 83.6284 40.0876 83.3158 43.7941C83.0032 47.5007 83.2689 49.5504 84.238 49.8578C85.2072 50.1482 86.7235 50.2849 87.2393 51.1731C87.7551 52.0784 88.2553 53.1374 88.9588 53.1032C89.6622 53.0691 89.8966 46.8004 89.8498 42.6839C89.8029 38.5674 88.99 37.2351 88.99 37.2351L84.5663 36.6885Z" fill="#191919"/>
<path d="M85.3484 28.7968C85.9268 28.404 87.615 28.5748 87.9277 29.0189C88.4435 29.7704 88.678 32.7767 88.5217 33.3745C88.3653 33.9723 88.4748 36.4491 86.7397 36.654C85.0046 36.859 84.7545 35.3217 84.6607 34.2798C84.5669 33.2379 84.1761 29.5826 85.3328 28.7797L85.3484 28.7968Z" fill="#303030"/>
<path d="M88.5366 31.9053C88.5366 31.9053 88.6773 35.868 86.6608 35.9534C85.2071 36.0047 85.0195 34.5186 84.5975 34.5357C84.1754 34.5357 83.2532 35.0994 82.7999 34.9457C82.3466 34.7919 80.7365 33.9208 80.1269 34.0745C79.5172 34.2283 74.2025 35.5947 74.3588 36.5342C74.5152 37.4907 77.7978 41.6585 81.4243 41.3168C85.0508 40.9752 85.9418 38.4643 86.739 38.396C87.5362 38.3277 89.7246 40.0016 90.5531 38.4131C90.9283 37.6957 91.5535 31.9394 88.521 31.9053H88.5366Z" fill="#191919"/>
<path d="M84.6297 30.3682C84.6297 30.3682 79.1117 34.0406 76.4231 33.6306C71.3741 32.862 70.6082 31.0856 69.1701 32.1617C68.4667 32.6912 69.7172 36.1927 72.3277 36.5514C74.9381 36.9272 86.271 35.9195 86.271 35.9195C86.271 35.9195 85.0986 35.3558 84.8172 33.289C84.5671 31.5126 84.6453 30.3682 84.6453 30.3682H84.6297Z" fill="#303030"/>
<path d="M107.013 6.4042C107.075 6.0455 106.044 5.6014 106.044 5.31102C106.075 3.92747 105.575 1.19452 102.214 0.545451C97.4931 -0.376918 95.039 4.42281 95.9769 7.48029C96.1801 8.12937 96.5083 8.89801 96.5865 8.98341C96.8366 9.23963 97.2118 8.35142 98.5717 7.80483C99.6659 7.36073 100.807 7.03619 101.776 7.00203C103.824 6.95079 106.919 6.83122 106.997 6.38712L107.013 6.4042Z" fill="#FFEB3A"/>
<path d="M68.873 19.7615C69.6859 18.2754 71.7805 18.0192 73.5625 18.3267C75.3445 18.6341 79.6744 22.0161 81.6127 23.6901C83.551 25.364 88.6938 31.1886 88.8657 32.9992C89.0377 34.8097 87.6152 37.2523 84.8016 35.8175C82.0035 34.3827 75.7665 30.642 73.2499 28.6435C70.7332 26.6451 66.3876 24.2708 68.8574 19.7786L68.873 19.7615Z" fill="#DEDEDE"/>
<path d="M87.6762 32.1959C85.988 31.7689 81.6112 35.5608 80.7671 40.6851C79.9074 45.8094 80.4232 51.3606 80.2513 52.2318C80.0793 53.1029 79.1571 54.9818 79.798 55.5967C80.4232 56.2287 83.909 55.4088 83.909 54.6573C83.909 53.9057 83.6277 54.1619 83.8465 52.3513C84.081 50.5408 86.4726 41.727 87.0979 39.7286C87.7231 37.7301 90.4118 32.862 87.6762 32.1788V32.1959Z" fill="#DEDEDE"/>
<path d="M81.2688 55.187C80.6435 54.555 81.5501 52.6931 81.7221 51.822C81.894 50.9509 81.3782 45.3825 82.2379 40.2753C82.6131 38.0548 83.6447 36.0905 84.8171 34.6045C81.7064 32.8793 76.8763 29.9243 74.7504 28.2162C73.0309 26.8498 70.4674 25.3125 69.7952 23.0407C69.7327 22.9041 69.6702 22.7845 69.6233 22.6308C68.6229 19.3171 70.1391 17.0624 72.3275 14.7565C72.2025 14.5173 72.0618 14.3124 71.9524 14.0732C69.2325 16.7891 66.9972 19.2317 68.1539 23.0749C68.2008 23.2115 68.2633 23.3482 68.3259 23.4848C68.998 25.7566 71.5616 27.2939 73.2811 28.6603C75.4226 30.3684 80.2371 33.3234 83.3477 35.0486C82.1598 36.5346 81.1281 38.4989 80.7685 40.7194C79.9088 45.8437 80.4247 51.395 80.2527 52.2661C80.0808 53.1373 79.1585 55.0162 79.7994 55.6311C80.2527 56.0752 82.1285 55.7848 83.1758 55.3236C82.3473 55.4773 81.5345 55.4773 81.2688 55.204V55.187Z" fill="#C2C2C2"/>
<path d="M81.4552 37.6283C81.4552 37.6283 80.2515 40.5491 80.0171 43.4016C79.7826 46.2541 80.2672 51.293 80.0171 51.8737C79.767 52.4545 79.1104 54.9312 79.1417 55.4949C79.173 56.0585 79.7044 57.1346 79.7357 57.3396C79.767 57.5446 79.8139 58.3986 79.8139 58.3986L83.2059 58.8256L83.4873 58.0399C83.4873 58.0399 86.4104 59.0306 88.505 58.9623C90.584 58.894 92.1471 58.6036 92.3503 58.1766C92.5535 57.7496 92.2878 56.9638 90.5214 56.7589C88.7551 56.5539 85.363 54.1284 84.5502 53.4964C83.7374 52.8473 87.0044 40.4637 87.0044 40.4637C87.0044 40.4637 86.7542 38.004 85.4412 37.3379C83.9249 36.5522 81.4708 37.6283 81.4708 37.6283H81.4552Z" fill="black"/>
<path d="M87.4587 52.71L89.6158 52.9832C89.8503 53.0174 90.0691 52.7954 90.1004 52.505C90.1316 52.2146 89.9441 51.9584 89.7096 51.9242L87.5524 51.6509C87.318 51.6168 87.0991 51.8388 87.0679 52.1292C87.0366 52.4196 87.2242 52.6758 87.4587 52.71Z" fill="#303030"/>
<path d="M89.7567 52.3857L87.8966 52.3174C87.8966 52.3174 87.8653 53.6839 87.9435 54.2988C88.0216 54.9137 88.2248 57.6295 87.9904 58.4665C87.7559 59.3035 87.709 59.5255 87.709 59.5255H90.0224C90.0224 59.5255 90.2882 58.4153 90.21 57.3221C90.1319 56.2289 89.6473 54.6916 89.6317 54.0255C89.6317 53.3593 89.7723 52.4028 89.7723 52.4028L89.7567 52.3857Z" fill="#303030"/>
<path d="M95.242 15.3541C95.7578 16.379 95.6015 17.5747 94.8825 18.0017C94.1634 18.4287 93.163 17.9334 92.6471 16.9085C92.1313 15.8837 92.2876 14.688 93.0067 14.261C93.7257 13.8339 94.7261 14.3293 95.242 15.3541Z" fill="#DEDEDE"/>
<path d="M85.3325 27.6011C83.9413 25.9613 82.472 24.4411 81.6279 23.7066C81.1589 23.2967 80.5493 22.7842 79.8615 22.2547C79.924 22.1693 79.9709 22.0669 80.0335 21.9814C79.2206 21.5715 78.439 21.1274 77.6731 20.615C77.548 20.5296 77.4386 20.4442 77.3136 20.3588C76.4226 19.7439 75.6254 19.0265 74.8594 18.2578C74.5781 18.7361 74.5312 19.3681 75.2189 20.1026C76.8759 21.879 85.5983 27.9598 85.6608 28.011C85.5514 27.8744 85.4263 27.7377 85.3169 27.6011H85.3325Z" fill="#C2C2C2"/>
<path d="M112.438 31.1198C112.438 31.1198 109.984 28.7114 107.124 26.9179C104.263 25.1244 100.98 24.1337 99.6205 25.0731C98.2605 26.0126 98.3387 27.8402 99.9331 29.1213C101.528 30.3853 110.547 34.126 110.844 34.1602C111.141 34.1943 112.438 31.1368 112.438 31.1368V31.1198Z" fill="#FFEB3A"/>
<ellipse cx="135.927" cy="27.8316" rx="1.39175" ry="0.504405" fill="#303030"/>
</g>
<defs>
<clipPath id="clip0_2239_30804">
<rect width="150" height="105.252" fill="white" transform="translate(0 0.425781)"/>
</clipPath>
</defs>
</svg>
