<svg width="182" height="154" viewBox="0 0 182 154" fill="none" xmlns="http://www.w3.org/2000/svg">
<g clip-path="url(#clip0_2239_34297)">
<path d="M176.505 56.1715C177.684 56.2093 178.601 55.9332 179.292 55.4072L176.141 56.1338L176.505 56.1715Z" fill="#009BB9"/>
<path d="M135.019 46.2009C135.39 46.1719 135.763 46.1544 136.143 46.1544C137.908 46.1544 139.58 46.4857 141.098 47.067L141.068 46.4857C140.955 44.0562 139.726 41.7081 137.745 40.4207C136.767 39.7756 135.629 39.4065 134.477 39.389C133.449 39.3426 132.437 39.607 131.529 40.0749C133.557 41.2635 134.964 43.5419 135.019 46.2009Z" fill="#E2F3FE"/>
<path d="M21.227 52.5832C23.4009 50.8716 26.2781 49.8225 29.4413 49.8225L29.4763 49.8225C29.453 49.3923 29.4413 48.9622 29.4413 48.5292C29.4413 33.5018 43.4714 21.3194 60.7814 21.3194C66.174 21.3194 71.2456 22.5051 75.6752 24.5859C73.0752 23.066 70.2943 21.8454 67.4025 20.9881C64.0146 19.9739 60.4808 19.4741 56.9354 19.3665C53.3928 19.3549 49.8299 19.6455 46.3778 20.497C42.9345 21.3601 39.5991 22.6621 36.5031 24.4173C33.4128 26.1784 30.6348 28.4655 28.2653 31.1072C25.9017 33.7546 23.9816 36.8031 22.7035 40.1248C21.4458 43.461 20.9497 47.0355 20.9906 50.6042L20.9906 50.7553C21.0519 51.3656 21.1365 51.9759 21.224 52.5832L21.227 52.5832Z" fill="#E2F3FE"/>
<path d="M103.621 127.122C101.946 126.755 100.361 126.192 98.9342 125.419C93.2907 132.597 83.7953 137.31 73.0305 137.31C57.7574 137.31 45.0404 127.825 42.2566 115.271C41.3053 115.843 40.211 116.168 39.0467 116.168C38.0721 116.168 37.1558 115.927 36.3241 115.518C36.0061 116.831 35.8135 118.162 35.7493 119.481C35.6413 121.632 35.8923 123.748 36.4146 125.741L36.3825 125.747C37.8474 131.983 41.6467 137.531 46.6337 141.562C51.6002 145.68 57.8128 148.165 64.1742 149.208C70.5735 150.115 77.215 149.615 83.2788 147.432C89.2638 145.302 94.6768 141.614 98.6045 136.729C99.9672 135.038 101.105 132.983 102.083 130.862C102.637 129.641 103.145 128.392 103.618 127.122L103.621 127.122Z" fill="#E2F3FE"/>
<path d="M125.325 40.0086C126.244 39.4855 127.292 39.1862 128.401 39.1862C128.681 39.1862 128.946 39.2385 129.218 39.2734L129.442 39.0293C128.552 36.5417 127.134 34.2429 125.194 32.4731C123.11 30.5667 120.528 29.195 117.77 28.7155C115.024 28.2186 112.138 28.4395 109.556 29.4886L109.34 29.5932C110.075 29.474 110.819 29.3868 111.587 29.3868C118.074 29.3868 123.551 33.8651 125.322 40.0086L125.325 40.0086Z" fill="#E2F3FE"/>
<path d="M9.83702 70.8219L9.19504 70.9614C8.02781 71.2143 6.90436 71.6938 5.98808 72.4261C5.07473 73.1439 4.36272 74.1204 4.12635 75.2101C3.87832 76.2999 4.11468 77.4566 4.73331 78.401C5.35486 79.3484 6.30323 80.0953 7.36833 80.5893L7.77102 80.7753L11.4828 81.7663L7.30121 81.7896C3.99796 84.591 1.4855 88.3428 0.484603 92.5218C0.248239 93.5883 0.0848274 94.6694 0.0235479 95.7592C-0.0464858 96.849 0.070237 97.9358 0.140271 99.0198C0.44375 101.176 1.0974 103.269 2.06911 105.21C4.07091 109.069 7.3158 112.251 11.1472 114.323C14.9641 116.453 19.3353 117.468 23.6803 117.564L24.8738 117.59L24.8884 118.802C24.9147 121.156 26.0877 123.46 27.9874 124.692C29.5019 125.738 31.4628 125.936 33.1495 125.332C33.2049 123.222 33.5142 121.147 34.1124 119.194C34.5414 117.799 35.1017 116.459 35.7757 115.198C33.7827 113.963 32.4229 111.661 32.4229 108.994L32.4229 108.979C20.6718 108.68 11.2494 100.319 11.2494 90.0458C11.2494 84.6288 13.8698 79.7495 18.066 76.297C16.1605 75.399 14.8882 73.7803 14.8882 71.9321C14.8882 69.5723 16.9629 67.5875 19.7818 67.0004C18.1593 65.1957 17.1876 62.929 17.1876 60.4617C17.1876 57.8491 18.2761 55.4603 20.0765 53.6091C19.8985 52.8826 19.738 52.1503 19.5921 51.4121C17.4911 51.4848 15.4018 51.9468 13.5225 52.871C12.472 53.365 11.5237 54.0334 10.6307 54.7599C9.7699 55.5271 9.00245 56.3903 8.37214 57.3464C7.77394 58.3228 7.29246 59.369 7.00649 60.4762C6.75845 61.5864 6.62714 62.7343 6.73219 63.8735C6.92186 66.0705 7.88191 68.1629 9.32635 69.86C11.0597 69.9385 12.7201 70.2175 14.3746 70.5517C12.8514 70.5604 11.3136 70.6185 9.8341 70.8248L9.83702 70.8219Z" fill="#E2F3FE"/>
<path d="M92.1207 31.7372C95.4181 31.7372 98.3654 33.0392 100.323 35.0792C100.455 34.9078 100.604 34.7509 100.744 34.5823C99.0103 32.8474 96.6291 31.7285 94.14 31.4176C92.0098 31.1386 89.8184 31.4437 87.8574 32.2458L87.9771 32.4667C89.2523 31.9988 90.65 31.7343 92.1207 31.7343L92.1207 31.7372Z" fill="#E2F3FE"/>
<path d="M148.393 56.7884C148.393 57.2272 148.358 57.6573 148.299 58.0787C160.319 61.4962 169.003 71.3101 169.003 82.888C169.003 97.3052 155.542 108.991 138.938 108.991C138.238 108.991 137.546 108.967 136.857 108.927C137.211 110.104 137.517 111.304 137.742 112.533C137.955 113.707 138.054 114.91 138.083 116.131C145.51 117.872 153.52 117.311 160.625 114.486C168.101 111.519 174.606 105.823 177.818 98.4327C179.432 94.7565 180.115 90.6967 179.902 86.6659C179.654 82.6323 178.361 78.6829 176.345 75.1374C174.267 71.624 171.486 68.4767 168.162 66.0007C167.316 65.4049 166.499 64.7627 165.595 64.2483L164.261 63.4346L162.875 62.7139C161.964 62.1995 160.987 61.8304 160.036 61.4003C159.067 60.9906 157.967 60.6331 156.986 60.2466L157.018 58.6889C156.972 58.2065 156.957 57.7328 156.872 57.262C156.692 56.3263 156.449 55.3992 156.023 54.5507C155.233 52.8302 154.016 51.3162 152.516 50.1683C149.747 48.0003 146.181 47.0122 142.711 47.1866C142.661 47.3726 142.615 47.5586 142.559 47.7388C146.052 49.6132 148.384 52.9552 148.384 56.7825L148.393 56.7884Z" fill="#E2F3FE"/>
<path d="M134.945 108.755C133.367 108.572 131.823 108.293 130.332 107.906C129.635 111.059 127.017 113.407 123.892 113.407C123.892 115.822 123.191 118.095 121.963 120.083C122.126 120.182 122.287 120.298 122.456 120.391C123.521 120.992 124.645 121.428 125.762 121.733C126.538 121.943 127.318 122.033 128.082 122.056L128.689 122.062C128.829 122.062 128.969 122.062 129.109 122.059C130.387 122.05 131.642 121.562 132.637 120.684C133.656 119.798 134.403 118.548 134.721 117.18L135.024 115.878C135.17 114.855 135.278 113.814 135.263 112.754C135.246 111.431 135.138 110.089 134.94 108.752L134.945 108.755Z" fill="#E2F3FE"/>
<path d="M121.491 121.733C121.351 121.608 121.229 121.469 121.095 121.341C118.162 125.098 113.201 127.571 107.581 127.571C106.481 127.571 105.422 127.444 104.383 127.263C104.19 128.635 103.954 130.007 103.662 131.378C103.277 133.09 102.813 134.799 102.156 136.496C104.429 137.557 106.919 138.176 109.446 138.272C112.337 138.371 115.235 137.859 117.867 136.723C120.508 135.627 122.837 133.823 124.526 131.599C125.393 130.495 126 129.234 126.49 127.946C126.834 126.97 127.03 125.956 127.129 124.927C126.341 124.697 125.58 124.41 124.868 124.041C123.627 123.393 122.495 122.622 121.494 121.73L121.491 121.733Z" fill="#E2F3FE"/>
<path d="M29.4412 48.5291C29.4412 48.965 29.4529 49.3951 29.4763 49.8223L29.4412 49.8223C26.2751 49.8223 23.4008 50.8744 21.2269 52.5831C21.5654 54.9574 22.0965 57.3143 22.8727 59.6043C23.3571 61.0428 23.9203 62.461 24.5827 63.8326C25.2042 65.0852 25.8637 66.3348 26.7041 67.4624C26.8558 67.2502 27.0134 67.0439 27.1856 66.8463C27.9705 65.9425 28.9247 65.1782 30.0044 64.6609C31.0724 64.1378 32.2951 63.8646 33.4536 64.0186C32.3039 64.2192 31.2855 64.6958 30.3458 65.2741C29.4179 65.8698 28.5746 66.5934 27.8684 67.4304C26.424 69.0927 25.5485 71.1589 25.175 73.4431C24.8599 71.403 25.4552 69.2205 26.6837 67.4885C25.747 66.4249 24.9795 65.2218 24.2471 64.0099C23.465 62.6789 22.7764 61.2927 22.1665 59.8687C21.2911 57.8519 20.6083 55.7508 20.0772 53.6061C18.2767 55.4573 17.1883 57.8461 17.1883 60.4587C17.1883 62.9259 18.1571 65.1927 19.7824 66.9974C16.9636 67.5844 14.8888 69.5693 14.8888 71.929C14.8888 73.7773 16.1611 75.396 18.0666 76.294C13.8704 79.7464 11.25 84.6287 11.25 90.0427C11.25 100.319 20.6724 108.677 32.4235 108.976L32.4235 108.99C32.4235 111.658 33.7804 113.96 35.7735 115.195C36.1674 114.46 36.5905 113.742 37.0778 113.076C36.7568 113.876 36.5205 114.692 36.3191 115.518C37.1537 115.927 38.07 116.169 39.0417 116.169C40.2089 116.169 41.3003 115.84 42.2516 115.271C45.0325 127.825 57.7524 137.31 73.0255 137.31C83.7903 137.31 93.2857 132.597 98.9292 125.419C100.356 126.192 101.941 126.755 103.616 127.122C104.036 126 104.427 124.861 104.777 123.71C104.684 124.896 104.544 126.081 104.377 127.264C105.416 127.444 106.475 127.572 107.575 127.572C113.199 127.572 118.156 125.099 121.089 121.341C119.292 119.641 117.815 117.703 116.703 115.602C118.221 117.395 120.024 118.912 121.962 120.083C123.19 118.092 123.89 115.82 123.89 113.408C127.016 113.408 129.633 111.063 130.331 107.907C131.822 108.293 133.365 108.572 134.944 108.755C134.906 108.505 134.892 108.258 134.845 108.008C134.296 104.841 133.342 101.685 131.962 98.6942C133.824 101.42 135.326 104.416 136.45 107.596C136.61 108.031 136.727 108.482 136.858 108.927C137.547 108.967 138.239 108.99 138.939 108.99C155.543 108.99 169.004 97.3051 169.004 82.8879C169.004 71.31 160.32 61.4932 148.3 58.0786C148.358 57.6543 148.393 57.2242 148.393 56.7883C148.393 52.9638 146.059 49.6189 142.569 47.7445C141.994 49.6451 141.078 51.3161 140.054 52.8883C140.684 50.979 141.119 48.9621 141.098 47.0761L141.098 47.0645C139.581 46.4832 137.909 46.1519 136.143 46.1519C135.764 46.1519 135.391 46.1694 135.02 46.1984C134.964 43.5394 133.561 41.261 131.53 40.0724L131.197 40.238L130.929 40.3979L130.961 40.4386C128.947 41.5487 127.2 43.5335 125.875 45.7015C126.21 44.4606 126.689 43.2487 127.296 42.0747C127.804 41.0953 128.431 40.1479 129.216 39.2732C128.945 39.2354 128.679 39.186 128.399 39.186C127.287 39.186 126.242 39.4824 125.323 40.0084C123.552 33.865 118.075 29.3867 111.588 29.3867C110.82 29.3867 110.076 29.4709 109.341 29.593C106.843 30.6334 104.652 32.3654 103.026 34.5275L102.014 35.876L100.82 34.6554L100.738 34.5857C100.598 34.7513 100.45 34.9082 100.318 35.0826C98.3631 33.0396 95.4159 31.7406 92.1156 31.7406C90.6448 31.7406 89.2471 32.008 87.9719 32.4729C88.7714 34.0509 89.428 35.6813 89.9562 37.3407C90.6653 39.5202 91.0971 41.7608 91.4006 43.9956C91.6924 46.2362 91.8208 48.4826 91.78 50.7261C91.7129 52.958 91.5991 55.2132 91.0213 57.3695C91.3714 55.1725 91.2576 52.9435 91.103 50.7465C90.9162 48.5466 90.569 46.367 90.0641 44.2368C89.5506 42.1096 88.9203 40.0143 88.0478 38.0381C87.1869 36.0591 86.1423 34.1846 84.905 32.4758L84.9342 32.4555L84.8204 32.316C82.2875 29.2065 79.1506 26.6201 75.6722 24.5858C71.2426 22.505 66.171 21.3193 60.7784 21.3193C43.4713 21.3193 29.4383 33.5017 29.4383 48.5291L29.4412 48.5291ZM125.673 60.5517L125.951 60.851C126.505 60.1157 127.179 59.4764 127.952 59.0114C129.09 58.3227 130.38 57.9681 131.647 57.9013C134.191 57.7647 136.698 58.7586 138.364 60.5052C136.491 58.9766 133.993 58.3895 131.752 58.7935C130.631 58.994 129.575 59.4473 128.726 60.1216C127.993 60.7028 127.448 61.4525 127.083 62.2779C127.445 62.8504 127.742 63.4607 127.949 64.1029C128.396 65.431 128.492 66.8753 128.119 68.1831C127.734 66.8811 127.267 65.7245 126.654 64.6667C126.035 63.6205 125.309 62.6644 124.433 61.8652C123.581 61.0428 122.589 60.3831 121.501 59.9007C120.403 59.4328 119.201 59.1684 117.835 59.2032C118.976 58.4447 120.508 58.2617 121.909 58.561C123.327 58.8429 124.62 59.5897 125.67 60.5546L125.673 60.5517ZM80.1952 110.612C80.3324 110.743 80.452 110.891 80.5833 111.028C81.3566 109.999 82.3021 109.107 83.3788 108.456C84.9721 107.491 86.7696 106.997 88.5468 106.904C92.1039 106.715 95.6056 108.104 97.9371 110.548C95.3196 108.412 91.8267 107.59 88.6897 108.156C87.1227 108.435 85.6462 109.069 84.4614 110.011C83.4401 110.824 82.6727 111.87 82.1649 113.024C82.6698 113.826 83.0841 114.678 83.3759 115.573C83.9975 117.43 84.1346 119.447 83.6152 121.277C83.0754 119.455 82.4217 117.84 81.5667 116.36C80.703 114.899 79.6846 113.562 78.4619 112.443C77.2713 111.292 75.8852 110.371 74.3649 109.697C72.8329 109.04 71.1492 108.674 69.2437 108.72C70.8399 107.66 72.9818 107.404 74.9369 107.825C76.9212 108.217 78.7245 109.264 80.1952 110.612ZM56.5939 75.3524C55.0269 75.6314 53.5474 76.2649 52.3627 77.2065C51.3414 78.0202 50.5739 79.0693 50.0662 80.2201C50.571 81.0222 50.9883 81.8737 51.2772 82.7688C51.9016 84.6258 52.0359 86.6455 51.5164 88.4734C50.9737 86.6513 50.32 85.0355 49.468 83.5563C48.6013 82.0946 47.5829 80.7578 46.3631 79.6389C45.1726 78.491 43.7836 77.5698 42.2632 76.8926C40.7313 76.2359 39.0475 75.8697 37.142 75.9162C38.7382 74.8555 40.8801 74.5997 42.8352 75.0182C44.8195 75.4105 46.6228 76.4567 48.0935 77.8052C48.2307 77.9359 48.3503 78.0841 48.4846 78.2236C49.2579 77.1949 50.2004 76.3027 51.2801 75.6517C52.8733 74.6869 54.6709 74.1929 56.448 74.0999C60.0051 73.911 63.5068 75.3001 65.8383 77.7412C63.2208 75.6052 59.7279 74.7828 56.5939 75.3524Z" fill="white"/>
<path d="M1.81848 92.1956C1.53543 93.3319 1.33408 94.4914 1.2407 95.6625C1.13857 96.8337 1.22611 98.0107 1.27572 99.1876C1.53543 101.53 2.18032 103.823 3.16663 105.962C5.20052 110.219 8.59424 113.741 12.6095 116.116C16.2892 118.345 20.5029 119.568 24.7749 119.937C25.0405 122.649 26.4032 125.296 28.7114 126.918C30.01 127.848 31.5974 128.4 33.214 128.455C34.212 128.507 35.2129 128.336 36.1612 128.016C37.8829 134.293 41.656 139.902 46.5496 144.061C51.878 148.641 58.5195 151.425 65.3448 152.634C72.1965 153.703 79.3195 153.241 85.926 150.919C89.2205 149.76 92.3778 148.176 95.2755 146.182C97.7442 144.456 99.9823 142.393 101.961 140.088C102.979 140.556 104.018 140.963 105.089 141.268C106.784 141.75 108.532 142.038 110.286 142.111L110.347 142.117C112.046 142.178 113.747 142.035 115.431 141.759C117.097 141.405 118.76 140.969 120.313 140.228C123.452 138.862 126.268 136.644 128.337 133.82C129.394 132.416 130.164 130.8 130.759 129.135C130.937 128.612 131.071 128.077 131.188 127.537C131.331 126.877 131.433 126.211 131.5 125.543C132.851 125.264 134.13 124.66 135.201 123.823C135.381 123.68 135.559 123.535 135.729 123.381C136.884 122.335 137.742 121.018 138.299 119.594C141.603 120.28 144.976 120.539 148.335 120.376C151.472 120.222 154.585 119.705 157.603 118.827C159.123 118.385 160.629 117.885 162.085 117.264C162.838 116.938 163.57 116.566 164.302 116.194C166.374 115.136 168.353 113.895 170.185 112.451C171.113 111.722 172.012 110.952 172.864 110.126C174.656 108.4 176.229 106.441 177.553 104.323C178.543 102.742 179.395 101.077 180.075 99.3388C180.498 98.2722 180.842 97.1795 181.125 96.0694C181.919 92.9482 182.17 89.6963 181.895 86.5025C181.65 83.9452 181.026 81.4372 180.098 79.06C179.456 77.4122 178.671 75.8255 177.746 74.3318C176.946 73.088 176.039 71.9255 175.085 70.8067C173.305 68.7143 171.294 66.837 169.062 65.2822L168.945 65.1921C168.061 64.6167 167.203 63.9977 166.266 63.5124L164.889 62.7423L163.462 62.0768C162.817 61.7513 162.14 61.4985 161.466 61.2485C161.16 61.1352 160.853 61.0219 160.55 60.9027C159.578 60.5365 158.653 60.3418 157.658 60.0512L157.836 58.6854C157.818 58.1942 157.833 57.6857 157.775 57.1916C157.649 56.2006 157.454 55.2009 157.063 54.271L156.955 54.0356C156.222 52.2483 155.046 50.6529 153.587 49.3946C153.097 48.9645 152.566 48.5867 152.023 48.2292C149.417 46.5146 146.286 45.6486 143.152 45.6806C143.103 45.0528 142.989 44.4309 142.823 43.8207C142.671 43.2743 142.487 42.7396 142.242 42.2252C141.582 40.9233 140.64 39.7347 139.42 38.8861C139.143 38.6885 138.851 38.5112 138.548 38.3514C137.538 37.8079 136.406 37.4708 135.25 37.4156C134.159 37.3372 133.053 37.5231 132.026 37.9126C131.106 35.2506 129.656 32.7571 127.631 30.7665C125.337 28.5026 122.416 26.8055 119.221 26.1371C116.043 25.4251 112.653 25.704 109.606 26.8985L109.273 27.0438C107.555 27.7557 105.964 28.7467 104.555 29.9615C103.971 30.4642 103.423 31.0048 102.906 31.5773C100.878 29.883 98.3891 28.8136 95.8182 28.4532C93.1453 28.0638 90.3615 28.3922 87.8402 29.4558C83.1772 23.8906 76.8304 19.9006 69.9612 17.907C63.1475 15.8698 55.8611 15.803 48.9862 17.4129C48.8286 17.4507 48.671 17.4856 48.5134 17.5234C48.2245 17.596 47.9269 17.6512 47.638 17.7297C44.0196 18.7701 40.5383 20.2755 37.3343 22.2574C34.1332 24.2452 31.2735 26.7822 28.8661 29.6854C26.4674 32.5944 24.5473 35.9248 23.3188 39.508C22.1895 42.8762 21.7839 46.4332 21.8744 49.9554C19.6275 50.092 17.3864 50.6035 15.3758 51.6497C15.2358 51.7194 15.1074 51.8153 14.9673 51.8909C14.5296 52.1292 14.0948 52.3791 13.6863 52.6668C13.196 53.0097 12.7233 53.3788 12.2681 53.7682C11.3431 54.6255 10.5172 55.5933 9.83733 56.6685C9.19244 57.7641 8.67594 58.9382 8.3783 60.182C8.11859 61.4287 7.99312 62.7132 8.12443 63.9832C8.3462 66.2383 9.27123 68.3743 10.6427 70.1267C9.65058 70.4318 8.69637 70.8881 7.86472 71.5477C6.80546 72.3789 5.91837 73.553 5.60322 74.9537C5.27348 76.3428 5.5682 77.8569 6.32398 79.0368C6.90759 79.958 7.71006 80.6932 8.60883 81.2512C6.71208 82.9367 5.06921 84.9361 3.82319 87.1738C3.57224 87.6243 3.34171 88.0863 3.12286 88.5542C2.5801 89.7196 2.13363 90.9343 1.8214 92.1927L1.81848 92.1956ZM11.0425 69.8244C11.311 69.8244 11.5736 69.8477 11.8391 69.8593C10.4151 68.1621 9.46966 66.0697 9.2829 63.8727C9.17785 62.7335 9.30916 61.5856 9.55428 60.4755C9.83442 59.3683 10.3101 58.3221 10.8995 57.3456C11.5211 56.3895 12.2768 55.5235 13.126 54.7592C14.0073 54.0327 14.941 53.3643 15.977 52.8702C17.8299 51.9461 19.8901 51.484 21.959 51.4114C21.9298 51.2603 21.8919 51.1121 21.8627 50.9609L23.3334 50.7575L23.3334 50.6064C23.2896 47.0348 23.7799 43.4632 25.0201 40.127C26.2807 36.8053 28.1716 33.7568 30.5002 31.1094C32.8346 28.4707 35.5718 26.1836 38.6183 24.4195C41.6676 22.6643 44.9563 21.3652 48.35 20.4992C51.7525 19.6477 55.2629 19.3571 58.7559 19.3688C62.2488 19.4792 65.733 19.9761 69.0712 20.9904C71.9222 21.8447 74.6622 23.0682 77.2243 24.5881C80.6501 26.6253 83.7462 29.2088 86.2411 32.3183L86.352 32.4578L88.5581 30.9902C88.7945 31.4058 89.0162 31.8272 89.2292 32.2515C91.1639 31.4494 93.3204 31.1443 95.4214 31.4232C97.8726 31.7342 100.219 32.853 101.929 34.588L102.007 34.6577L103.183 35.8783L104.181 34.5299C105.783 32.3677 107.943 30.6328 110.403 29.5953L110.613 29.4907C113.157 28.4416 116.003 28.2236 118.708 28.7177C121.427 29.1972 123.969 30.5689 126.023 32.4753C127.937 34.2451 129.335 36.5438 130.211 39.0314L130.453 38.764L131.675 40.4002L131.938 40.2403L132.265 40.0747C133.161 39.6068 134.159 39.3453 135.171 39.3889C136.306 39.4063 137.427 39.7754 138.39 40.4205C140.339 41.7079 141.55 44.0561 141.664 46.4856L141.693 47.0668L141.693 47.0784C141.693 46.8575 141.708 46.6338 141.693 46.4158L143.473 46.5204C143.427 46.7529 143.351 46.968 143.292 47.1946C146.712 47.0203 150.226 48.0083 152.954 50.1763C154.434 51.3242 155.633 52.8383 156.412 54.5587C156.832 55.4073 157.071 56.3343 157.249 57.2701C157.331 57.7409 157.349 58.2146 157.392 58.697L157.36 60.2546C158.326 60.6412 159.409 60.9986 160.363 61.4084C161.303 61.8385 162.266 62.2075 163.161 62.7219L164.527 63.4426L165.84 64.2563C166.73 64.7678 167.539 65.413 168.373 66.0087C171.647 68.4876 174.387 71.6349 176.436 75.1455C178.423 78.6909 179.695 82.6403 179.94 86.674C180.15 90.7047 179.476 94.7646 177.886 98.4408C174.717 105.831 168.309 111.524 160.941 114.494C153.937 117.319 146.044 117.88 138.726 116.139C138.737 116.682 138.743 117.226 138.726 117.778L135.484 117.357C135.574 116.874 135.638 116.38 135.705 115.886L135.405 117.188C135.09 118.557 134.357 119.804 133.353 120.693C132.373 121.57 131.136 122.059 129.875 122.067L129.709 125.366C129.096 125.255 128.498 125.11 127.914 124.936C127.815 125.964 127.625 126.979 127.284 127.955C126.799 129.243 126.204 130.504 125.349 131.608C123.686 133.831 121.392 135.636 118.789 136.732C116.198 137.868 113.341 138.379 110.49 138.28C107.998 138.185 105.544 137.566 103.306 136.505C102.988 137.336 102.641 138.167 102.209 138.992L99.5067 137.133L99.8102 136.734C95.9379 141.62 90.6037 145.307 84.7062 147.438C78.73 149.62 72.1848 150.12 65.8789 149.213C59.6079 148.17 53.4858 145.685 48.5922 141.567C43.6782 137.534 39.9343 131.986 38.4899 125.752L35.2829 126.179C35.2829 125.898 35.2975 125.619 35.3062 125.34C33.6429 125.944 31.7112 125.746 30.2201 124.7C28.3496 123.468 27.1911 121.164 27.1648 118.81L27.1502 117.598L25.9743 117.572C21.6935 117.476 17.3835 116.461 13.6221 114.331C9.84609 112.259 6.64789 109.077 4.67527 105.218C3.71814 103.277 3.07325 101.184 2.77561 99.0278C2.70557 97.9438 2.59177 96.857 2.6618 95.7672C2.72016 94.6774 2.88066 93.5963 3.11702 92.5298C4.10625 88.3508 6.58077 84.599 9.83442 81.7976L9.48425 81.7976L9.66809 80.6119L10.2984 80.7833L9.90153 80.5973C8.85103 80.1004 7.92016 79.3564 7.30445 78.409C6.69457 77.4646 6.46113 76.3079 6.70625 75.2181C6.93677 74.1284 7.64003 73.1548 8.54171 72.4341C9.4434 71.7018 10.5523 71.2223 11.702 70.9694L12.3352 70.8299C11.9442 70.8852 11.5502 70.9462 11.1709 71.0276L11.0396 69.8331L11.0425 69.8244Z" fill="black"/>
<path d="M128.693 122.064L128.086 122.059C128.29 122.064 128.492 122.067 128.693 122.064Z" fill="black"/>
<path d="M22.1681 59.8713C22.778 61.2953 23.4666 62.6815 24.2487 64.0125C24.9811 65.2244 25.7486 66.4275 26.6853 67.4911L26.7028 67.465C25.8653 66.3374 25.2029 65.0878 24.5813 63.8353C23.9189 62.4607 23.3557 61.0454 22.8713 59.6069C22.0951 57.3198 21.564 54.96 21.2255 52.5857C21.138 51.9784 21.0563 51.3681 20.9921 50.7578L19.498 50.9612C19.5272 51.1124 19.5652 51.2606 19.5943 51.4117C19.7373 52.1469 19.8978 52.8793 20.0787 53.6087C20.6098 55.7563 21.2927 57.8574 22.1681 59.8713Z" fill="black"/>
<path d="M88.05 38.0375C88.9254 40.0137 89.5528 42.109 90.0664 44.2362C90.5683 46.3664 90.9184 48.546 91.1052 50.7459C91.2628 52.9429 91.3766 55.1719 91.0235 57.3689C91.5983 55.2126 91.7151 52.9574 91.7822 50.7255C91.823 48.4849 91.6947 46.2356 91.4028 43.995C91.0994 41.7602 90.6675 39.5196 89.9584 37.3401C89.4302 35.6807 88.7737 34.0504 87.9741 32.4723L87.8545 32.2515C87.6356 31.8272 87.4109 31.4058 87.1716 30.9902L84.9335 32.4578L84.9043 32.4782C86.1416 34.1869 87.1862 36.0614 88.0471 38.0404L88.05 38.0375Z" fill="black"/>
<path d="M91.8105 2.05864e-09L89.0996 0.130774L91.6208 23.891L91.8105 2.05864e-09Z" fill="black"/>
<path d="M93.9551 25.1639L100.346 8.97405L97.7486 8.18359L95.9277 16.3323L95.5658 17.9568L93.9551 25.1639Z" fill="black"/>
<path d="M81.8087 7.77344L79.375 8.97075L88.4298 24.1667L81.8087 7.77344Z" fill="black"/>
<path d="M173.561 55.1109L164.08 58.9121L176.143 56.1309L179.292 55.4044L181.101 54.9888L180.596 53.3992L180.284 52.4111L173.561 55.1109Z" fill="black"/>
<path d="M161.777 53.8122L171.594 39.0928L169.224 37.7734L168.588 39.1509L166.385 43.8879L161.777 53.8122Z" fill="black"/>
<path d="M146.33 141.806L148.574 140.286L145.998 137.057L139.523 128.944L137.334 126.2L139.012 129.112L144.568 138.749L146.33 141.806Z" fill="black"/>
<path d="M136.908 130.533L135.332 126.29L136.146 131.736L137.1 138.138L137.27 139.266L138.165 139.039L139.899 138.594L136.908 130.533Z" fill="black"/>
<path d="M149.793 133.006L151.243 130.722L139.273 124.776L149.793 133.006Z" fill="black"/>
<path d="M26.3208 135.136L29.376 132.91L26.4609 134.567L21.8445 137.188L11.5408 143.041L8.84447 144.575L8.53516 144.75L8.6869 144.982L10.0117 147.016L13.8577 144.215L23.1226 137.467L26.3208 135.136Z" fill="black"/>
<path d="M29.3082 130.263L23.8514 131.094L21.7942 131.405L12.0391 132.89L12.6548 135.523L20.2301 133.131L25.0712 131.602L29.3082 130.263Z" fill="black"/>
<path d="M20.3105 149.458L22.5721 150.952L31.2183 135.521L20.3105 149.458Z" fill="black"/>
<path d="M127.298 42.0747C126.691 43.2487 126.213 44.4606 125.877 45.7015C127.202 43.5335 128.947 41.5487 130.963 40.4385L130.931 40.3978L129.691 38.7617L129.446 39.0291L129.221 39.2732C128.436 40.1479 127.809 41.0953 127.301 42.0747L127.298 42.0747Z" fill="black"/>
<path d="M140.053 52.8908C141.08 51.3186 141.996 49.6476 142.568 47.747C142.624 47.5668 142.67 47.3808 142.72 47.1948C142.778 46.9682 142.857 46.7531 142.904 46.5206L141.097 46.416C141.112 46.634 141.097 46.8577 141.097 47.0786C141.118 48.9618 140.683 50.9786 140.053 52.8908Z" fill="black"/>
<path d="M137.747 112.536C137.523 111.307 137.216 110.107 136.863 108.93C136.729 108.485 136.612 108.032 136.455 107.599C135.331 104.419 133.831 101.423 131.967 98.6973C133.347 101.688 134.298 104.844 134.85 108.011C134.897 108.261 134.911 108.508 134.949 108.758C135.147 110.095 135.253 111.438 135.273 112.76C135.285 113.821 135.18 114.861 135.034 115.884C134.964 116.378 134.899 116.872 134.809 117.354L138.098 117.776C138.112 117.224 138.106 116.68 138.098 116.137C138.068 114.919 137.969 113.716 137.756 112.539L137.747 112.536Z" fill="black"/>
<path d="M104.38 127.264C104.546 126.078 104.686 124.893 104.78 123.71C104.43 124.864 104.039 126 103.618 127.122C103.146 128.392 102.638 129.641 102.084 130.862C101.106 132.98 99.968 135.035 98.6052 136.729L98.2988 137.127L101.039 138.987C101.477 138.162 101.83 137.331 102.154 136.5C102.81 134.803 103.277 133.094 103.659 131.382C103.951 130.01 104.187 128.639 104.38 127.267L104.38 127.264Z" fill="black"/>
<path d="M35.7457 119.481C35.8099 118.162 36.0025 116.831 36.3206 115.517C36.519 114.692 36.7583 113.875 37.0793 113.076C36.592 113.745 36.1688 114.459 35.7749 115.195C35.1008 116.459 34.5405 117.796 34.1116 119.191C33.5134 121.144 33.2012 123.216 33.1486 125.328C33.1428 125.607 33.1224 125.886 33.1253 126.168L36.3819 125.741L36.4139 125.735C35.8887 123.744 35.6407 121.626 35.7486 119.475L35.7457 119.481Z" fill="black"/>
<path d="M128.693 122.065C128.492 122.065 128.291 122.065 128.087 122.059C127.322 122.036 126.543 121.946 125.767 121.736C124.649 121.431 123.526 120.992 122.46 120.394C122.294 120.298 122.134 120.185 121.967 120.086C120.03 118.915 118.229 117.4 116.709 115.604C117.821 117.706 119.297 119.644 121.095 121.344C121.232 121.472 121.355 121.611 121.492 121.736C122.49 122.626 123.625 123.396 124.865 124.047C125.577 124.416 126.336 124.703 127.126 124.933C127.719 125.107 128.326 125.253 128.947 125.363L129.114 122.065C128.977 122.068 128.834 122.065 128.693 122.068L128.693 122.065Z" fill="black"/>
<path d="M25.1741 73.4461C25.5477 71.1619 26.4231 69.0957 27.8675 67.4334C28.5766 66.5964 29.417 65.8728 30.345 65.2771C31.2817 64.6987 32.303 64.2221 33.4527 64.0216C32.2942 63.8647 31.0716 64.1379 30.0036 64.6639C28.9239 65.1812 27.9697 65.9455 27.1847 66.8493C27.0155 67.0469 26.855 67.2532 26.7032 67.4653L26.6857 67.4915C25.4572 69.2235 24.8619 71.4089 25.1771 73.4461L25.1741 73.4461Z" fill="black"/>
<path d="M8.65572 71.0196C9.0409 70.9382 9.44068 70.8772 9.83753 70.822C11.3141 70.6156 12.8548 70.5575 14.3781 70.5488C12.7235 70.2146 11.0631 69.9356 9.32979 69.8571C9.06133 69.8455 8.79578 69.8252 8.52148 69.8223L8.65572 71.0167L8.65572 71.0196Z" fill="black"/>
<path d="M7.77113 80.775L7.13207 80.6035L6.94531 81.7921L7.30132 81.7892L11.4829 81.766L7.77113 80.775Z" fill="black"/>
<path d="M117.84 59.2001C119.203 59.1652 120.408 59.4296 121.505 59.8975C122.593 60.3799 123.586 61.0396 124.438 61.862C125.31 62.6612 126.04 63.6202 126.658 64.6635C127.268 65.7213 127.738 66.8751 128.123 68.1799C128.497 66.8722 128.4 65.4278 127.954 64.0997C127.747 63.4604 127.449 62.8501 127.087 62.2747C127.032 62.4084 126.965 62.5363 126.918 62.6729L125.258 61.958C125.453 61.5656 125.698 61.1995 125.961 60.8478L125.684 60.5485C124.633 59.5866 123.343 58.8368 121.922 58.5549C120.522 58.2527 118.99 58.4387 117.849 59.1972L117.84 59.2001Z" fill="black"/>
<path d="M126.91 62.673C126.957 62.5364 127.024 62.4085 127.08 62.2748C127.444 61.4495 127.99 60.7026 128.722 60.1185C129.569 59.4443 130.628 58.9909 131.749 58.7904C133.993 58.3836 136.49 58.9735 138.361 60.5021C136.698 58.7526 134.191 57.7616 131.643 57.8982C130.374 57.9651 129.087 58.3196 127.949 59.0084C127.176 59.4733 126.502 60.1127 125.947 60.8479C125.685 61.1967 125.443 61.5628 125.244 61.9581L126.905 62.673L126.91 62.673Z" fill="black"/>
<path d="M47.5037 79.7751C47.778 79.2259 48.1194 78.7173 48.4871 78.2261C48.3558 78.0896 48.2361 77.9413 48.096 77.8077C46.6253 76.4621 44.822 75.416 42.8377 75.0207C40.8826 74.6022 38.7407 74.8551 37.1445 75.9187C39.0529 75.8722 40.7338 76.2384 42.2657 76.8952C43.7861 77.5694 45.1721 78.4935 46.3656 79.6414C47.5854 80.7603 48.6038 82.0971 49.4705 83.5588C50.3225 85.038 50.9762 86.6538 51.5189 88.476C52.0384 86.648 51.9041 84.6283 51.2797 82.7713C50.9908 81.8762 50.5735 81.0218 50.0687 80.2226C49.987 80.4086 49.8965 80.5888 49.8294 80.7777L47.5066 79.778L47.5037 79.7751Z" fill="white"/>
<path d="M56.4507 74.103C54.6765 74.196 52.8761 74.69 51.2828 75.6548C50.206 76.3058 49.2606 77.198 48.4873 78.2267C48.1196 78.715 47.7782 79.2264 47.5039 79.7757L49.8267 80.7754C49.8938 80.5865 49.9843 80.4034 50.066 80.2203C50.5737 79.0695 51.3412 78.0204 52.3625 77.2067C53.5472 76.2651 55.0267 75.6316 56.5937 75.3526C59.7306 74.7859 63.2206 75.6054 65.8381 77.7414C63.5095 75.3003 60.0049 73.9112 56.4478 74.1001L56.4507 74.103Z" fill="white"/>
<path d="M69.2422 108.723C71.1477 108.676 72.8314 109.043 74.3634 109.699C75.8837 110.374 77.2698 111.298 78.4604 112.446C79.683 113.562 80.6985 114.901 81.5652 116.363C82.4173 117.839 83.0709 119.458 83.6137 121.28C84.1331 119.449 83.9989 117.432 83.3744 115.575C83.0826 114.68 82.6682 113.829 82.1634 113.027C82.0817 113.21 81.9912 113.393 81.9212 113.582L79.6013 112.582C79.8786 112.033 80.217 111.524 80.5847 111.033C80.4534 110.897 80.3338 110.748 80.1966 110.618C78.7259 109.269 76.9196 108.226 74.9383 107.831C72.9832 107.409 70.8413 107.665 69.2451 108.726L69.2422 108.723Z" fill="white"/>
<path d="M81.9224 113.579C81.9895 113.39 82.0829 113.207 82.1646 113.024C82.6723 111.87 83.4398 110.824 84.4611 110.01C85.6459 109.069 87.1253 108.435 88.6894 108.156C91.8263 107.59 95.3163 108.412 97.9368 110.548C95.6081 108.104 92.1035 106.715 88.5464 106.904C86.7722 106.997 84.9718 107.491 83.3785 108.456C82.3017 109.107 81.3563 109.999 80.583 111.028C80.2153 111.519 79.8768 112.027 79.5996 112.576L81.9195 113.576L81.9224 113.579Z" fill="white"/>
</g>
<defs>
<clipPath id="clip0_2239_34297">
<rect width="182" height="153.183" fill="white"/>
</clipPath>
</defs>
</svg>
